{"glyphs":{"0":{"ha":850,"x_min":67,"x_max":783,"o":"m 426 1018 q 686 887 589 1018 q 783 500 783 756 q 686 115 783 245 q 424 -15 590 -15 q 163 114 260 -15 q 67 498 67 244 q 111 785 67 669 q 236 960 156 901 q 426 1018 317 1018 m 426 96 q 589 191 533 96 q 644 499 644 285 q 588 814 644 717 q 425 910 532 910 q 261 813 319 910 q 204 499 204 716 q 261 191 204 286 q 426 96 318 96 z "},"1":{"ha":565,"x_min":65,"x_max":391,"o":"m 258 0 l 258 799 l 65 799 l 65 883 q 205 897 155 883 q 276 937 255 910 q 299 1004 297 964 l 391 1004 l 391 0 l 258 0 z "},"2":{"ha":828,"x_min":65,"x_max":759,"o":"m 86 0 l 86 78 l 86 119 q 115 253 86 197 q 191 351 144 309 q 295 426 239 393 q 409 491 352 460 q 513 555 465 522 q 589 632 560 589 q 617 733 617 674 q 564 857 617 809 q 418 905 510 905 q 260 849 319 905 q 192 701 200 794 l 65 701 q 108 860 67 788 q 228 975 149 932 q 423 1018 307 1018 q 598 982 524 1018 q 713 882 672 947 q 753 733 753 818 q 725 599 753 655 q 650 503 697 544 q 547 431 603 463 q 435 369 492 399 q 333 307 379 340 q 258 233 286 275 q 229 134 229 192 l 229 114 l 759 114 l 759 0 l 86 0 z "},"3":{"ha":875,"x_min":67,"x_max":808,"o":"m 80 712 q 127 877 80 809 q 253 982 174 946 q 427 1018 332 1018 q 611 988 531 1018 q 736 900 691 958 q 781 759 781 842 q 734 625 781 685 q 590 531 687 565 q 705 478 656 513 q 781 393 754 443 q 808 277 808 342 q 780 154 808 208 q 699 61 751 99 q 576 4 647 24 q 422 -15 505 -16 q 239 23 318 -15 q 115 128 160 60 q 67 289 70 196 l 195 289 q 272 145 210 195 q 426 95 333 95 q 555 118 500 95 q 640 183 610 142 q 669 278 669 224 q 636 381 669 339 q 545 444 603 422 q 417 467 488 466 l 326 469 l 326 578 l 413 580 q 531 605 478 581 q 613 668 583 629 q 643 755 643 708 q 617 832 643 797 q 543 890 592 868 q 426 911 495 911 q 323 890 372 911 q 242 825 274 869 q 208 712 210 781 l 80 712 z "},"4":{"ha":873,"x_min":65,"x_max":830,"o":"m 533 1004 l 663 1004 l 663 369 l 830 369 l 830 256 l 663 256 l 663 0 l 538 0 l 538 256 l 65 256 l 65 374 l 533 1004 m 188 369 l 535 369 l 535 835 l 188 369 z "},"5":{"ha":890,"x_min":67,"x_max":822,"o":"m 163 1004 l 762 1004 l 758 893 l 272 893 l 247 569 q 356 635 297 615 q 485 655 415 655 q 652 618 576 655 q 776 508 729 581 q 822 328 822 435 q 777 147 822 224 q 650 27 732 70 q 458 -15 568 -15 q 285 17 365 -15 q 150 108 206 50 q 67 242 93 167 l 178 289 q 241 188 203 232 q 331 118 278 143 q 449 93 383 93 q 620 155 556 93 q 685 324 685 217 q 655 441 685 391 q 573 518 624 490 q 458 546 521 546 q 382 539 417 546 q 312 510 347 531 q 239 447 277 490 q 233 445 235 445 q 226 448 231 446 l 117 482 l 163 1004 z "},"6":{"ha":865,"x_min":67,"x_max":798,"o":"m 460 1018 q 614 987 543 1018 q 731 897 684 956 q 788 756 777 839 l 667 756 q 594 869 647 828 q 462 911 542 911 q 314 861 373 911 q 227 714 254 810 q 208 476 200 617 q 266 565 227 526 q 356 625 304 603 q 467 646 407 646 q 640 607 566 646 q 756 498 715 569 q 798 328 798 426 q 755 150 798 227 q 634 28 713 72 q 449 -15 556 -15 q 246 45 332 -15 q 114 218 160 106 q 67 487 67 330 q 112 767 67 648 q 245 952 158 887 q 460 1018 333 1018 m 446 542 q 341 516 391 542 q 259 447 290 490 q 227 353 227 405 q 254 218 226 277 q 331 125 281 158 q 447 91 381 91 q 557 120 509 91 q 632 201 605 149 q 660 322 660 253 q 635 440 660 390 q 563 515 610 489 q 446 542 515 542 z "},"7":{"ha":834,"x_min":65,"x_max":769,"o":"m 65 1004 l 769 1004 l 769 893 q 664 727 716 820 q 564 534 611 635 q 479 334 517 433 q 417 150 442 236 q 385 0 392 63 l 246 0 q 286 170 257 69 q 362 392 315 272 q 476 641 409 513 q 628 893 542 769 l 65 893 l 65 1004 z "},"8":{"ha":899,"x_min":67,"x_max":833,"o":"m 449 1018 q 622 986 546 1018 q 743 893 699 954 q 788 744 788 832 q 743 607 788 663 q 630 522 699 551 q 727 475 681 513 q 803 384 773 438 q 833 272 833 331 q 785 121 833 185 q 651 20 738 56 q 449 -15 565 -15 q 248 20 334 -15 q 114 121 162 56 q 67 272 67 185 q 96 384 67 331 q 172 475 126 438 q 269 522 219 513 q 156 607 201 551 q 111 744 111 663 q 156 893 111 832 q 277 986 200 954 q 449 1018 353 1018 m 449 576 q 598 622 541 576 q 656 747 656 667 q 598 875 656 828 q 449 922 540 922 q 301 875 358 922 q 243 747 243 828 q 301 622 243 667 q 449 576 358 576 m 449 89 q 628 139 561 89 q 694 273 694 190 q 664 371 694 328 q 579 439 634 414 q 449 463 524 463 q 320 439 375 463 q 236 371 266 414 q 206 273 206 328 q 272 139 206 190 q 449 89 338 89 z "},"9":{"ha":867,"x_min":69,"x_max":800,"o":"m 403 -15 q 248 16 320 -15 q 128 106 176 48 q 69 246 80 165 l 194 246 q 266 134 211 177 q 399 92 321 92 q 552 138 488 92 q 647 282 615 185 q 670 531 678 379 q 615 439 653 478 q 525 376 578 399 q 408 353 472 353 q 233 392 309 353 q 116 503 158 431 q 74 676 74 575 q 115 853 74 776 q 235 974 157 931 q 419 1018 313 1018 q 622 958 536 1018 q 753 786 707 898 q 800 517 800 674 q 754 229 800 348 q 619 48 708 110 q 403 -15 531 -15 m 422 462 q 528 488 478 462 q 609 556 578 513 q 641 649 641 599 q 615 786 642 727 q 538 880 588 846 q 421 913 488 913 q 313 884 360 913 q 239 803 266 855 q 213 682 213 751 q 266 522 213 581 q 422 462 319 462 z "},"A":{"ha":986,"x_min":58,"x_max":929,"o":"m 58 0 l 421 1004 l 566 1004 l 929 0 l 798 0 l 699 275 l 289 275 l 188 0 l 58 0 m 322 393 l 665 393 l 494 877 l 322 393 z "},"Á":{"ha":986,"x_min":58,"x_max":929,"o":"m 58 0 l 421 1004 l 566 1004 l 929 0 l 798 0 l 699 275 l 289 275 l 188 0 l 58 0 m 322 393 l 665 393 l 494 877 l 322 393 m 585 1290 l 731 1290 l 541 1088 l 442 1088 l 585 1290 z "},"Ă":{"ha":986,"x_min":58,"x_max":929,"o":"m 58 0 l 421 1004 l 566 1004 l 929 0 l 798 0 l 699 275 l 289 275 l 188 0 l 58 0 m 322 393 l 665 393 l 494 877 l 322 393 m 704 1237 q 664 1156 693 1190 q 590 1104 634 1122 q 492 1086 546 1086 q 397 1103 441 1086 q 324 1155 353 1121 q 283 1237 294 1188 l 376 1237 q 418 1182 388 1203 q 492 1161 448 1161 q 568 1182 536 1161 q 611 1237 599 1203 l 704 1237 z "},"Ắ":{"ha":986,"x_min":58,"x_max":929,"o":"m 58 0 l 421 1004 l 566 1004 l 929 0 l 798 0 l 699 275 l 289 275 l 188 0 l 58 0 m 322 393 l 665 393 l 494 877 l 322 393 z "},"Ặ":{"ha":986,"x_min":58,"x_max":929,"o":"m 58 0 l 421 1004 l 566 1004 l 929 0 l 798 0 l 699 275 l 289 275 l 188 0 l 58 0 m 322 393 l 665 393 l 494 877 l 322 393 m 704 1237 q 664 1156 693 1190 q 590 1104 634 1122 q 492 1086 546 1086 q 397 1103 441 1086 q 324 1155 353 1121 q 283 1237 294 1188 l 376 1237 q 418 1182 388 1203 q 492 1161 448 1161 q 568 1182 536 1161 q 611 1237 599 1203 l 704 1237 z "},"Ằ":{"ha":986,"x_min":58,"x_max":929,"o":"m 58 0 l 421 1004 l 566 1004 l 929 0 l 798 0 l 699 275 l 289 275 l 188 0 l 58 0 m 322 393 l 665 393 l 494 877 l 322 393 z "},"Ẳ":{"ha":986,"x_min":58,"x_max":929,"o":"m 58 0 l 421 1004 l 566 1004 l 929 0 l 798 0 l 699 275 l 289 275 l 188 0 l 58 0 m 322 393 l 665 393 l 494 877 l 322 393 z "},"Ẵ":{"ha":986,"x_min":58,"x_max":929,"o":"m 58 0 l 421 1004 l 566 1004 l 929 0 l 798 0 l 699 275 l 289 275 l 188 0 l 58 0 m 322 393 l 665 393 l 494 877 l 322 393 z "},"Â":{"ha":986,"x_min":58,"x_max":929,"o":"m 58 0 l 421 1004 l 566 1004 l 929 0 l 798 0 l 699 275 l 289 275 l 188 0 l 58 0 m 322 393 l 665 393 l 494 877 l 322 393 m 590 1088 l 492 1178 l 388 1088 l 274 1088 l 448 1244 l 540 1244 l 710 1088 l 590 1088 z "},"Ấ":{"ha":986,"x_min":58,"x_max":929,"o":"m 58 0 l 421 1004 l 566 1004 l 929 0 l 798 0 l 699 275 l 289 275 l 188 0 l 58 0 m 322 393 l 665 393 l 494 877 l 322 393 z "},"Ậ":{"ha":986,"x_min":58,"x_max":929,"o":"m 58 0 l 421 1004 l 566 1004 l 929 0 l 798 0 l 699 275 l 289 275 l 188 0 l 58 0 m 322 393 l 665 393 l 494 877 l 322 393 m 590 1088 l 493 1178 l 388 1088 l 274 1088 l 449 1244 l 540 1244 l 711 1088 l 590 1088 z "},"Ầ":{"ha":986,"x_min":58,"x_max":929,"o":"m 58 0 l 421 1004 l 566 1004 l 929 0 l 798 0 l 699 275 l 289 275 l 188 0 l 58 0 m 322 393 l 665 393 l 494 877 l 322 393 z "},"Ẩ":{"ha":986,"x_min":58,"x_max":929,"o":"m 58 0 l 421 1004 l 566 1004 l 929 0 l 798 0 l 699 275 l 289 275 l 188 0 l 58 0 m 322 393 l 665 393 l 494 877 l 322 393 z "},"Ẫ":{"ha":986,"x_min":58,"x_max":929,"o":"m 58 0 l 421 1004 l 566 1004 l 929 0 l 798 0 l 699 275 l 289 275 l 188 0 l 58 0 m 322 393 l 665 393 l 494 877 l 322 393 z "},"Ȁ":{"ha":986,"x_min":58,"x_max":929,"o":"m 58 0 l 421 1004 l 566 1004 l 929 0 l 798 0 l 699 275 l 289 275 l 188 0 l 58 0 m 322 393 l 665 393 l 494 877 l 322 393 m 503 1290 l 639 1088 l 540 1088 l 369 1290 l 503 1290 m 281 1290 l 445 1088 l 346 1088 l 144 1290 l 281 1290 z "},"Ä":{"ha":986,"x_min":58,"x_max":929,"o":"m 58 0 l 421 1004 l 566 1004 l 929 0 l 798 0 l 699 275 l 289 275 l 188 0 l 58 0 m 322 393 l 665 393 l 494 877 l 322 393 m 565 1131 l 566 1255 l 692 1255 l 691 1131 l 565 1131 m 295 1131 l 296 1255 l 422 1255 l 421 1131 l 295 1131 z "},"Ạ":{"ha":986,"x_min":58,"x_max":929,"o":"m 58 0 l 421 1004 l 566 1004 l 929 0 l 798 0 l 699 275 l 289 275 l 188 0 l 58 0 m 322 393 l 665 393 l 494 877 l 322 393 z "},"À":{"ha":986,"x_min":58,"x_max":929,"o":"m 58 0 l 421 1004 l 566 1004 l 929 0 l 798 0 l 699 275 l 289 275 l 188 0 l 58 0 m 322 393 l 665 393 l 494 877 l 322 393 z "},"Ả":{"ha":986,"x_min":58,"x_max":929,"o":"m 58 0 l 421 1004 l 566 1004 l 929 0 l 798 0 l 699 275 l 289 275 l 188 0 l 58 0 m 322 393 l 665 393 l 494 877 l 322 393 m 398 1299 l 436 1240 q 493 1260 464 1259 q 537 1238 523 1260 q 539 1189 551 1214 q 497 1144 527 1163 l 535 1086 q 614 1174 597 1124 q 597 1278 632 1225 q 513 1330 569 1322 q 398 1299 457 1337 z "},"Ȃ":{"ha":986,"x_min":58,"x_max":929,"o":"m 58 0 l 421 1004 l 566 1004 l 929 0 l 798 0 l 699 275 l 289 275 l 188 0 l 58 0 m 322 393 l 665 393 l 494 877 l 322 393 z "},"Ā":{"ha":986,"x_min":58,"x_max":929,"o":"m 58 0 l 421 1004 l 566 1004 l 929 0 l 798 0 l 699 275 l 289 275 l 188 0 l 58 0 m 322 393 l 665 393 l 494 877 l 322 393 m 700 1234 l 700 1144 l 285 1144 l 285 1234 l 700 1234 z "},"Ą":{"ha":986,"x_min":58,"x_max":963,"o":"m 58 0 l 421 1004 l 566 1004 l 929 0 l 798 0 l 699 275 l 289 275 l 188 0 l 58 0 m 322 393 l 665 393 l 494 877 l 322 393 m 696 -123 q 725 -48 696 -81 q 838 11 755 -15 l 931 3 q 830 -52 861 -26 q 799 -112 799 -78 q 814 -150 799 -137 q 863 -162 829 -162 q 922 -154 897 -162 q 963 -137 948 -145 l 963 -204 q 910 -224 946 -215 q 833 -233 874 -233 q 731 -203 766 -233 q 696 -123 696 -174 z "},"Å":{"ha":986,"x_min":58,"x_max":929,"o":"m 58 0 l 421 1004 l 566 1004 l 929 0 l 798 0 l 699 275 l 289 275 l 188 0 l 58 0 m 322 393 l 665 393 l 494 877 l 322 393 m 638 1231 q 596 1129 638 1170 q 494 1088 554 1088 q 392 1130 434 1088 q 351 1233 351 1172 q 393 1331 351 1290 q 494 1372 435 1372 q 567 1352 534 1372 q 618 1301 599 1333 q 638 1231 638 1269 m 566 1230 q 545 1283 566 1263 q 492 1303 524 1303 q 440 1283 463 1303 q 417 1230 417 1263 q 440 1177 417 1200 q 492 1154 463 1154 q 545 1177 524 1154 q 566 1230 566 1200 z "},"Ǻ":{"ha":986,"x_min":58,"x_max":929,"o":"m 58 0 l 421 1004 l 566 1004 l 929 0 l 798 0 l 699 275 l 289 275 l 188 0 l 58 0 m 322 393 l 665 393 l 494 877 l 322 393 m 492 947 q 393 986 433 947 q 353 1086 353 1026 q 393 1181 353 1142 q 492 1219 434 1219 q 592 1180 551 1219 q 633 1083 633 1142 q 592 985 633 1024 q 492 947 551 947 m 491 1006 q 544 1030 522 1006 q 565 1082 565 1053 q 544 1136 565 1115 q 491 1157 522 1157 q 439 1136 462 1157 q 416 1082 416 1115 q 439 1030 416 1053 q 491 1006 462 1006 m 458 1185 l 488 1306 l 583 1306 l 533 1185 l 458 1185 z "},"Ã":{"ha":986,"x_min":58,"x_max":929,"o":"m 58 0 l 421 1004 l 566 1004 l 929 0 l 798 0 l 699 275 l 289 275 l 188 0 l 58 0 m 322 393 l 665 393 l 494 877 l 322 393 m 704 1176 q 657 1150 686 1163 q 585 1136 628 1136 q 519 1145 547 1136 q 466 1163 492 1154 q 408 1172 440 1172 q 353 1161 374 1172 q 310 1133 332 1149 l 286 1209 q 336 1246 310 1231 q 402 1261 363 1261 q 466 1251 436 1261 q 525 1232 497 1242 q 585 1222 554 1222 q 639 1234 616 1222 q 682 1261 662 1245 l 704 1176 z "},"Æ":{"ha":1353,"x_min":0,"x_max":1270,"o":"m 1270 112 l 1270 0 l 628 0 l 628 278 l 285 278 l 131 0 l 0 0 l 556 1004 l 1253 1004 l 1253 893 l 774 893 l 774 562 l 1203 562 l 1203 451 l 774 451 l 774 112 l 1270 112 m 628 393 l 628 911 l 336 393 l 628 393 z "},"Ǽ":{"ha":1353,"x_min":0,"x_max":1270,"o":"m 1270 112 l 1270 0 l 628 0 l 628 278 l 285 278 l 131 0 l 0 0 l 556 1004 l 1253 1004 l 1253 893 l 774 893 l 774 562 l 1203 562 l 1203 451 l 774 451 l 774 112 l 1270 112 m 628 393 l 628 911 l 336 393 l 628 393 m 983 1290 l 1129 1290 l 940 1088 l 840 1088 l 983 1290 z "},"B":{"ha":931,"x_min":133,"x_max":852,"o":"m 133 0 l 133 1004 l 456 1004 q 733 937 639 1004 q 827 742 827 869 q 786 606 827 663 q 641 512 744 549 q 741 476 700 499 q 806 420 781 452 q 841 351 831 389 q 852 270 852 313 q 755 67 852 134 q 466 0 658 0 l 133 0 m 261 107 l 465 107 q 656 148 590 107 q 722 276 722 190 q 689 378 722 339 q 602 435 657 417 q 480 453 547 453 l 261 453 l 261 107 m 261 563 l 480 563 q 558 570 519 563 q 630 597 597 578 q 683 647 663 615 q 703 726 703 678 q 636 856 703 814 q 462 898 569 898 l 261 898 l 261 563 z "},"C":{"ha":956,"x_min":75,"x_max":881,"o":"m 502 1018 q 690 974 608 1018 q 822 856 772 930 q 881 694 872 783 l 744 694 q 702 801 733 753 q 620 878 671 849 q 499 906 569 906 q 345 864 408 906 q 250 732 282 821 q 217 504 217 643 q 289 196 217 294 q 499 98 361 98 q 620 128 569 98 q 702 208 671 158 q 744 316 733 258 l 881 316 q 847 193 874 252 q 774 87 820 133 q 659 13 727 40 q 502 -14 592 -14 q 271 48 367 -14 q 125 226 176 110 q 75 506 75 342 q 125 783 75 669 q 270 958 175 898 q 502 1018 366 1018 z "},"Ć":{"ha":956,"x_min":75,"x_max":881,"o":"m 502 1018 q 690 974 608 1018 q 822 856 772 930 q 881 694 872 783 l 744 694 q 702 801 733 753 q 620 878 671 849 q 499 906 569 906 q 345 864 408 906 q 250 732 282 821 q 217 504 217 643 q 289 196 217 294 q 499 98 361 98 q 620 128 569 98 q 702 208 671 158 q 744 316 733 258 l 881 316 q 847 193 874 252 q 774 87 820 133 q 659 13 727 40 q 502 -14 592 -14 q 271 48 367 -14 q 125 226 176 110 q 75 506 75 342 q 125 783 75 669 q 270 958 175 898 q 502 1018 366 1018 m 590 1290 l 735 1290 l 546 1088 l 447 1088 l 590 1290 z "},"Č":{"ha":956,"x_min":75,"x_max":881,"o":"m 502 1018 q 690 974 608 1018 q 822 856 772 930 q 881 694 872 783 l 744 694 q 702 801 733 753 q 620 878 671 849 q 499 906 569 906 q 345 864 408 906 q 250 732 282 821 q 217 504 217 643 q 289 196 217 294 q 499 98 361 98 q 620 128 569 98 q 702 208 671 158 q 744 316 733 258 l 881 316 q 847 193 874 252 q 774 87 820 133 q 659 13 727 40 q 502 -14 592 -14 q 271 48 367 -14 q 125 226 176 110 q 75 506 75 342 q 125 783 75 669 q 270 958 175 898 q 502 1018 366 1018 m 453 1088 l 278 1244 l 393 1244 l 498 1151 l 595 1244 l 716 1244 l 545 1088 l 453 1088 z "},"Ç":{"ha":956,"x_min":75,"x_max":881,"o":"m 502 1018 q 690 974 608 1018 q 822 856 772 930 q 881 694 872 783 l 744 694 q 702 801 733 753 q 620 878 671 849 q 499 906 569 906 q 345 864 408 906 q 250 732 282 821 q 217 504 217 643 q 289 196 217 294 q 499 98 361 98 q 620 128 569 98 q 702 208 671 158 q 744 316 733 258 l 881 316 q 847 193 874 252 q 774 87 820 133 q 659 13 727 40 q 502 -14 592 -14 q 271 48 367 -14 q 125 226 176 110 q 75 506 75 342 q 125 783 75 669 q 270 958 175 898 q 502 1018 366 1018 m 633 -178 q 613 -237 633 -214 q 558 -274 592 -261 q 483 -286 524 -286 q 413 -278 446 -286 q 351 -251 380 -269 l 373 -197 q 414 -220 391 -210 q 468 -230 438 -230 q 525 -217 506 -230 q 543 -179 543 -203 q 517 -134 543 -149 q 432 -118 491 -119 q 423 -116 425 -118 q 424 -109 422 -114 l 474 7 l 542 7 l 509 -77 q 584 -95 556 -79 q 622 -133 611 -110 q 633 -178 633 -156 z "},"Ĉ":{"ha":956,"x_min":75,"x_max":881,"o":"m 502 1018 q 690 974 608 1018 q 822 856 772 930 q 881 694 872 783 l 744 694 q 702 801 733 753 q 620 878 671 849 q 499 906 569 906 q 345 864 408 906 q 250 732 282 821 q 217 504 217 643 q 289 196 217 294 q 499 98 361 98 q 620 128 569 98 q 702 208 671 158 q 744 316 733 258 l 881 316 q 847 193 874 252 q 774 87 820 133 q 659 13 727 40 q 502 -14 592 -14 q 271 48 367 -14 q 125 226 176 110 q 75 506 75 342 q 125 783 75 669 q 270 958 175 898 q 502 1018 366 1018 m 595 1088 l 498 1178 l 393 1088 l 279 1088 l 453 1244 l 545 1244 l 716 1088 l 595 1088 z "},"Ċ":{"ha":956,"x_min":75,"x_max":881,"o":"m 502 1018 q 690 974 608 1018 q 822 856 772 930 q 881 694 872 783 l 744 694 q 702 801 733 753 q 620 878 671 849 q 499 906 569 906 q 345 864 408 906 q 250 732 282 821 q 217 504 217 643 q 289 196 217 294 q 499 98 361 98 q 620 128 569 98 q 702 208 671 158 q 744 316 733 258 l 881 316 q 847 193 874 252 q 774 87 820 133 q 659 13 727 40 q 502 -14 592 -14 q 271 48 367 -14 q 125 226 176 110 q 75 506 75 342 q 125 783 75 669 q 270 958 175 898 q 502 1018 366 1018 m 433 1131 l 433 1255 l 563 1255 l 563 1131 l 433 1131 z "},"D":{"ha":963,"x_min":133,"x_max":888,"o":"m 133 1004 q 162 1004 138 1004 q 222 1004 187 1003 q 296 1004 258 1004 q 366 1003 334 1003 q 666 943 551 1000 q 834 776 781 885 q 888 508 888 667 q 830 228 888 342 q 654 58 772 115 q 353 0 535 0 l 133 0 l 133 1004 m 265 894 l 265 110 l 353 110 q 567 149 477 110 q 705 274 656 188 q 753 506 753 361 q 706 736 753 651 q 571 857 659 821 q 358 894 483 894 l 265 894 z "},"Ð":{"ha":982,"x_min":49,"x_max":907,"o":"m 511 553 l 511 451 l 49 451 l 49 553 l 511 553 m 151 1004 q 181 1004 156 1004 q 241 1004 205 1003 q 315 1004 276 1004 q 385 1003 353 1003 q 684 943 569 1000 q 853 776 799 885 q 907 508 907 667 q 849 228 907 342 q 672 58 791 115 q 372 0 553 0 l 151 0 l 151 1004 m 283 894 l 283 110 l 372 110 q 585 149 496 110 q 723 274 675 188 q 772 506 772 361 q 725 736 772 651 q 590 857 678 821 q 377 894 501 894 l 283 894 z "},"Ď":{"ha":963,"x_min":133,"x_max":888,"o":"m 133 1004 q 162 1004 138 1004 q 222 1004 187 1003 q 296 1004 258 1004 q 366 1003 334 1003 q 666 943 551 1000 q 834 776 781 885 q 888 508 888 667 q 830 228 888 342 q 654 58 772 115 q 353 0 535 0 l 133 0 l 133 1004 m 265 894 l 265 110 l 353 110 q 567 149 477 110 q 705 274 656 188 q 753 506 753 361 q 706 736 753 651 q 571 857 659 821 q 358 894 483 894 l 265 894 m 428 1088 l 253 1244 l 368 1244 l 473 1151 l 570 1244 l 691 1244 l 520 1088 l 428 1088 z "},"Đ":{"ha":982,"x_min":49,"x_max":907,"o":"m 511 553 l 511 451 l 49 451 l 49 553 l 511 553 m 151 1004 q 181 1004 156 1004 q 241 1004 205 1003 q 315 1004 276 1004 q 385 1003 353 1003 q 684 943 569 1000 q 853 776 799 885 q 907 508 907 667 q 849 228 907 342 q 672 58 791 115 q 372 0 553 0 l 151 0 l 151 1004 m 283 894 l 283 110 l 372 110 q 585 149 496 110 q 723 274 675 188 q 772 506 772 361 q 725 736 772 651 q 590 857 678 821 q 377 894 501 894 l 283 894 z "},"Ḍ":{"ha":963,"x_min":133,"x_max":888,"o":"m 133 1004 q 162 1004 138 1004 q 222 1004 187 1003 q 296 1004 258 1004 q 366 1003 334 1003 q 666 943 551 1000 q 834 776 781 885 q 888 508 888 667 q 830 228 888 342 q 654 58 772 115 q 353 0 535 0 l 133 0 l 133 1004 m 265 894 l 265 110 l 353 110 q 567 149 477 110 q 705 274 656 188 q 753 506 753 361 q 706 736 753 651 q 571 857 659 821 q 358 894 483 894 l 265 894 z "},"E":{"ha":862,"x_min":133,"x_max":779,"o":"m 133 0 l 133 1004 l 766 1004 l 765 891 l 262 891 l 262 563 l 715 563 l 715 451 l 261 451 l 261 116 l 779 115 l 779 0 l 133 0 z "},"É":{"ha":862,"x_min":133,"x_max":779,"o":"m 133 0 l 133 1004 l 766 1004 l 765 891 l 262 891 l 262 563 l 715 563 l 715 451 l 261 451 l 261 116 l 779 115 l 779 0 l 133 0 m 542 1290 l 688 1290 l 499 1088 l 399 1088 l 542 1290 z "},"Ĕ":{"ha":862,"x_min":133,"x_max":779,"o":"m 133 0 l 133 1004 l 766 1004 l 765 891 l 262 891 l 262 563 l 715 563 l 715 451 l 261 451 l 261 116 l 779 115 l 779 0 l 133 0 m 662 1237 q 621 1156 651 1190 q 548 1104 592 1122 q 450 1086 503 1086 q 355 1103 399 1086 q 281 1155 311 1121 q 240 1237 251 1188 l 334 1237 q 375 1182 345 1203 q 450 1161 406 1161 q 525 1182 494 1161 q 569 1237 557 1203 l 662 1237 z "},"Ě":{"ha":862,"x_min":133,"x_max":779,"o":"m 133 0 l 133 1004 l 766 1004 l 765 891 l 262 891 l 262 563 l 715 563 l 715 451 l 261 451 l 261 116 l 779 115 l 779 0 l 133 0 m 406 1088 l 231 1244 l 346 1244 l 451 1151 l 548 1244 l 669 1244 l 498 1088 l 406 1088 z "},"Ê":{"ha":862,"x_min":133,"x_max":779,"o":"m 133 0 l 133 1004 l 766 1004 l 765 891 l 262 891 l 262 563 l 715 563 l 715 451 l 261 451 l 261 116 l 779 115 l 779 0 l 133 0 m 548 1088 l 451 1178 l 346 1088 l 232 1088 l 406 1244 l 498 1244 l 669 1088 l 548 1088 z "},"Ế":{"ha":862,"x_min":133,"x_max":800,"o":"m 133 0 l 133 1004 l 766 1004 l 765 891 l 262 891 l 262 563 l 715 563 l 715 451 l 261 451 l 261 116 l 779 115 l 779 0 l 133 0 z "},"Ệ":{"ha":862,"x_min":133,"x_max":779,"o":"m 133 0 l 133 1004 l 766 1004 l 765 891 l 262 891 l 262 563 l 715 563 l 715 451 l 261 451 l 261 116 l 779 115 l 779 0 l 133 0 m 548 1088 l 451 1178 l 346 1088 l 232 1088 l 406 1244 l 498 1244 l 669 1088 l 548 1088 z "},"Ề":{"ha":862,"x_min":133,"x_max":779,"o":"m 133 0 l 133 1004 l 766 1004 l 765 891 l 262 891 l 262 563 l 715 563 l 715 451 l 261 451 l 261 116 l 779 115 l 779 0 l 133 0 z "},"Ể":{"ha":862,"x_min":133,"x_max":779,"o":"m 133 0 l 133 1004 l 766 1004 l 765 891 l 262 891 l 262 563 l 715 563 l 715 451 l 261 451 l 261 116 l 779 115 l 779 0 l 133 0 z "},"Ễ":{"ha":862,"x_min":133,"x_max":779,"o":"m 133 0 l 133 1004 l 766 1004 l 765 891 l 262 891 l 262 563 l 715 563 l 715 451 l 261 451 l 261 116 l 779 115 l 779 0 l 133 0 z "},"Ȅ":{"ha":862,"x_min":101,"x_max":779,"o":"m 133 0 l 133 1004 l 766 1004 l 765 891 l 262 891 l 262 563 l 715 563 l 715 451 l 261 451 l 261 116 l 779 115 l 779 0 l 133 0 m 460 1290 l 597 1088 l 497 1088 l 326 1290 l 460 1290 m 239 1290 l 403 1088 l 303 1088 l 101 1290 l 239 1290 z "},"Ë":{"ha":862,"x_min":133,"x_max":779,"o":"m 133 0 l 133 1004 l 766 1004 l 765 891 l 262 891 l 262 563 l 715 563 l 715 451 l 261 451 l 261 116 l 779 115 l 779 0 l 133 0 m 523 1131 l 524 1255 l 649 1255 l 649 1131 l 523 1131 m 253 1131 l 253 1255 l 379 1255 l 378 1131 l 253 1131 z "},"Ė":{"ha":862,"x_min":133,"x_max":779,"o":"m 133 0 l 133 1004 l 766 1004 l 765 891 l 262 891 l 262 563 l 715 563 l 715 451 l 261 451 l 261 116 l 779 115 l 779 0 l 133 0 m 386 1131 l 386 1255 l 516 1255 l 516 1131 l 386 1131 z "},"Ẹ":{"ha":862,"x_min":133,"x_max":779,"o":"m 133 0 l 133 1004 l 766 1004 l 765 891 l 262 891 l 262 563 l 715 563 l 715 451 l 261 451 l 261 116 l 779 115 l 779 0 l 133 0 z "},"È":{"ha":862,"x_min":133,"x_max":779,"o":"m 133 0 l 133 1004 l 766 1004 l 765 891 l 262 891 l 262 563 l 715 563 l 715 451 l 261 451 l 261 116 l 779 115 l 779 0 l 133 0 z "},"Ẻ":{"ha":862,"x_min":133,"x_max":779,"o":"m 133 0 l 133 1004 l 766 1004 l 765 891 l 262 891 l 262 563 l 715 563 l 715 451 l 261 451 l 261 116 l 779 115 l 779 0 l 133 0 m 356 1299 l 394 1240 q 451 1260 422 1259 q 494 1238 481 1260 q 497 1189 509 1214 q 455 1144 485 1163 l 492 1086 q 572 1174 554 1124 q 555 1278 590 1225 q 470 1330 526 1322 q 356 1299 415 1337 z "},"Ȇ":{"ha":862,"x_min":133,"x_max":779,"o":"m 133 0 l 133 1004 l 766 1004 l 765 891 l 262 891 l 262 563 l 715 563 l 715 451 l 261 451 l 261 116 l 779 115 l 779 0 l 133 0 z "},"Ē":{"ha":862,"x_min":133,"x_max":779,"o":"m 133 0 l 133 1004 l 766 1004 l 765 891 l 262 891 l 262 563 l 715 563 l 715 451 l 261 451 l 261 116 l 779 115 l 779 0 l 133 0 m 658 1234 l 658 1144 l 244 1144 l 244 1234 l 658 1234 z "},"Ę":{"ha":862,"x_min":133,"x_max":820,"o":"m 133 0 l 133 1004 l 766 1004 l 765 891 l 262 891 l 262 563 l 715 563 l 715 451 l 261 451 l 261 116 l 779 115 l 779 0 l 133 0 m 553 -123 q 583 -48 553 -81 q 696 11 613 -15 l 789 3 q 688 -52 719 -26 q 657 -112 657 -78 q 672 -150 657 -137 q 721 -162 687 -162 q 780 -154 754 -162 q 820 -137 806 -145 l 820 -204 q 768 -224 803 -215 q 691 -233 732 -233 q 589 -203 624 -233 q 553 -123 553 -174 z "},"Ẽ":{"ha":862,"x_min":133,"x_max":779,"o":"m 133 0 l 133 1004 l 766 1004 l 765 891 l 262 891 l 262 563 l 715 563 l 715 451 l 261 451 l 261 116 l 779 115 l 779 0 l 133 0 m 663 1176 q 616 1150 644 1163 q 543 1136 587 1136 q 478 1145 506 1136 q 424 1163 450 1154 q 366 1172 398 1172 q 311 1161 332 1172 q 269 1133 290 1149 l 244 1209 q 294 1246 268 1231 q 360 1261 321 1261 q 425 1251 394 1261 q 484 1232 455 1242 q 543 1222 513 1222 q 597 1234 574 1222 q 640 1261 620 1245 l 663 1176 z "},"F":{"ha":825,"x_min":133,"x_max":758,"o":"m 133 1004 l 758 1004 l 758 892 l 265 892 l 265 560 l 708 560 l 708 449 l 265 449 l 265 0 l 133 0 l 133 1004 z "},"G":{"ha":1018,"x_min":75,"x_max":901,"o":"m 501 -14 q 274 47 369 -14 q 126 222 178 108 q 75 499 75 337 q 127 779 75 663 q 277 957 180 895 q 507 1018 374 1018 q 649 992 583 1018 q 767 920 716 965 q 850 816 819 874 q 885 694 881 758 l 747 694 q 704 798 738 750 q 620 875 671 846 q 505 904 569 904 q 352 861 418 904 q 250 730 287 819 q 214 502 214 641 q 236 319 214 395 q 298 195 258 242 q 392 125 338 147 q 508 102 446 102 q 618 124 572 102 q 697 182 665 147 q 745 257 728 217 q 763 335 762 298 l 767 424 l 523 424 l 523 519 l 901 518 l 901 0 l 804 0 l 804 153 q 738 72 778 110 q 639 10 697 33 q 501 -14 581 -14 z "},"Ğ":{"ha":1018,"x_min":75,"x_max":901,"o":"m 501 -14 q 274 47 369 -14 q 126 222 178 108 q 75 499 75 337 q 127 779 75 663 q 277 957 180 895 q 507 1018 374 1018 q 649 992 583 1018 q 767 920 716 965 q 850 816 819 874 q 885 694 881 758 l 747 694 q 704 798 738 750 q 620 875 671 846 q 505 904 569 904 q 352 861 418 904 q 250 730 287 819 q 214 502 214 641 q 236 319 214 395 q 298 195 258 242 q 392 125 338 147 q 508 102 446 102 q 618 124 572 102 q 697 182 665 147 q 745 257 728 217 q 763 335 762 298 l 767 424 l 523 424 l 523 519 l 901 518 l 901 0 l 804 0 l 804 153 q 738 72 778 110 q 639 10 697 33 q 501 -14 581 -14 m 715 1237 q 675 1156 704 1190 q 601 1104 645 1122 q 503 1086 557 1086 q 408 1103 452 1086 q 335 1155 365 1121 q 294 1237 305 1188 l 388 1237 q 429 1182 399 1203 q 503 1161 459 1161 q 579 1182 547 1161 q 622 1237 610 1203 l 715 1237 z "},"Ĝ":{"ha":1018,"x_min":75,"x_max":901,"o":"m 501 -14 q 274 47 369 -14 q 126 222 178 108 q 75 499 75 337 q 127 779 75 663 q 277 957 180 895 q 507 1018 374 1018 q 649 992 583 1018 q 767 920 716 965 q 850 816 819 874 q 885 694 881 758 l 747 694 q 704 798 738 750 q 620 875 671 846 q 505 904 569 904 q 352 861 418 904 q 250 730 287 819 q 214 502 214 641 q 236 319 214 395 q 298 195 258 242 q 392 125 338 147 q 508 102 446 102 q 618 124 572 102 q 697 182 665 147 q 745 257 728 217 q 763 335 762 298 l 767 424 l 523 424 l 523 519 l 901 518 l 901 0 l 804 0 l 804 153 q 738 72 778 110 q 639 10 697 33 q 501 -14 581 -14 m 601 1088 l 504 1178 l 399 1088 l 285 1088 l 460 1244 l 551 1244 l 722 1088 l 601 1088 z "},"Ģ":{"ha":1018,"x_min":75,"x_max":901,"o":"m 501 -14 q 274 47 369 -14 q 126 222 178 108 q 75 499 75 337 q 127 779 75 663 q 277 957 180 895 q 507 1018 374 1018 q 649 992 583 1018 q 767 920 716 965 q 850 816 819 874 q 885 694 881 758 l 747 694 q 704 798 738 750 q 620 875 671 846 q 505 904 569 904 q 352 861 418 904 q 250 730 287 819 q 214 502 214 641 q 236 319 214 395 q 298 195 258 242 q 392 125 338 147 q 508 102 446 102 q 618 124 572 102 q 697 182 665 147 q 745 257 728 217 q 763 335 762 298 l 767 424 l 523 424 l 523 519 l 901 518 l 901 0 l 804 0 l 804 153 q 738 72 778 110 q 639 10 697 33 q 501 -14 581 -14 m 425 -264 l 482 -178 l 438 -174 l 438 -67 l 568 -67 l 568 -157 l 478 -264 l 425 -264 z "},"Ġ":{"ha":1018,"x_min":75,"x_max":901,"o":"m 501 -14 q 274 47 369 -14 q 126 222 178 108 q 75 499 75 337 q 127 779 75 663 q 277 957 180 895 q 507 1018 374 1018 q 649 992 583 1018 q 767 920 716 965 q 850 816 819 874 q 885 694 881 758 l 747 694 q 704 798 738 750 q 620 875 671 846 q 505 904 569 904 q 352 861 418 904 q 250 730 287 819 q 214 502 214 641 q 236 319 214 395 q 298 195 258 242 q 392 125 338 147 q 508 102 446 102 q 618 124 572 102 q 697 182 665 147 q 745 257 728 217 q 763 335 762 298 l 767 424 l 523 424 l 523 519 l 901 518 l 901 0 l 804 0 l 804 153 q 738 72 778 110 q 639 10 697 33 q 501 -14 581 -14 m 439 1131 l 439 1255 l 569 1255 l 569 1131 l 439 1131 z "},"H":{"ha":1064,"x_min":133,"x_max":931,"o":"m 803 463 l 261 463 l 261 0 l 133 0 l 133 1004 l 261 1004 l 261 576 l 803 576 l 803 1004 l 931 1004 l 931 0 l 803 0 l 803 463 z "},"Ħ":{"ha":1099,"x_min":19,"x_max":1081,"o":"m 1081 856 l 1081 772 l 19 772 l 19 856 l 1081 856 m 825 463 l 283 463 l 283 0 l 155 0 l 155 1004 l 283 1004 l 283 576 l 825 576 l 825 1004 l 953 1004 l 953 0 l 825 0 l 825 463 z "},"Ĥ":{"ha":1064,"x_min":133,"x_max":931,"o":"m 803 463 l 261 463 l 261 0 l 133 0 l 133 1004 l 261 1004 l 261 576 l 803 576 l 803 1004 l 931 1004 l 931 0 l 803 0 l 803 463 m 627 1094 l 530 1184 l 425 1094 l 311 1094 l 485 1250 l 577 1250 l 748 1094 l 627 1094 z "},"Ḥ":{"ha":1064,"x_min":133,"x_max":931,"o":"m 803 463 l 261 463 l 261 0 l 133 0 l 133 1004 l 261 1004 l 261 576 l 803 576 l 803 1004 l 931 1004 l 931 0 l 803 0 l 803 463 z "},"I":{"ha":393,"x_min":133,"x_max":261,"o":"m 133 1004 l 261 1004 l 261 0 l 133 0 l 133 1004 z "},"Í":{"ha":393,"x_min":133,"x_max":435,"o":"m 133 1004 l 261 1004 l 261 0 l 133 0 l 133 1004 m 289 1290 l 435 1290 l 245 1088 l 146 1088 l 289 1290 z "},"Ĭ":{"ha":393,"x_min":-13,"x_max":408,"o":"m 133 1004 l 261 1004 l 261 0 l 133 0 l 133 1004 m 408 1237 q 368 1156 397 1190 q 294 1104 338 1122 q 197 1086 250 1086 q 101 1103 145 1086 q 28 1155 58 1121 q -13 1237 -2 1188 l 81 1237 q 122 1182 92 1203 q 197 1161 152 1161 q 272 1182 240 1161 q 315 1237 303 1203 l 408 1237 z "},"Î":{"ha":393,"x_min":-22,"x_max":415,"o":"m 133 1004 l 261 1004 l 261 0 l 133 0 l 133 1004 m 294 1088 l 197 1178 l 92 1088 l -22 1088 l 153 1244 l 244 1244 l 415 1088 l 294 1088 z "},"Ȉ":{"ha":393,"x_min":-152,"x_max":343,"o":"m 133 1004 l 261 1004 l 261 0 l 133 0 l 133 1004 m 207 1290 l 343 1088 l 244 1088 l 73 1290 l 207 1290 m -15 1290 l 149 1088 l 50 1088 l -152 1290 l -15 1290 z "},"Ï":{"ha":393,"x_min":-1,"x_max":396,"o":"m 133 1004 l 261 1004 l 261 0 l 133 0 l 133 1004 m 269 1131 l 270 1255 l 396 1255 l 395 1131 l 269 1131 m -1 1131 l 0 1255 l 126 1255 l 125 1131 l -1 1131 z "},"İ":{"ha":393,"x_min":132,"x_max":263,"o":"m 133 1004 l 261 1004 l 261 0 l 133 0 l 133 1004 m 132 1131 l 132 1255 l 262 1255 l 262 1131 l 132 1131 z "},"Ị":{"ha":393,"x_min":133,"x_max":269,"o":"m 133 1004 l 261 1004 l 261 0 l 133 0 l 133 1004 z "},"Ì":{"ha":393,"x_min":-43,"x_max":261,"o":"m 133 1004 l 261 1004 l 261 0 l 133 0 l 133 1004 z "},"Ỉ":{"ha":393,"x_min":102,"x_max":336,"o":"m 133 1004 l 261 1004 l 261 0 l 133 0 l 133 1004 m 102 1299 l 140 1240 q 198 1260 168 1259 q 241 1238 227 1260 q 243 1189 256 1214 q 201 1144 231 1163 l 239 1086 q 318 1174 301 1124 q 301 1278 336 1225 q 217 1330 273 1322 q 102 1299 161 1337 z "},"Ȋ":{"ha":393,"x_min":-16,"x_max":405,"o":"m 133 1004 l 261 1004 l 261 0 l 133 0 l 133 1004 z "},"Ī":{"ha":393,"x_min":-10,"x_max":404,"o":"m 133 1004 l 261 1004 l 261 0 l 133 0 l 133 1004 m 404 1234 l 404 1144 l -10 1144 l -10 1234 l 404 1234 z "},"Į":{"ha":393,"x_min":25,"x_max":292,"o":"m 133 1004 l 261 1004 l 261 0 l 133 0 l 133 1004 m 24 -126 q 54 -51 24 -84 q 167 8 83 -18 l 260 0 q 159 -55 190 -29 q 128 -115 128 -81 q 143 -152 128 -140 q 192 -165 158 -165 q 251 -157 225 -165 q 291 -140 276 -148 l 291 -207 q 239 -226 274 -217 q 162 -235 203 -235 q 59 -206 94 -235 q 24 -126 24 -176 z "},"Ĩ":{"ha":393,"x_min":-10,"x_max":408,"o":"m 133 1004 l 261 1004 l 261 0 l 133 0 l 133 1004 m 408 1176 q 361 1150 390 1163 q 289 1136 333 1136 q 224 1145 251 1136 q 170 1163 196 1154 q 112 1172 144 1172 q 57 1161 78 1172 q 15 1133 36 1149 l -10 1209 q 40 1246 14 1231 q 106 1261 67 1261 q 170 1251 140 1261 q 230 1232 201 1242 q 289 1222 258 1222 q 343 1234 320 1222 q 386 1261 366 1245 l 408 1176 z "},"J":{"ha":540,"x_min":58,"x_max":433,"o":"m 433 237 q 415 101 433 157 q 351 15 397 44 q 220 -14 305 -14 q 120 -1 167 -14 q 58 17 73 11 l 67 140 q 116 121 88 133 q 186 110 144 110 q 280 147 254 110 q 305 274 305 185 l 305 1004 l 433 1004 l 433 237 z "},"Ĵ":{"ha":540,"x_min":58,"x_max":584,"o":"m 433 237 q 415 101 433 157 q 351 15 397 44 q 220 -14 305 -14 q 120 -1 167 -14 q 58 17 73 11 l 67 140 q 116 121 88 133 q 186 110 144 110 q 280 147 254 110 q 305 274 305 185 l 305 1004 l 433 1004 l 433 237 m 463 1088 l 366 1178 l 261 1088 l 147 1088 l 322 1244 l 413 1244 l 584 1088 l 463 1088 z "},"K":{"ha":947,"x_min":133,"x_max":899,"o":"m 899 0 l 753 0 l 440 516 l 266 317 l 266 0 l 133 0 l 133 1004 l 266 1004 l 266 485 l 716 1004 l 869 1004 l 534 610 l 899 0 z "},"Ķ":{"ha":947,"x_min":133,"x_max":899,"o":"m 899 0 l 753 0 l 440 516 l 266 317 l 266 0 l 133 0 l 133 1004 l 266 1004 l 266 485 l 716 1004 l 869 1004 l 534 610 l 899 0 m 397 -264 l 454 -178 l 410 -174 l 410 -67 l 540 -67 l 540 -157 l 450 -264 l 397 -264 z "},"L":{"ha":802,"x_min":133,"x_max":739,"o":"m 133 1004 l 265 1004 l 265 115 l 739 115 l 739 0 l 133 0 l 133 1004 z "},"Ĺ":{"ha":802,"x_min":133,"x_max":739,"o":"m 133 1004 l 265 1004 l 265 115 l 739 115 l 739 0 l 133 0 l 133 1004 m 289 1290 l 435 1290 l 245 1088 l 146 1088 l 289 1290 z "},"Ľ":{"ha":802,"x_min":133,"x_max":743,"o":"m 133 1004 l 265 1004 l 265 115 l 739 115 l 739 0 l 133 0 l 133 1004 m 622 740 l 675 868 l 637 875 l 637 1010 l 743 1010 l 743 868 l 688 740 l 622 740 z "},"Ļ":{"ha":802,"x_min":133,"x_max":739,"o":"m 133 1004 l 265 1004 l 265 115 l 739 115 l 739 0 l 133 0 l 133 1004 m 352 -264 l 409 -178 l 365 -174 l 365 -67 l 495 -67 l 495 -157 l 405 -264 l 352 -264 z "},"Ŀ":{"ha":802,"x_min":133,"x_max":739,"o":"m 133 1004 l 265 1004 l 265 115 l 739 115 l 739 0 l 133 0 l 133 1004 m 726 624 l 726 471 l 567 471 l 567 624 l 726 624 z "},"Ł":{"ha":807,"x_min":27,"x_max":744,"o":"m 498 650 l 498 545 l 27 417 l 27 528 l 498 650 m 138 1004 l 269 1004 l 269 115 l 744 115 l 744 0 l 138 0 l 138 1004 z "},"M":{"ha":1230,"x_min":133,"x_max":1097,"o":"m 133 0 l 133 1004 l 310 1004 l 613 175 l 920 1004 l 1097 1004 l 1097 0 l 965 0 l 965 812 l 674 0 l 553 0 l 265 804 l 265 0 l 133 0 z "},"N":{"ha":1047,"x_min":133,"x_max":915,"o":"m 786 1004 l 915 1004 l 915 0 l 800 0 l 261 792 l 261 0 l 133 0 l 133 1004 l 256 1004 l 786 224 l 786 1004 z "},"Ń":{"ha":1047,"x_min":133,"x_max":915,"o":"m 786 1004 l 915 1004 l 915 0 l 800 0 l 261 792 l 261 0 l 133 0 l 133 1004 l 256 1004 l 786 224 l 786 1004 m 615 1290 l 760 1290 l 571 1088 l 472 1088 l 615 1290 z "},"Ň":{"ha":1047,"x_min":133,"x_max":915,"o":"m 786 1004 l 915 1004 l 915 0 l 800 0 l 261 792 l 261 0 l 133 0 l 133 1004 l 256 1004 l 786 224 l 786 1004 m 478 1088 l 303 1244 l 418 1244 l 523 1151 l 620 1244 l 741 1244 l 570 1088 l 478 1088 z "},"Ņ":{"ha":1047,"x_min":133,"x_max":915,"o":"m 786 1004 l 915 1004 l 915 0 l 800 0 l 261 792 l 261 0 l 133 0 l 133 1004 l 256 1004 l 786 224 l 786 1004 m 425 -264 l 482 -178 l 438 -174 l 438 -67 l 568 -67 l 568 -157 l 478 -264 l 425 -264 z "},"Ṅ":{"ha":1047,"x_min":133,"x_max":915,"o":"m 786 1004 l 915 1004 l 915 0 l 800 0 l 261 792 l 261 0 l 133 0 l 133 1004 l 256 1004 l 786 224 l 786 1004 m 458 1131 l 458 1255 l 588 1255 l 588 1131 l 458 1131 z "},"Ŋ":{"ha":1048,"x_min":133,"x_max":915,"o":"m 786 1004 l 915 1004 l 915 0 l 800 0 l 261 792 l 261 0 l 133 0 l 133 1004 l 256 1004 l 786 224 l 786 1004 m 913 -83 q 895 -219 913 -162 q 831 -304 877 -275 q 700 -333 785 -333 q 600 -321 647 -333 q 537 -302 553 -308 l 547 -179 q 596 -198 567 -187 q 666 -210 624 -210 q 760 -172 734 -210 q 785 -46 785 -135 l 785 49 l 913 49 l 913 -83 z "},"Ñ":{"ha":1047,"x_min":133,"x_max":915,"o":"m 786 1004 l 915 1004 l 915 0 l 800 0 l 261 792 l 261 0 l 133 0 l 133 1004 l 256 1004 l 786 224 l 786 1004 m 734 1176 q 687 1150 716 1163 q 615 1136 658 1136 q 549 1145 577 1136 q 495 1163 522 1154 q 438 1172 469 1172 q 383 1161 403 1172 q 340 1133 362 1149 l 316 1209 q 366 1246 340 1231 q 432 1261 392 1261 q 496 1251 466 1261 q 555 1232 526 1242 q 615 1222 584 1222 q 669 1234 646 1222 q 712 1261 692 1245 l 734 1176 z "},"O":{"ha":1019,"x_min":75,"x_max":944,"o":"m 511 -14 q 279 47 377 -14 q 128 222 181 107 q 75 500 75 337 q 128 780 75 665 q 280 957 182 896 q 511 1018 378 1018 q 742 957 644 1018 q 892 781 839 897 q 944 500 944 665 q 892 222 944 337 q 742 47 840 107 q 511 -14 645 -14 m 511 98 q 669 140 604 98 q 769 272 735 183 q 803 499 803 360 q 769 729 803 639 q 669 863 734 819 q 511 906 603 906 q 353 863 419 906 q 252 728 288 819 q 217 499 217 638 q 252 272 217 360 q 353 140 288 183 q 511 98 419 98 z "},"Ó":{"ha":1019,"x_min":75,"x_max":944,"o":"m 511 -14 q 279 47 377 -14 q 128 222 181 107 q 75 500 75 337 q 128 780 75 665 q 280 957 182 896 q 511 1018 378 1018 q 742 957 644 1018 q 892 781 839 897 q 944 500 944 665 q 892 222 944 337 q 742 47 840 107 q 511 -14 645 -14 m 511 98 q 669 140 604 98 q 769 272 735 183 q 803 499 803 360 q 769 729 803 639 q 669 863 734 819 q 511 906 603 906 q 353 863 419 906 q 252 728 288 819 q 217 499 217 638 q 252 272 217 360 q 353 140 288 183 q 511 98 419 98 m 603 1290 l 749 1290 l 559 1088 l 460 1088 l 603 1290 z "},"Ŏ":{"ha":1019,"x_min":75,"x_max":944,"o":"m 511 -14 q 279 47 377 -14 q 128 222 181 107 q 75 500 75 337 q 128 780 75 665 q 280 957 182 896 q 511 1018 378 1018 q 742 957 644 1018 q 892 781 839 897 q 944 500 944 665 q 892 222 944 337 q 742 47 840 107 q 511 -14 645 -14 m 511 98 q 669 140 604 98 q 769 272 735 183 q 803 499 803 360 q 769 729 803 639 q 669 863 734 819 q 511 906 603 906 q 353 863 419 906 q 252 728 288 819 q 217 499 217 638 q 252 272 217 360 q 353 140 288 183 q 511 98 419 98 m 722 1237 q 682 1156 711 1190 q 608 1104 652 1122 q 510 1086 564 1086 q 415 1103 459 1086 q 342 1155 372 1121 q 301 1237 312 1188 l 394 1237 q 436 1182 406 1203 q 510 1161 466 1161 q 586 1182 554 1161 q 629 1237 617 1203 l 722 1237 z "},"Ô":{"ha":1019,"x_min":75,"x_max":944,"o":"m 511 -14 q 279 47 377 -14 q 128 222 181 107 q 75 500 75 337 q 128 780 75 665 q 280 957 182 896 q 511 1018 378 1018 q 742 957 644 1018 q 892 781 839 897 q 944 500 944 665 q 892 222 944 337 q 742 47 840 107 q 511 -14 645 -14 m 511 98 q 669 140 604 98 q 769 272 735 183 q 803 499 803 360 q 769 729 803 639 q 669 863 734 819 q 511 906 603 906 q 353 863 419 906 q 252 728 288 819 q 217 499 217 638 q 252 272 217 360 q 353 140 288 183 q 511 98 419 98 m 608 1088 l 511 1178 l 406 1088 l 292 1088 l 467 1244 l 558 1244 l 729 1088 l 608 1088 z "},"Ố":{"ha":1019,"x_min":75,"x_max":944,"o":"m 511 -14 q 279 47 377 -14 q 128 222 181 107 q 75 500 75 337 q 128 780 75 665 q 280 957 182 896 q 511 1018 378 1018 q 742 957 644 1018 q 892 781 839 897 q 944 500 944 665 q 892 222 944 337 q 742 47 840 107 q 511 -14 645 -14 m 511 98 q 669 140 604 98 q 769 272 735 183 q 803 499 803 360 q 769 729 803 639 q 669 863 734 819 q 511 906 603 906 q 353 863 419 906 q 252 728 288 819 q 217 499 217 638 q 252 272 217 360 q 353 140 288 183 q 511 98 419 98 z "},"Ộ":{"ha":1019,"x_min":75,"x_max":944,"o":"m 511 -14 q 279 47 377 -14 q 128 222 181 107 q 75 500 75 337 q 128 780 75 665 q 280 957 182 896 q 511 1018 378 1018 q 742 957 644 1018 q 892 781 839 897 q 944 500 944 665 q 892 222 944 337 q 742 47 840 107 q 511 -14 645 -14 m 511 98 q 669 140 604 98 q 769 272 735 183 q 803 499 803 360 q 769 729 803 639 q 669 863 734 819 q 511 906 603 906 q 353 863 419 906 q 252 728 288 819 q 217 499 217 638 q 252 272 217 360 q 353 140 288 183 q 511 98 419 98 m 608 1088 l 511 1178 l 406 1088 l 292 1088 l 467 1244 l 558 1244 l 729 1088 l 608 1088 z "},"Ồ":{"ha":1019,"x_min":75,"x_max":944,"o":"m 511 -14 q 279 47 377 -14 q 128 222 181 107 q 75 500 75 337 q 128 780 75 665 q 280 957 182 896 q 511 1018 378 1018 q 742 957 644 1018 q 892 781 839 897 q 944 500 944 665 q 892 222 944 337 q 742 47 840 107 q 511 -14 645 -14 m 511 98 q 669 140 604 98 q 769 272 735 183 q 803 499 803 360 q 769 729 803 639 q 669 863 734 819 q 511 906 603 906 q 353 863 419 906 q 252 728 288 819 q 217 499 217 638 q 252 272 217 360 q 353 140 288 183 q 511 98 419 98 z "},"Ổ":{"ha":1019,"x_min":75,"x_max":944,"o":"m 511 -14 q 279 47 377 -14 q 128 222 181 107 q 75 500 75 337 q 128 780 75 665 q 280 957 182 896 q 511 1018 378 1018 q 742 957 644 1018 q 892 781 839 897 q 944 500 944 665 q 892 222 944 337 q 742 47 840 107 q 511 -14 645 -14 m 511 98 q 669 140 604 98 q 769 272 735 183 q 803 499 803 360 q 769 729 803 639 q 669 863 734 819 q 511 906 603 906 q 353 863 419 906 q 252 728 288 819 q 217 499 217 638 q 252 272 217 360 q 353 140 288 183 q 511 98 419 98 z "},"Ỗ":{"ha":1019,"x_min":75,"x_max":944,"o":"m 511 -14 q 279 47 377 -14 q 128 222 181 107 q 75 500 75 337 q 128 780 75 665 q 280 957 182 896 q 511 1018 378 1018 q 742 957 644 1018 q 892 781 839 897 q 944 500 944 665 q 892 222 944 337 q 742 47 840 107 q 511 -14 645 -14 m 511 98 q 669 140 604 98 q 769 272 735 183 q 803 499 803 360 q 769 729 803 639 q 669 863 734 819 q 511 906 603 906 q 353 863 419 906 q 252 728 288 819 q 217 499 217 638 q 252 272 217 360 q 353 140 288 183 q 511 98 419 98 z "},"Ȍ":{"ha":1019,"x_min":75,"x_max":944,"o":"m 511 -14 q 279 47 377 -14 q 128 222 181 107 q 75 500 75 337 q 128 780 75 665 q 280 957 182 896 q 511 1018 378 1018 q 742 957 644 1018 q 892 781 839 897 q 944 500 944 665 q 892 222 944 337 q 742 47 840 107 q 511 -14 645 -14 m 511 98 q 669 140 604 98 q 769 272 735 183 q 803 499 803 360 q 769 729 803 639 q 669 863 734 819 q 511 906 603 906 q 353 863 419 906 q 252 728 288 819 q 217 499 217 638 q 252 272 217 360 q 353 140 288 183 q 511 98 419 98 m 521 1290 l 657 1088 l 558 1088 l 387 1290 l 521 1290 m 299 1290 l 463 1088 l 364 1088 l 162 1290 l 299 1290 z "},"Ö":{"ha":1019,"x_min":75,"x_max":944,"o":"m 511 -14 q 279 47 377 -14 q 128 222 181 107 q 75 500 75 337 q 128 780 75 665 q 280 957 182 896 q 511 1018 378 1018 q 742 957 644 1018 q 892 781 839 897 q 944 500 944 665 q 892 222 944 337 q 742 47 840 107 q 511 -14 645 -14 m 511 98 q 669 140 604 98 q 769 272 735 183 q 803 499 803 360 q 769 729 803 639 q 669 863 734 819 q 511 906 603 906 q 353 863 419 906 q 252 728 288 819 q 217 499 217 638 q 252 272 217 360 q 353 140 288 183 q 511 98 419 98 m 584 1131 l 585 1255 l 710 1255 l 710 1131 l 584 1131 m 314 1131 l 315 1255 l 440 1255 l 440 1131 l 314 1131 z "},"Ọ":{"ha":1019,"x_min":75,"x_max":944,"o":"m 511 -14 q 279 47 377 -14 q 128 222 181 107 q 75 500 75 337 q 128 780 75 665 q 280 957 182 896 q 511 1018 378 1018 q 742 957 644 1018 q 892 781 839 897 q 944 500 944 665 q 892 222 944 337 q 742 47 840 107 q 511 -14 645 -14 m 511 98 q 669 140 604 98 q 769 272 735 183 q 803 499 803 360 q 769 729 803 639 q 669 863 734 819 q 511 906 603 906 q 353 863 419 906 q 252 728 288 819 q 217 499 217 638 q 252 272 217 360 q 353 140 288 183 q 511 98 419 98 z "},"Ò":{"ha":1019,"x_min":75,"x_max":944,"o":"m 511 -14 q 279 47 377 -14 q 128 222 181 107 q 75 500 75 337 q 128 780 75 665 q 280 957 182 896 q 511 1018 378 1018 q 742 957 644 1018 q 892 781 839 897 q 944 500 944 665 q 892 222 944 337 q 742 47 840 107 q 511 -14 645 -14 m 511 98 q 669 140 604 98 q 769 272 735 183 q 803 499 803 360 q 769 729 803 639 q 669 863 734 819 q 511 906 603 906 q 353 863 419 906 q 252 728 288 819 q 217 499 217 638 q 252 272 217 360 q 353 140 288 183 q 511 98 419 98 z "},"Ỏ":{"ha":1019,"x_min":75,"x_max":944,"o":"m 511 -14 q 279 47 377 -14 q 128 222 181 107 q 75 500 75 337 q 128 780 75 665 q 280 957 182 896 q 511 1018 378 1018 q 742 957 644 1018 q 892 781 839 897 q 944 500 944 665 q 892 222 944 337 q 742 47 840 107 q 511 -14 645 -14 m 511 98 q 669 140 604 98 q 769 272 735 183 q 803 499 803 360 q 769 729 803 639 q 669 863 734 819 q 511 906 603 906 q 353 863 419 906 q 252 728 288 819 q 217 499 217 638 q 252 272 217 360 q 353 140 288 183 q 511 98 419 98 m 416 1299 l 454 1240 q 511 1260 482 1259 q 555 1238 541 1260 q 557 1189 569 1214 q 515 1144 545 1163 l 553 1086 q 632 1174 615 1124 q 615 1278 650 1225 q 531 1330 587 1322 q 416 1299 475 1337 z "},"Ơ":{"ha":1091,"x_min":75,"x_max":1034,"o":"m 511 -14 q 279 47 377 -14 q 128 222 181 107 q 75 500 75 337 q 128 780 75 665 q 280 957 182 896 q 511 1018 378 1018 q 742 957 644 1018 q 892 781 839 897 q 944 500 944 665 q 892 222 944 337 q 742 47 840 107 q 511 -14 645 -14 m 511 98 q 669 140 604 98 q 769 272 735 183 q 803 499 803 360 q 769 729 803 639 q 669 863 734 819 q 511 906 603 906 q 353 863 419 906 q 252 728 288 819 q 217 499 217 638 q 252 272 217 360 q 353 140 288 183 q 511 98 419 98 m 1034 1026 q 1011 894 1033 944 q 941 824 990 844 q 810 814 892 805 l 810 887 q 864 891 842 886 q 900 910 886 896 q 922 952 914 924 q 931 1026 929 980 l 1034 1026 z "},"Ớ":{"ha":1091,"x_min":75,"x_max":1034,"o":"m 511 -14 q 279 47 377 -14 q 128 222 181 107 q 75 500 75 337 q 128 780 75 665 q 280 957 182 896 q 511 1018 378 1018 q 742 957 644 1018 q 892 781 839 897 q 944 500 944 665 q 892 222 944 337 q 742 47 840 107 q 511 -14 645 -14 m 511 98 q 669 140 604 98 q 769 272 735 183 q 803 499 803 360 q 769 729 803 639 q 669 863 734 819 q 511 906 603 906 q 353 863 419 906 q 252 728 288 819 q 217 499 217 638 q 252 272 217 360 q 353 140 288 183 q 511 98 419 98 m 1034 1026 q 1011 894 1033 944 q 941 824 990 844 q 810 814 892 805 l 810 887 q 864 891 842 886 q 900 910 886 896 q 922 952 914 924 q 931 1026 929 980 l 1034 1026 m 603 1290 l 749 1290 l 559 1088 l 460 1088 l 603 1290 z "},"Ợ":{"ha":1091,"x_min":75,"x_max":1034,"o":"m 511 -14 q 279 47 377 -14 q 128 222 181 107 q 75 500 75 337 q 128 780 75 665 q 280 957 182 896 q 511 1018 378 1018 q 742 957 644 1018 q 892 781 839 897 q 944 500 944 665 q 892 222 944 337 q 742 47 840 107 q 511 -14 645 -14 m 511 98 q 669 140 604 98 q 769 272 735 183 q 803 499 803 360 q 769 729 803 639 q 669 863 734 819 q 511 906 603 906 q 353 863 419 906 q 252 728 288 819 q 217 499 217 638 q 252 272 217 360 q 353 140 288 183 q 511 98 419 98 m 1034 1026 q 1011 894 1033 944 q 941 824 990 844 q 810 814 892 805 l 810 887 q 864 891 842 886 q 900 910 886 896 q 922 952 914 924 q 931 1026 929 980 l 1034 1026 z "},"Ờ":{"ha":1091,"x_min":75,"x_max":1034,"o":"m 511 -14 q 279 47 377 -14 q 128 222 181 107 q 75 500 75 337 q 128 780 75 665 q 280 957 182 896 q 511 1018 378 1018 q 742 957 644 1018 q 892 781 839 897 q 944 500 944 665 q 892 222 944 337 q 742 47 840 107 q 511 -14 645 -14 m 511 98 q 669 140 604 98 q 769 272 735 183 q 803 499 803 360 q 769 729 803 639 q 669 863 734 819 q 511 906 603 906 q 353 863 419 906 q 252 728 288 819 q 217 499 217 638 q 252 272 217 360 q 353 140 288 183 q 511 98 419 98 m 1034 1026 q 1011 894 1033 944 q 941 824 990 844 q 810 814 892 805 l 810 887 q 864 891 842 886 q 900 910 886 896 q 922 952 914 924 q 931 1026 929 980 l 1034 1026 z "},"Ở":{"ha":1091,"x_min":75,"x_max":1034,"o":"m 511 -14 q 279 47 377 -14 q 128 222 181 107 q 75 500 75 337 q 128 780 75 665 q 280 957 182 896 q 511 1018 378 1018 q 742 957 644 1018 q 892 781 839 897 q 944 500 944 665 q 892 222 944 337 q 742 47 840 107 q 511 -14 645 -14 m 511 98 q 669 140 604 98 q 769 272 735 183 q 803 499 803 360 q 769 729 803 639 q 669 863 734 819 q 511 906 603 906 q 353 863 419 906 q 252 728 288 819 q 217 499 217 638 q 252 272 217 360 q 353 140 288 183 q 511 98 419 98 m 1034 1026 q 1011 894 1033 944 q 941 824 990 844 q 810 814 892 805 l 810 887 q 864 891 842 886 q 900 910 886 896 q 922 952 914 924 q 931 1026 929 980 l 1034 1026 m 416 1299 l 454 1240 q 511 1260 482 1259 q 555 1238 541 1260 q 557 1189 569 1214 q 515 1144 545 1163 l 553 1086 q 632 1174 615 1124 q 615 1278 650 1225 q 531 1330 587 1322 q 416 1299 475 1337 z "},"Ỡ":{"ha":1091,"x_min":75,"x_max":1034,"o":"m 511 -14 q 279 47 377 -14 q 128 222 181 107 q 75 500 75 337 q 128 780 75 665 q 280 957 182 896 q 511 1018 378 1018 q 742 957 644 1018 q 892 781 839 897 q 944 500 944 665 q 892 222 944 337 q 742 47 840 107 q 511 -14 645 -14 m 511 98 q 669 140 604 98 q 769 272 735 183 q 803 499 803 360 q 769 729 803 639 q 669 863 734 819 q 511 906 603 906 q 353 863 419 906 q 252 728 288 819 q 217 499 217 638 q 252 272 217 360 q 353 140 288 183 q 511 98 419 98 m 1034 1026 q 1011 894 1033 944 q 941 824 990 844 q 810 814 892 805 l 810 887 q 864 891 842 886 q 900 910 886 896 q 922 952 914 924 q 931 1026 929 980 l 1034 1026 m 723 1176 q 676 1150 705 1163 q 603 1136 647 1136 q 538 1145 566 1136 q 484 1163 510 1154 q 426 1172 458 1172 q 372 1161 392 1172 q 329 1133 351 1149 l 305 1209 q 355 1246 328 1231 q 421 1261 381 1261 q 485 1251 455 1261 q 544 1232 515 1242 q 603 1222 573 1222 q 658 1234 635 1222 q 701 1261 681 1245 l 723 1176 z "},"Ő":{"ha":1019,"x_min":75,"x_max":944,"o":"m 511 -14 q 279 47 377 -14 q 128 222 181 107 q 75 500 75 337 q 128 780 75 665 q 280 957 182 896 q 511 1018 378 1018 q 742 957 644 1018 q 892 781 839 897 q 944 500 944 665 q 892 222 944 337 q 742 47 840 107 q 511 -14 645 -14 m 511 98 q 669 140 604 98 q 769 272 735 183 q 803 499 803 360 q 769 729 803 639 q 669 863 734 819 q 511 906 603 906 q 353 863 419 906 q 252 728 288 819 q 217 499 217 638 q 252 272 217 360 q 353 140 288 183 q 511 98 419 98 z "},"Ȏ":{"ha":1019,"x_min":75,"x_max":944,"o":"m 511 -14 q 279 47 377 -14 q 128 222 181 107 q 75 500 75 337 q 128 780 75 665 q 280 957 182 896 q 511 1018 378 1018 q 742 957 644 1018 q 892 781 839 897 q 944 500 944 665 q 892 222 944 337 q 742 47 840 107 q 511 -14 645 -14 m 511 98 q 669 140 604 98 q 769 272 735 183 q 803 499 803 360 q 769 729 803 639 q 669 863 734 819 q 511 906 603 906 q 353 863 419 906 q 252 728 288 819 q 217 499 217 638 q 252 272 217 360 q 353 140 288 183 q 511 98 419 98 z "},"Ō":{"ha":1019,"x_min":75,"x_max":944,"o":"m 511 -14 q 279 47 377 -14 q 128 222 181 107 q 75 500 75 337 q 128 780 75 665 q 280 957 182 896 q 511 1018 378 1018 q 742 957 644 1018 q 892 781 839 897 q 944 500 944 665 q 892 222 944 337 q 742 47 840 107 q 511 -14 645 -14 m 511 98 q 669 140 604 98 q 769 272 735 183 q 803 499 803 360 q 769 729 803 639 q 669 863 734 819 q 511 906 603 906 q 353 863 419 906 q 252 728 288 819 q 217 499 217 638 q 252 272 217 360 q 353 140 288 183 q 511 98 419 98 m 719 1234 l 719 1144 l 304 1144 l 304 1234 l 719 1234 z "},"Ǫ":{"ha":1019,"x_min":75,"x_max":944,"o":"m 511 -14 q 279 47 377 -14 q 128 222 181 107 q 75 500 75 337 q 128 780 75 665 q 280 957 182 896 q 511 1018 378 1018 q 742 957 644 1018 q 892 781 839 897 q 944 500 944 665 q 892 222 944 337 q 742 47 840 107 q 511 -14 645 -14 m 511 98 q 669 140 604 98 q 769 272 735 183 q 803 499 803 360 q 769 729 803 639 q 669 863 734 819 q 511 906 603 906 q 353 863 419 906 q 252 728 288 819 q 217 499 217 638 q 252 272 217 360 q 353 140 288 183 q 511 98 419 98 m 397 -124 q 427 -49 397 -82 q 540 10 456 -16 l 633 2 q 532 -53 563 -27 q 501 -112 501 -78 q 516 -150 501 -137 q 565 -163 531 -163 q 624 -155 598 -163 q 664 -137 649 -146 l 664 -205 q 611 -224 647 -215 q 535 -233 576 -233 q 432 -204 467 -233 q 397 -124 397 -174 z "},"Ø":{"ha":1042,"x_min":39,"x_max":1001,"o":"m 108 -19 l 39 49 l 158 179 q 103 320 122 240 q 84 498 84 401 q 137 780 84 663 q 288 957 190 896 q 519 1018 385 1018 q 689 988 613 1018 q 819 900 765 958 l 932 1022 l 1001 955 l 879 821 q 934 678 915 759 q 953 500 953 598 q 901 222 953 337 q 750 47 848 107 q 519 -14 653 -14 q 349 16 425 -14 q 219 101 274 45 l 108 -19 m 520 97 q 719 183 651 97 q 792 448 786 269 q 788 583 794 519 q 764 704 781 647 l 309 194 q 520 97 379 97 m 272 296 l 728 806 q 642 883 694 858 q 519 908 590 908 q 318 818 388 908 q 243 542 248 728 q 248 410 241 472 q 272 296 256 349 z "},"Ǿ":{"ha":1042,"x_min":39,"x_max":1001,"o":"m 108 -19 l 39 49 l 158 179 q 103 320 122 240 q 84 498 84 401 q 137 780 84 663 q 288 957 190 896 q 519 1018 385 1018 q 689 988 613 1018 q 819 900 765 958 l 932 1022 l 1001 955 l 879 821 q 934 678 915 759 q 953 500 953 598 q 901 222 953 337 q 750 47 848 107 q 519 -14 653 -14 q 349 16 425 -14 q 219 101 274 45 l 108 -19 m 520 97 q 719 183 651 97 q 792 448 786 269 q 788 583 794 519 q 764 704 781 647 l 309 194 q 520 97 379 97 m 272 296 l 728 806 q 642 883 694 858 q 519 908 590 908 q 318 818 388 908 q 243 542 248 728 q 248 410 241 472 q 272 296 256 349 m 610 1290 l 756 1290 l 567 1088 l 467 1088 l 610 1290 z "},"Õ":{"ha":1019,"x_min":75,"x_max":944,"o":"m 511 -14 q 279 47 377 -14 q 128 222 181 107 q 75 500 75 337 q 128 780 75 665 q 280 957 182 896 q 511 1018 378 1018 q 742 957 644 1018 q 892 781 839 897 q 944 500 944 665 q 892 222 944 337 q 742 47 840 107 q 511 -14 645 -14 m 511 98 q 669 140 604 98 q 769 272 735 183 q 803 499 803 360 q 769 729 803 639 q 669 863 734 819 q 511 906 603 906 q 353 863 419 906 q 252 728 288 819 q 217 499 217 638 q 252 272 217 360 q 353 140 288 183 q 511 98 419 98 m 723 1176 q 676 1150 705 1163 q 603 1136 647 1136 q 538 1145 566 1136 q 484 1163 510 1154 q 426 1172 458 1172 q 372 1161 392 1172 q 329 1133 351 1149 l 305 1209 q 355 1246 328 1231 q 421 1261 381 1261 q 485 1251 455 1261 q 544 1232 515 1242 q 603 1222 573 1222 q 658 1234 635 1222 q 701 1261 681 1245 l 723 1176 z "},"Œ":{"ha":1536,"x_min":75,"x_max":1453,"o":"m 1453 112 l 1453 0 l 831 0 l 808 125 q 688 21 762 56 q 516 -14 613 -14 q 280 46 378 -14 q 128 221 181 106 q 75 498 75 335 q 129 780 75 663 q 283 957 183 896 q 522 1018 383 1018 q 691 983 619 1018 q 808 878 763 948 l 837 1004 l 1436 1004 l 1435 893 l 939 893 l 939 562 l 1303 562 l 1303 451 l 939 451 l 939 112 l 1453 112 m 513 96 q 721 193 653 96 q 789 499 789 291 q 720 809 789 709 q 511 909 651 909 q 300 809 372 909 q 229 499 229 708 q 300 194 229 292 q 513 96 371 96 z "},"P":{"ha":884,"x_min":133,"x_max":844,"o":"m 133 0 l 133 1004 l 472 1004 q 664 968 580 1004 q 796 861 748 932 q 844 687 844 790 q 800 516 844 587 q 675 408 755 445 q 490 372 595 372 l 265 372 l 265 0 l 133 0 m 264 480 l 487 480 q 655 538 590 480 q 719 694 719 595 q 653 846 719 794 q 481 897 586 897 l 264 897 l 264 480 z "},"Þ":{"ha":903,"x_min":133,"x_max":864,"o":"m 864 520 q 817 355 864 419 q 686 258 769 290 q 497 227 603 227 l 265 227 l 265 0 l 133 0 l 133 1004 l 265 1004 l 265 798 l 492 798 q 685 768 601 798 q 816 677 769 739 q 864 520 864 615 m 730 520 q 698 616 730 580 q 613 669 667 653 q 491 686 559 686 l 265 687 l 265 339 l 497 339 q 615 357 562 339 q 699 415 667 376 q 730 520 730 455 z "},"Q":{"ha":1038,"x_min":75,"x_max":944,"o":"m 75 500 q 128 781 75 665 q 279 958 181 897 q 510 1018 377 1018 q 742 958 644 1018 q 892 781 840 897 q 944 500 944 665 q 898 233 944 344 q 749 55 852 122 q 825 -30 774 -2 q 937 -59 875 -57 l 937 -168 q 833 -156 888 -168 q 725 -108 778 -144 q 629 -1 673 -72 q 567 -11 594 -8 q 510 -14 539 -14 q 280 45 378 -14 q 128 219 182 105 q 75 500 75 334 m 217 497 q 294 194 217 290 q 510 98 371 98 q 727 194 651 98 q 804 499 804 291 q 728 806 804 706 q 510 906 652 906 q 293 806 369 906 q 217 497 217 705 z "},"R":{"ha":940,"x_min":133,"x_max":851,"o":"m 851 0 l 715 0 l 531 433 l 261 433 l 261 0 l 133 0 l 133 1004 l 522 1004 q 703 971 630 1004 q 812 877 776 938 q 848 730 848 815 q 819 594 848 648 q 746 507 790 540 q 653 456 701 474 l 851 0 m 480 539 q 655 585 593 539 q 717 722 717 631 q 661 855 717 811 q 510 899 606 899 l 261 899 l 261 539 l 480 539 z "},"Ŕ":{"ha":940,"x_min":133,"x_max":851,"o":"m 851 0 l 715 0 l 531 433 l 261 433 l 261 0 l 133 0 l 133 1004 l 522 1004 q 703 971 630 1004 q 812 877 776 938 q 848 730 848 815 q 819 594 848 648 q 746 507 790 540 q 653 456 701 474 l 851 0 m 480 539 q 655 585 593 539 q 717 722 717 631 q 661 855 717 811 q 510 899 606 899 l 261 899 l 261 539 l 480 539 m 549 1290 l 694 1290 l 505 1088 l 406 1088 l 549 1290 z "},"Ř":{"ha":940,"x_min":133,"x_max":851,"o":"m 851 0 l 715 0 l 531 433 l 261 433 l 261 0 l 133 0 l 133 1004 l 522 1004 q 703 971 630 1004 q 812 877 776 938 q 848 730 848 815 q 819 594 848 648 q 746 507 790 540 q 653 456 701 474 l 851 0 m 480 539 q 655 585 593 539 q 717 722 717 631 q 661 855 717 811 q 510 899 606 899 l 261 899 l 261 539 l 480 539 m 412 1088 l 237 1244 l 352 1244 l 457 1151 l 554 1244 l 675 1244 l 504 1088 l 412 1088 z "},"Ŗ":{"ha":940,"x_min":133,"x_max":851,"o":"m 851 0 l 715 0 l 531 433 l 261 433 l 261 0 l 133 0 l 133 1004 l 522 1004 q 703 971 630 1004 q 812 877 776 938 q 848 730 848 815 q 819 594 848 648 q 746 507 790 540 q 653 456 701 474 l 851 0 m 480 539 q 655 585 593 539 q 717 722 717 631 q 661 855 717 811 q 510 899 606 899 l 261 899 l 261 539 l 480 539 m 392 -264 l 449 -178 l 405 -174 l 405 -67 l 535 -67 l 535 -157 l 444 -264 l 392 -264 z "},"Ȑ":{"ha":940,"x_min":108,"x_max":851,"o":"m 851 0 l 715 0 l 531 433 l 261 433 l 261 0 l 133 0 l 133 1004 l 522 1004 q 703 971 630 1004 q 812 877 776 938 q 848 730 848 815 q 819 594 848 648 q 746 507 790 540 q 653 456 701 474 l 851 0 m 480 539 q 655 585 593 539 q 717 722 717 631 q 661 855 717 811 q 510 899 606 899 l 261 899 l 261 539 l 480 539 m 467 1290 l 603 1088 l 503 1088 l 333 1290 l 467 1290 m 245 1290 l 409 1088 l 310 1088 l 108 1290 l 245 1290 z "},"Ṛ":{"ha":940,"x_min":133,"x_max":851,"o":"m 851 0 l 715 0 l 531 433 l 261 433 l 261 0 l 133 0 l 133 1004 l 522 1004 q 703 971 630 1004 q 812 877 776 938 q 848 730 848 815 q 819 594 848 648 q 746 507 790 540 q 653 456 701 474 l 851 0 m 480 539 q 655 585 593 539 q 717 722 717 631 q 661 855 717 811 q 510 899 606 899 l 261 899 l 261 539 l 480 539 z "},"Ȓ":{"ha":940,"x_min":133,"x_max":851,"o":"m 851 0 l 715 0 l 531 433 l 261 433 l 261 0 l 133 0 l 133 1004 l 522 1004 q 703 971 630 1004 q 812 877 776 938 q 848 730 848 815 q 819 594 848 648 q 746 507 790 540 q 653 456 701 474 l 851 0 m 480 539 q 655 585 593 539 q 717 722 717 631 q 661 855 717 811 q 510 899 606 899 l 261 899 l 261 539 l 480 539 z "},"S":{"ha":935,"x_min":81,"x_max":851,"o":"m 474 -14 q 336 4 403 -14 q 215 57 269 22 q 125 145 161 92 q 81 267 90 197 l 215 267 q 265 171 228 210 q 356 113 302 132 q 473 93 410 93 q 600 113 544 93 q 688 169 656 133 q 720 258 720 206 q 700 336 720 303 q 640 392 679 369 q 546 426 601 414 l 349 472 q 175 559 238 497 q 110 724 112 622 q 157 877 110 811 q 284 980 203 943 q 469 1017 365 1017 q 671 976 589 1017 q 794 868 753 935 q 837 726 836 801 l 704 726 q 664 834 698 794 q 580 891 631 874 q 469 908 529 908 q 386 897 426 908 q 315 865 347 886 q 265 811 283 843 q 246 737 246 779 q 283 649 246 683 q 418 590 320 615 l 609 544 q 732 497 684 528 q 805 426 779 466 q 841 344 831 387 q 851 259 851 301 q 806 121 851 183 q 677 23 761 59 q 474 -14 592 -14 z "},"Ś":{"ha":935,"x_min":81,"x_max":851,"o":"m 474 -14 q 336 4 403 -14 q 215 57 269 22 q 125 145 161 92 q 81 267 90 197 l 215 267 q 265 171 228 210 q 356 113 302 132 q 473 93 410 93 q 600 113 544 93 q 688 169 656 133 q 720 258 720 206 q 700 336 720 303 q 640 392 679 369 q 546 426 601 414 l 349 472 q 175 559 238 497 q 110 724 112 622 q 157 877 110 811 q 284 980 203 943 q 469 1017 365 1017 q 671 976 589 1017 q 794 868 753 935 q 837 726 836 801 l 704 726 q 664 834 698 794 q 580 891 631 874 q 469 908 529 908 q 386 897 426 908 q 315 865 347 886 q 265 811 283 843 q 246 737 246 779 q 283 649 246 683 q 418 590 320 615 l 609 544 q 732 497 684 528 q 805 426 779 466 q 841 344 831 387 q 851 259 851 301 q 806 121 851 183 q 677 23 761 59 q 474 -14 592 -14 m 558 1290 l 704 1290 l 515 1088 l 415 1088 l 558 1290 z "},"Š":{"ha":935,"x_min":81,"x_max":851,"o":"m 474 -14 q 336 4 403 -14 q 215 57 269 22 q 125 145 161 92 q 81 267 90 197 l 215 267 q 265 171 228 210 q 356 113 302 132 q 473 93 410 93 q 600 113 544 93 q 688 169 656 133 q 720 258 720 206 q 700 336 720 303 q 640 392 679 369 q 546 426 601 414 l 349 472 q 175 559 238 497 q 110 724 112 622 q 157 877 110 811 q 284 980 203 943 q 469 1017 365 1017 q 671 976 589 1017 q 794 868 753 935 q 837 726 836 801 l 704 726 q 664 834 698 794 q 580 891 631 874 q 469 908 529 908 q 386 897 426 908 q 315 865 347 886 q 265 811 283 843 q 246 737 246 779 q 283 649 246 683 q 418 590 320 615 l 609 544 q 732 497 684 528 q 805 426 779 466 q 841 344 831 387 q 851 259 851 301 q 806 121 851 183 q 677 23 761 59 q 474 -14 592 -14 m 422 1088 l 247 1244 l 362 1244 l 467 1151 l 564 1244 l 685 1244 l 514 1088 l 422 1088 z "},"Ş":{"ha":935,"x_min":81,"x_max":851,"o":"m 474 -14 q 336 4 403 -14 q 215 57 269 22 q 125 145 161 92 q 81 267 90 197 l 215 267 q 265 171 228 210 q 356 113 302 132 q 473 93 410 93 q 600 113 544 93 q 688 169 656 133 q 720 258 720 206 q 700 336 720 303 q 640 392 679 369 q 546 426 601 414 l 349 472 q 175 559 238 497 q 110 724 112 622 q 157 877 110 811 q 284 980 203 943 q 469 1017 365 1017 q 671 976 589 1017 q 794 868 753 935 q 837 726 836 801 l 704 726 q 664 834 698 794 q 580 891 631 874 q 469 908 529 908 q 386 897 426 908 q 315 865 347 886 q 265 811 283 843 q 246 737 246 779 q 283 649 246 683 q 418 590 320 615 l 609 544 q 732 497 684 528 q 805 426 779 466 q 841 344 831 387 q 851 259 851 301 q 806 121 851 183 q 677 23 761 59 q 474 -14 592 -14 m 590 -178 q 570 -237 590 -214 q 515 -274 549 -261 q 440 -286 481 -286 q 370 -278 403 -286 q 308 -251 337 -269 l 330 -197 q 371 -220 348 -210 q 425 -230 394 -230 q 482 -217 463 -230 q 500 -179 500 -203 q 474 -134 500 -149 q 389 -118 448 -119 q 380 -116 382 -118 q 381 -109 378 -114 l 431 7 l 499 7 l 466 -77 q 541 -95 513 -79 q 579 -133 568 -110 q 590 -178 590 -156 z "},"Ŝ":{"ha":935,"x_min":81,"x_max":851,"o":"m 474 -14 q 336 4 403 -14 q 215 57 269 22 q 125 145 161 92 q 81 267 90 197 l 215 267 q 265 171 228 210 q 356 113 302 132 q 473 93 410 93 q 600 113 544 93 q 688 169 656 133 q 720 258 720 206 q 700 336 720 303 q 640 392 679 369 q 546 426 601 414 l 349 472 q 175 559 238 497 q 110 724 112 622 q 157 877 110 811 q 284 980 203 943 q 469 1017 365 1017 q 671 976 589 1017 q 794 868 753 935 q 837 726 836 801 l 704 726 q 664 834 698 794 q 580 891 631 874 q 469 908 529 908 q 386 897 426 908 q 315 865 347 886 q 265 811 283 843 q 246 737 246 779 q 283 649 246 683 q 418 590 320 615 l 609 544 q 732 497 684 528 q 805 426 779 466 q 841 344 831 387 q 851 259 851 301 q 806 121 851 183 q 677 23 761 59 q 474 -14 592 -14 m 564 1088 l 467 1178 l 362 1088 l 248 1088 l 422 1244 l 514 1244 l 685 1088 l 564 1088 z "},"Ș":{"ha":935,"x_min":81,"x_max":851,"o":"m 474 -14 q 336 4 403 -14 q 215 57 269 22 q 125 145 161 92 q 81 267 90 197 l 215 267 q 265 171 228 210 q 356 113 302 132 q 473 93 410 93 q 600 113 544 93 q 688 169 656 133 q 720 258 720 206 q 700 336 720 303 q 640 392 679 369 q 546 426 601 414 l 349 472 q 175 559 238 497 q 110 724 112 622 q 157 877 110 811 q 284 980 203 943 q 469 1017 365 1017 q 671 976 589 1017 q 794 868 753 935 q 837 726 836 801 l 704 726 q 664 834 698 794 q 580 891 631 874 q 469 908 529 908 q 386 897 426 908 q 315 865 347 886 q 265 811 283 843 q 246 737 246 779 q 283 649 246 683 q 418 590 320 615 l 609 544 q 732 497 684 528 q 805 426 779 466 q 841 344 831 387 q 851 259 851 301 q 806 121 851 183 q 677 23 761 59 q 474 -14 592 -14 m 385 -264 l 442 -178 l 398 -174 l 398 -67 l 528 -67 l 528 -157 l 438 -264 l 385 -264 z "},"Ṣ":{"ha":935,"x_min":81,"x_max":851,"o":"m 474 -14 q 336 4 403 -14 q 215 57 269 22 q 125 145 161 92 q 81 267 90 197 l 215 267 q 265 171 228 210 q 356 113 302 132 q 473 93 410 93 q 600 113 544 93 q 688 169 656 133 q 720 258 720 206 q 700 336 720 303 q 640 392 679 369 q 546 426 601 414 l 349 472 q 175 559 238 497 q 110 724 112 622 q 157 877 110 811 q 284 980 203 943 q 469 1017 365 1017 q 671 976 589 1017 q 794 868 753 935 q 837 726 836 801 l 704 726 q 664 834 698 794 q 580 891 631 874 q 469 908 529 908 q 386 897 426 908 q 315 865 347 886 q 265 811 283 843 q 246 737 246 779 q 283 649 246 683 q 418 590 320 615 l 609 544 q 732 497 684 528 q 805 426 779 466 q 841 344 831 387 q 851 259 851 301 q 806 121 851 183 q 677 23 761 59 q 474 -14 592 -14 z "},"Ə":{"ha":1018,"x_min":75,"x_max":943,"o":"m 510 -14 q 282 45 379 -14 q 130 227 184 105 q 76 536 76 349 l 791 536 q 718 800 791 706 q 508 894 646 894 q 386 873 439 894 q 296 817 333 852 q 241 743 260 783 q 222 665 222 703 l 75 665 q 105 785 75 724 q 192 899 135 847 q 329 985 249 952 q 510 1018 409 1018 q 742 957 645 1018 q 891 782 839 897 q 943 506 943 667 q 889 218 943 333 q 738 44 835 103 q 510 -14 641 -14 m 510 104 q 664 147 602 104 q 757 264 726 190 q 790 433 789 339 l 233 433 q 264 264 233 338 q 358 147 296 190 q 510 104 419 104 z "},"T":{"ha":824,"x_min":32,"x_max":792,"o":"m 32 886 l 32 1004 l 792 1004 l 792 886 l 485 886 l 485 0 l 356 0 l 356 886 l 32 886 z "},"Ŧ":{"ha":824,"x_min":32,"x_max":792,"o":"m 676 553 l 676 451 l 147 451 l 147 553 l 676 553 m 32 886 l 32 1004 l 792 1004 l 792 886 l 485 886 l 485 0 l 356 0 l 356 886 l 32 886 z "},"Ť":{"ha":824,"x_min":32,"x_max":792,"o":"m 32 886 l 32 1004 l 792 1004 l 792 886 l 485 886 l 485 0 l 356 0 l 356 886 l 32 886 m 381 1088 l 206 1244 l 321 1244 l 426 1151 l 523 1244 l 644 1244 l 473 1088 l 381 1088 z "},"Ţ":{"ha":824,"x_min":32,"x_max":792,"o":"m 32 886 l 32 1004 l 792 1004 l 792 886 l 485 886 l 485 0 l 356 0 l 356 886 l 32 886 m 556 -176 q 535 -235 556 -212 q 480 -272 515 -259 q 406 -284 446 -284 q 335 -276 368 -284 q 274 -249 302 -267 l 295 -195 q 336 -218 313 -208 q 390 -228 360 -228 q 447 -215 428 -228 q 465 -177 465 -201 q 439 -132 465 -147 q 354 -116 413 -117 q 345 -114 347 -116 q 346 -107 344 -112 l 397 9 l 464 9 l 431 -75 q 506 -93 478 -77 q 544 -131 533 -108 q 556 -176 556 -153 z "},"Ț":{"ha":824,"x_min":32,"x_max":792,"o":"m 32 886 l 32 1004 l 792 1004 l 792 886 l 485 886 l 485 0 l 356 0 l 356 886 l 32 886 m 349 -262 l 406 -176 l 363 -172 l 363 -65 l 492 -65 l 492 -155 l 402 -262 l 349 -262 z "},"Ṭ":{"ha":824,"x_min":32,"x_max":792,"o":"m 32 886 l 32 1004 l 792 1004 l 792 886 l 485 886 l 485 0 l 356 0 l 356 886 l 32 886 z "},"U":{"ha":973,"x_min":133,"x_max":867,"o":"m 867 347 q 828 151 867 231 q 709 28 790 70 q 499 -14 628 -14 q 288 29 369 -14 q 170 156 207 72 q 133 360 133 239 l 133 1004 l 266 1004 l 266 341 q 326 159 266 219 q 499 99 387 99 q 628 125 575 99 q 709 205 681 151 q 738 341 738 259 l 738 1004 l 867 1004 l 867 347 z "},"Ú":{"ha":973,"x_min":133,"x_max":867,"o":"m 867 347 q 828 151 867 231 q 709 28 790 70 q 499 -14 628 -14 q 288 29 369 -14 q 170 156 207 72 q 133 360 133 239 l 133 1004 l 266 1004 l 266 341 q 326 159 266 219 q 499 99 387 99 q 628 125 575 99 q 709 205 681 151 q 738 341 738 259 l 738 1004 l 867 1004 l 867 347 m 592 1290 l 738 1290 l 549 1088 l 449 1088 l 592 1290 z "},"Ŭ":{"ha":973,"x_min":133,"x_max":867,"o":"m 867 347 q 828 151 867 231 q 709 28 790 70 q 499 -14 628 -14 q 288 29 369 -14 q 170 156 207 72 q 133 360 133 239 l 133 1004 l 266 1004 l 266 341 q 326 159 266 219 q 499 99 387 99 q 628 125 575 99 q 709 205 681 151 q 738 341 738 259 l 738 1004 l 867 1004 l 867 347 m 712 1237 q 671 1156 701 1190 q 598 1104 642 1122 q 500 1086 553 1086 q 405 1103 449 1086 q 331 1155 361 1121 q 290 1237 301 1188 l 384 1237 q 425 1182 395 1203 q 500 1161 456 1161 q 575 1182 544 1161 q 619 1237 607 1203 l 712 1237 z "},"Û":{"ha":973,"x_min":133,"x_max":867,"o":"m 867 347 q 828 151 867 231 q 709 28 790 70 q 499 -14 628 -14 q 288 29 369 -14 q 170 156 207 72 q 133 360 133 239 l 133 1004 l 266 1004 l 266 341 q 326 159 266 219 q 499 99 387 99 q 628 125 575 99 q 709 205 681 151 q 738 341 738 259 l 738 1004 l 867 1004 l 867 347 m 598 1088 l 501 1178 l 396 1088 l 282 1088 l 456 1244 l 548 1244 l 719 1088 l 598 1088 z "},"Ȕ":{"ha":973,"x_min":133,"x_max":867,"o":"m 867 347 q 828 151 867 231 q 709 28 790 70 q 499 -14 628 -14 q 288 29 369 -14 q 170 156 207 72 q 133 360 133 239 l 133 1004 l 266 1004 l 266 341 q 326 159 266 219 q 499 99 387 99 q 628 125 575 99 q 709 205 681 151 q 738 341 738 259 l 738 1004 l 867 1004 l 867 347 m 510 1290 l 647 1088 l 547 1088 l 376 1290 l 510 1290 m 289 1290 l 453 1088 l 353 1088 l 151 1290 l 289 1290 z "},"Ü":{"ha":973,"x_min":133,"x_max":867,"o":"m 867 347 q 828 151 867 231 q 709 28 790 70 q 499 -14 628 -14 q 288 29 369 -14 q 170 156 207 72 q 133 360 133 239 l 133 1004 l 266 1004 l 266 341 q 326 159 266 219 q 499 99 387 99 q 628 125 575 99 q 709 205 681 151 q 738 341 738 259 l 738 1004 l 867 1004 l 867 347 m 573 1131 l 574 1255 l 699 1255 l 699 1131 l 573 1131 m 303 1131 l 303 1255 l 429 1255 l 428 1131 l 303 1131 z "},"Ụ":{"ha":973,"x_min":133,"x_max":867,"o":"m 867 347 q 828 151 867 231 q 709 28 790 70 q 499 -14 628 -14 q 288 29 369 -14 q 170 156 207 72 q 133 360 133 239 l 133 1004 l 266 1004 l 266 341 q 326 159 266 219 q 499 99 387 99 q 628 125 575 99 q 709 205 681 151 q 738 341 738 259 l 738 1004 l 867 1004 l 867 347 z "},"Ù":{"ha":973,"x_min":133,"x_max":867,"o":"m 867 347 q 828 151 867 231 q 709 28 790 70 q 499 -14 628 -14 q 288 29 369 -14 q 170 156 207 72 q 133 360 133 239 l 133 1004 l 266 1004 l 266 341 q 326 159 266 219 q 499 99 387 99 q 628 125 575 99 q 709 205 681 151 q 738 341 738 259 l 738 1004 l 867 1004 l 867 347 z "},"Ủ":{"ha":973,"x_min":133,"x_max":867,"o":"m 867 347 q 828 151 867 231 q 709 28 790 70 q 499 -14 628 -14 q 288 29 369 -14 q 170 156 207 72 q 133 360 133 239 l 133 1004 l 266 1004 l 266 341 q 326 159 266 219 q 499 99 387 99 q 628 125 575 99 q 709 205 681 151 q 738 341 738 259 l 738 1004 l 867 1004 l 867 347 m 406 1299 l 444 1240 q 501 1260 472 1259 q 544 1238 531 1260 q 547 1189 559 1214 q 505 1144 535 1163 l 542 1086 q 622 1174 604 1124 q 605 1278 640 1225 q 520 1330 576 1322 q 406 1299 465 1337 z "},"Ư":{"ha":1125,"x_min":133,"x_max":1061,"o":"m 867 347 q 828 151 867 231 q 709 28 790 70 q 499 -14 628 -14 q 288 29 369 -14 q 170 156 207 72 q 133 360 133 239 l 133 1004 l 266 1004 l 266 341 q 326 159 266 219 q 499 99 387 99 q 628 125 575 99 q 709 205 681 151 q 738 341 738 259 l 738 1004 l 867 1004 l 867 347 m 1061 1026 q 1039 894 1060 944 q 968 824 1017 844 q 837 814 919 805 l 837 887 q 891 891 869 886 q 927 910 913 896 q 949 952 941 924 q 958 1026 956 980 l 1061 1026 z "},"Ứ":{"ha":1125,"x_min":133,"x_max":1061,"o":"m 867 347 q 828 151 867 231 q 709 28 790 70 q 499 -14 628 -14 q 288 29 369 -14 q 170 156 207 72 q 133 360 133 239 l 133 1004 l 266 1004 l 266 341 q 326 159 266 219 q 499 99 387 99 q 628 125 575 99 q 709 205 681 151 q 738 341 738 259 l 738 1004 l 867 1004 l 867 347 m 1061 1026 q 1039 894 1060 944 q 968 824 1017 844 q 837 814 919 805 l 837 887 q 891 891 869 886 q 927 910 913 896 q 949 952 941 924 q 958 1026 956 980 l 1061 1026 m 592 1290 l 738 1290 l 549 1088 l 449 1088 l 592 1290 z "},"Ự":{"ha":1125,"x_min":133,"x_max":1061,"o":"m 867 347 q 828 151 867 231 q 709 28 790 70 q 499 -14 628 -14 q 288 29 369 -14 q 170 156 207 72 q 133 360 133 239 l 133 1004 l 266 1004 l 266 341 q 326 159 266 219 q 499 99 387 99 q 628 125 575 99 q 709 205 681 151 q 738 341 738 259 l 738 1004 l 867 1004 l 867 347 m 1061 1026 q 1039 894 1060 944 q 968 824 1017 844 q 837 814 919 805 l 837 887 q 891 891 869 886 q 927 910 913 896 q 949 952 941 924 q 958 1026 956 980 l 1061 1026 z "},"Ừ":{"ha":1125,"x_min":133,"x_max":1061,"o":"m 867 347 q 828 151 867 231 q 709 28 790 70 q 499 -14 628 -14 q 288 29 369 -14 q 170 156 207 72 q 133 360 133 239 l 133 1004 l 266 1004 l 266 341 q 326 159 266 219 q 499 99 387 99 q 628 125 575 99 q 709 205 681 151 q 738 341 738 259 l 738 1004 l 867 1004 l 867 347 m 1061 1026 q 1039 894 1060 944 q 968 824 1017 844 q 837 814 919 805 l 837 887 q 891 891 869 886 q 927 910 913 896 q 949 952 941 924 q 958 1026 956 980 l 1061 1026 z "},"Ử":{"ha":1125,"x_min":133,"x_max":1061,"o":"m 867 347 q 828 151 867 231 q 709 28 790 70 q 499 -14 628 -14 q 288 29 369 -14 q 170 156 207 72 q 133 360 133 239 l 133 1004 l 266 1004 l 266 341 q 326 159 266 219 q 499 99 387 99 q 628 125 575 99 q 709 205 681 151 q 738 341 738 259 l 738 1004 l 867 1004 l 867 347 m 1061 1026 q 1039 894 1060 944 q 968 824 1017 844 q 837 814 919 805 l 837 887 q 891 891 869 886 q 927 910 913 896 q 949 952 941 924 q 958 1026 956 980 l 1061 1026 m 406 1299 l 444 1240 q 501 1260 472 1259 q 544 1238 531 1260 q 547 1189 559 1214 q 505 1144 535 1163 l 542 1086 q 622 1174 604 1124 q 605 1278 640 1225 q 520 1330 576 1322 q 406 1299 465 1337 z "},"Ữ":{"ha":1122,"x_min":133,"x_max":1061,"o":"m 867 347 q 828 151 867 231 q 709 28 790 70 q 499 -14 628 -14 q 288 29 369 -14 q 170 156 207 72 q 133 360 133 239 l 133 1004 l 266 1004 l 266 341 q 326 159 266 219 q 499 99 387 99 q 628 125 575 99 q 709 205 681 151 q 738 341 738 259 l 738 1004 l 867 1004 l 867 347 m 1061 1026 q 1039 894 1060 944 q 968 824 1017 844 q 837 814 919 805 l 837 887 q 891 891 869 886 q 927 910 913 896 q 949 952 941 924 q 958 1026 956 980 l 1061 1026 m 712 1176 q 665 1150 694 1163 q 592 1136 636 1136 q 527 1145 555 1136 q 473 1163 499 1154 q 415 1172 447 1172 q 360 1161 381 1172 q 318 1133 340 1149 l 294 1209 q 344 1246 317 1231 q 410 1261 370 1261 q 474 1251 444 1261 q 533 1232 504 1242 q 592 1222 562 1222 q 647 1234 624 1222 q 690 1261 669 1245 l 712 1176 z "},"Ű":{"ha":973,"x_min":133,"x_max":867,"o":"m 867 347 q 828 151 867 231 q 709 28 790 70 q 499 -14 628 -14 q 288 29 369 -14 q 170 156 207 72 q 133 360 133 239 l 133 1004 l 266 1004 l 266 341 q 326 159 266 219 q 499 99 387 99 q 628 125 575 99 q 709 205 681 151 q 738 341 738 259 l 738 1004 l 867 1004 l 867 347 z "},"Ȗ":{"ha":973,"x_min":133,"x_max":867,"o":"m 867 347 q 828 151 867 231 q 709 28 790 70 q 499 -14 628 -14 q 288 29 369 -14 q 170 156 207 72 q 133 360 133 239 l 133 1004 l 266 1004 l 266 341 q 326 159 266 219 q 499 99 387 99 q 628 125 575 99 q 709 205 681 151 q 738 341 738 259 l 738 1004 l 867 1004 l 867 347 z "},"Ū":{"ha":973,"x_min":133,"x_max":867,"o":"m 867 347 q 828 151 867 231 q 709 28 790 70 q 499 -14 628 -14 q 288 29 369 -14 q 170 156 207 72 q 133 360 133 239 l 133 1004 l 266 1004 l 266 341 q 326 159 266 219 q 499 99 387 99 q 628 125 575 99 q 709 205 681 151 q 738 341 738 259 l 738 1004 l 867 1004 l 867 347 m 708 1234 l 708 1144 l 293 1144 l 293 1234 l 708 1234 z "},"Ų":{"ha":973,"x_min":133,"x_max":867,"o":"m 867 347 q 828 151 867 231 q 709 28 790 70 q 499 -14 628 -14 q 288 29 369 -14 q 170 156 207 72 q 133 360 133 239 l 133 1004 l 266 1004 l 266 341 q 326 159 266 219 q 499 99 387 99 q 628 125 575 99 q 709 205 681 151 q 738 341 738 259 l 738 1004 l 867 1004 l 867 347 m 381 -123 q 410 -48 381 -81 q 523 11 440 -15 l 616 3 q 515 -52 546 -26 q 484 -112 484 -78 q 499 -150 484 -137 q 548 -162 514 -162 q 607 -154 581 -162 q 647 -137 633 -145 l 647 -204 q 595 -224 631 -215 q 518 -233 559 -233 q 416 -203 451 -233 q 381 -123 381 -174 z "},"Ů":{"ha":973,"x_min":133,"x_max":867,"o":"m 867 347 q 828 151 867 231 q 709 28 790 70 q 499 -14 628 -14 q 288 29 369 -14 q 170 156 207 72 q 133 360 133 239 l 133 1004 l 266 1004 l 266 341 q 326 159 266 219 q 499 99 387 99 q 628 125 575 99 q 709 205 681 151 q 738 341 738 259 l 738 1004 l 867 1004 l 867 347 m 645 1231 q 603 1129 645 1170 q 501 1088 562 1088 q 400 1130 442 1088 q 358 1233 358 1172 q 401 1331 358 1290 q 501 1372 443 1372 q 574 1352 542 1372 q 626 1301 607 1333 q 645 1231 645 1269 m 574 1230 q 552 1283 574 1263 q 500 1303 531 1303 q 448 1283 470 1303 q 425 1230 425 1263 q 448 1177 425 1200 q 500 1154 470 1154 q 552 1177 531 1154 q 574 1230 574 1200 z "},"Ũ":{"ha":973,"x_min":133,"x_max":867,"o":"m 867 347 q 828 151 867 231 q 709 28 790 70 q 499 -14 628 -14 q 288 29 369 -14 q 170 156 207 72 q 133 360 133 239 l 133 1004 l 266 1004 l 266 341 q 326 159 266 219 q 499 99 387 99 q 628 125 575 99 q 709 205 681 151 q 738 341 738 259 l 738 1004 l 867 1004 l 867 347 m 712 1176 q 665 1150 694 1163 q 592 1136 636 1136 q 527 1145 555 1136 q 473 1163 499 1154 q 415 1172 447 1172 q 360 1161 381 1172 q 318 1133 340 1149 l 294 1209 q 344 1246 317 1231 q 410 1261 370 1261 q 474 1251 444 1261 q 533 1232 504 1242 q 592 1222 562 1222 q 647 1234 624 1222 q 690 1261 669 1245 l 712 1176 z "},"V":{"ha":925,"x_min":32,"x_max":893,"o":"m 893 1004 l 537 0 l 382 0 l 32 1004 l 159 1004 l 460 147 l 767 1004 l 893 1004 z "},"W":{"ha":1324,"x_min":32,"x_max":1292,"o":"m 1292 1004 l 999 0 l 881 0 l 660 778 l 437 0 l 322 0 l 32 1004 l 162 1004 l 384 205 l 610 1004 l 711 1004 l 937 205 l 1163 1004 l 1292 1004 z "},"Ẃ":{"ha":1324,"x_min":32,"x_max":1292,"o":"m 1292 1004 l 999 0 l 881 0 l 660 778 l 437 0 l 322 0 l 32 1004 l 162 1004 l 384 205 l 610 1004 l 711 1004 l 937 205 l 1163 1004 l 1292 1004 m 752 1290 l 898 1290 l 708 1088 l 609 1088 l 752 1290 z "},"Ŵ":{"ha":1324,"x_min":32,"x_max":1292,"o":"m 1292 1004 l 999 0 l 881 0 l 660 778 l 437 0 l 322 0 l 32 1004 l 162 1004 l 384 205 l 610 1004 l 711 1004 l 937 205 l 1163 1004 l 1292 1004 m 758 1088 l 660 1178 l 556 1088 l 442 1088 l 616 1244 l 708 1244 l 878 1088 l 758 1088 z "},"Ẅ":{"ha":1324,"x_min":32,"x_max":1292,"o":"m 1292 1004 l 999 0 l 881 0 l 660 778 l 437 0 l 322 0 l 32 1004 l 162 1004 l 384 205 l 610 1004 l 711 1004 l 937 205 l 1163 1004 l 1292 1004 m 733 1131 l 733 1255 l 859 1255 l 858 1131 l 733 1131 m 463 1131 l 463 1255 l 589 1255 l 588 1131 l 463 1131 z "},"Ẁ":{"ha":1324,"x_min":32,"x_max":1292,"o":"m 1292 1004 l 999 0 l 881 0 l 660 778 l 437 0 l 322 0 l 32 1004 l 162 1004 l 384 205 l 610 1004 l 711 1004 l 937 205 l 1163 1004 l 1292 1004 z "},"X":{"ha":956,"x_min":58,"x_max":899,"o":"m 899 0 l 740 0 l 467 414 l 199 0 l 58 0 l 398 513 l 69 1004 l 228 1004 l 478 622 l 726 1004 l 867 1004 l 547 526 l 899 0 z "},"Y":{"ha":843,"x_min":17,"x_max":827,"o":"m 827 1004 l 487 427 l 487 0 l 359 0 l 359 428 l 17 1004 l 157 1004 l 424 542 l 686 1004 l 827 1004 z "},"Ý":{"ha":843,"x_min":17,"x_max":827,"o":"m 827 1004 l 487 427 l 487 0 l 359 0 l 359 428 l 17 1004 l 157 1004 l 424 542 l 686 1004 l 827 1004 m 525 1292 l 671 1292 l 481 1090 l 382 1090 l 525 1292 z "},"Ŷ":{"ha":843,"x_min":17,"x_max":827,"o":"m 827 1004 l 487 427 l 487 0 l 359 0 l 359 428 l 17 1004 l 157 1004 l 424 542 l 686 1004 l 827 1004 m 531 1090 l 433 1181 l 328 1090 l 215 1090 l 389 1247 l 481 1247 l 651 1090 l 531 1090 z "},"Ÿ":{"ha":843,"x_min":17,"x_max":827,"o":"m 827 1004 l 487 427 l 487 0 l 359 0 l 359 428 l 17 1004 l 157 1004 l 424 542 l 686 1004 l 827 1004 m 506 1133 l 506 1257 l 632 1257 l 631 1133 l 506 1133 m 235 1133 l 236 1257 l 362 1257 l 361 1133 l 235 1133 z "},"Ỵ":{"ha":843,"x_min":17,"x_max":827,"o":"m 827 1004 l 487 427 l 487 0 l 359 0 l 359 428 l 17 1004 l 157 1004 l 424 542 l 686 1004 l 827 1004 z "},"Ỳ":{"ha":843,"x_min":17,"x_max":827,"o":"m 827 1004 l 487 427 l 487 0 l 359 0 l 359 428 l 17 1004 l 157 1004 l 424 542 l 686 1004 l 827 1004 z "},"Ỷ":{"ha":843,"x_min":17,"x_max":827,"o":"m 827 1004 l 487 427 l 487 0 l 359 0 l 359 428 l 17 1004 l 157 1004 l 424 542 l 686 1004 l 827 1004 m 338 1301 l 376 1242 q 434 1262 404 1261 q 477 1240 463 1263 q 480 1191 492 1216 q 438 1147 467 1165 l 475 1088 q 555 1176 537 1126 q 538 1280 572 1227 q 453 1332 509 1324 q 338 1301 397 1339 z "},"Ỹ":{"ha":843,"x_min":17,"x_max":827,"o":"m 827 1004 l 487 427 l 487 0 l 359 0 l 359 428 l 17 1004 l 157 1004 l 424 542 l 686 1004 l 827 1004 m 644 1178 q 598 1152 626 1165 q 525 1138 569 1138 q 460 1147 488 1138 q 406 1165 432 1156 q 348 1174 380 1174 q 293 1163 314 1174 q 251 1135 272 1151 l 226 1211 q 276 1248 250 1233 q 342 1263 303 1263 q 407 1253 376 1263 q 466 1234 437 1244 q 525 1224 494 1224 q 579 1236 556 1224 q 622 1263 602 1247 l 644 1178 z "},"Z":{"ha":885,"x_min":88,"x_max":818,"o":"m 88 0 l 88 71 l 638 892 l 112 892 l 112 1004 l 818 1004 l 818 936 l 263 113 l 815 113 l 815 0 l 88 0 z "},"Ź":{"ha":885,"x_min":88,"x_max":818,"o":"m 88 0 l 88 71 l 638 892 l 112 892 l 112 1004 l 818 1004 l 818 936 l 263 113 l 815 113 l 815 0 l 88 0 m 562 1290 l 708 1290 l 518 1088 l 419 1088 l 562 1290 z "},"Ž":{"ha":885,"x_min":88,"x_max":818,"o":"m 88 0 l 88 71 l 638 892 l 112 892 l 112 1004 l 818 1004 l 818 936 l 263 113 l 815 113 l 815 0 l 88 0 m 425 1088 l 250 1244 l 365 1244 l 470 1151 l 567 1244 l 688 1244 l 517 1088 l 425 1088 z "},"Ż":{"ha":885,"x_min":88,"x_max":818,"o":"m 88 0 l 88 71 l 638 892 l 112 892 l 112 1004 l 818 1004 l 818 936 l 263 113 l 815 113 l 815 0 l 88 0 m 405 1131 l 405 1255 l 535 1255 l 535 1131 l 405 1131 z "},"Ẓ":{"ha":885,"x_min":88,"x_max":818,"o":"m 88 0 l 88 71 l 638 892 l 112 892 l 112 1004 l 818 1004 l 818 936 l 263 113 l 815 113 l 815 0 l 88 0 z "},"a":{"ha":784,"x_min":68,"x_max":671,"o":"m 305 -14 q 182 11 235 -14 q 98 82 128 35 q 68 194 68 128 q 151 372 68 314 q 419 435 235 431 l 547 438 l 547 494 q 508 599 547 560 q 385 638 468 638 q 276 608 323 637 q 215 515 229 580 l 102 515 q 142 634 106 585 q 241 707 177 682 q 391 732 304 732 q 547 706 485 732 q 640 628 609 679 q 671 501 671 576 l 671 0 l 561 0 l 552 135 q 446 18 510 51 q 305 -14 382 -14 m 344 78 q 416 92 380 78 q 481 127 451 105 q 529 178 511 150 q 547 236 547 206 l 547 359 l 440 357 q 303 340 358 356 q 220 292 248 325 q 193 207 193 260 q 235 113 193 147 q 344 78 277 78 z "},"á":{"ha":784,"x_min":68,"x_max":671,"o":"m 305 -14 q 182 11 235 -14 q 98 82 128 35 q 68 194 68 128 q 151 372 68 314 q 419 435 235 431 l 547 438 l 547 494 q 508 599 547 560 q 385 638 468 638 q 276 608 323 637 q 215 515 229 580 l 102 515 q 142 634 106 585 q 241 707 177 682 q 391 732 304 732 q 547 706 485 732 q 640 628 609 679 q 671 501 671 576 l 671 0 l 561 0 l 552 135 q 446 18 510 51 q 305 -14 382 -14 m 344 78 q 416 92 380 78 q 481 127 451 105 q 529 178 511 150 q 547 236 547 206 l 547 359 l 440 357 q 303 340 358 356 q 220 292 248 325 q 193 207 193 260 q 235 113 193 147 q 344 78 277 78 m 483 1004 l 629 1004 l 440 802 l 340 802 l 483 1004 z "},"ă":{"ha":784,"x_min":68,"x_max":671,"o":"m 305 -14 q 182 11 235 -14 q 98 82 128 35 q 68 194 68 128 q 151 372 68 314 q 419 435 235 431 l 547 438 l 547 494 q 508 599 547 560 q 385 638 468 638 q 276 608 323 637 q 215 515 229 580 l 102 515 q 142 634 106 585 q 241 707 177 682 q 391 732 304 732 q 547 706 485 732 q 640 628 609 679 q 671 501 671 576 l 671 0 l 561 0 l 552 135 q 446 18 510 51 q 305 -14 382 -14 m 344 78 q 416 92 380 78 q 481 127 451 105 q 529 178 511 150 q 547 236 547 206 l 547 359 l 440 357 q 303 340 358 356 q 220 292 248 325 q 193 207 193 260 q 235 113 193 147 q 344 78 277 78 m 602 951 q 561 870 591 903 q 488 818 532 836 q 390 800 444 800 q 295 817 339 800 q 222 868 251 835 q 181 951 192 902 l 274 951 q 316 896 285 917 q 390 875 346 875 q 466 896 434 875 q 509 951 497 917 l 602 951 z "},"ắ":{"ha":784,"x_min":68,"x_max":671,"o":"m 305 -14 q 182 11 235 -14 q 98 82 128 35 q 68 194 68 128 q 151 372 68 314 q 419 435 235 431 l 547 438 l 547 494 q 508 599 547 560 q 385 638 468 638 q 276 608 323 637 q 215 515 229 580 l 102 515 q 142 634 106 585 q 241 707 177 682 q 391 732 304 732 q 547 706 485 732 q 640 628 609 679 q 671 501 671 576 l 671 0 l 561 0 l 552 135 q 446 18 510 51 q 305 -14 382 -14 m 344 78 q 416 92 380 78 q 481 127 451 105 q 529 178 511 150 q 547 236 547 206 l 547 359 l 440 357 q 303 340 358 356 q 220 292 248 325 q 193 207 193 260 q 235 113 193 147 q 344 78 277 78 z "},"ặ":{"ha":784,"x_min":68,"x_max":671,"o":"m 305 -14 q 182 11 235 -14 q 98 82 128 35 q 68 194 68 128 q 151 372 68 314 q 419 435 235 431 l 547 438 l 547 494 q 508 599 547 560 q 385 638 468 638 q 276 608 323 637 q 215 515 229 580 l 102 515 q 142 634 106 585 q 241 707 177 682 q 391 732 304 732 q 547 706 485 732 q 640 628 609 679 q 671 501 671 576 l 671 0 l 561 0 l 552 135 q 446 18 510 51 q 305 -14 382 -14 m 344 78 q 416 92 380 78 q 481 127 451 105 q 529 178 511 150 q 547 236 547 206 l 547 359 l 440 357 q 303 340 358 356 q 220 292 248 325 q 193 207 193 260 q 235 113 193 147 q 344 78 277 78 m 602 951 q 561 870 591 903 q 488 818 532 836 q 390 800 444 800 q 295 817 339 800 q 222 868 251 835 q 181 951 192 902 l 274 951 q 316 896 285 917 q 390 875 346 875 q 466 896 434 875 q 509 951 497 917 l 602 951 z "},"ằ":{"ha":784,"x_min":68,"x_max":671,"o":"m 305 -14 q 182 11 235 -14 q 98 82 128 35 q 68 194 68 128 q 151 372 68 314 q 419 435 235 431 l 547 438 l 547 494 q 508 599 547 560 q 385 638 468 638 q 276 608 323 637 q 215 515 229 580 l 102 515 q 142 634 106 585 q 241 707 177 682 q 391 732 304 732 q 547 706 485 732 q 640 628 609 679 q 671 501 671 576 l 671 0 l 561 0 l 552 135 q 446 18 510 51 q 305 -14 382 -14 m 344 78 q 416 92 380 78 q 481 127 451 105 q 529 178 511 150 q 547 236 547 206 l 547 359 l 440 357 q 303 340 358 356 q 220 292 248 325 q 193 207 193 260 q 235 113 193 147 q 344 78 277 78 z "},"ẳ":{"ha":784,"x_min":68,"x_max":671,"o":"m 305 -14 q 182 11 235 -14 q 98 82 128 35 q 68 194 68 128 q 151 372 68 314 q 419 435 235 431 l 547 438 l 547 494 q 508 599 547 560 q 385 638 468 638 q 276 608 323 637 q 215 515 229 580 l 102 515 q 142 634 106 585 q 241 707 177 682 q 391 732 304 732 q 547 706 485 732 q 640 628 609 679 q 671 501 671 576 l 671 0 l 561 0 l 552 135 q 446 18 510 51 q 305 -14 382 -14 m 344 78 q 416 92 380 78 q 481 127 451 105 q 529 178 511 150 q 547 236 547 206 l 547 359 l 440 357 q 303 340 358 356 q 220 292 248 325 q 193 207 193 260 q 235 113 193 147 q 344 78 277 78 z "},"ẵ":{"ha":784,"x_min":68,"x_max":671,"o":"m 305 -14 q 182 11 235 -14 q 98 82 128 35 q 68 194 68 128 q 151 372 68 314 q 419 435 235 431 l 547 438 l 547 494 q 508 599 547 560 q 385 638 468 638 q 276 608 323 637 q 215 515 229 580 l 102 515 q 142 634 106 585 q 241 707 177 682 q 391 732 304 732 q 547 706 485 732 q 640 628 609 679 q 671 501 671 576 l 671 0 l 561 0 l 552 135 q 446 18 510 51 q 305 -14 382 -14 m 344 78 q 416 92 380 78 q 481 127 451 105 q 529 178 511 150 q 547 236 547 206 l 547 359 l 440 357 q 303 340 358 356 q 220 292 248 325 q 193 207 193 260 q 235 113 193 147 q 344 78 277 78 z "},"â":{"ha":784,"x_min":68,"x_max":671,"o":"m 305 -14 q 182 11 235 -14 q 98 82 128 35 q 68 194 68 128 q 151 372 68 314 q 419 435 235 431 l 547 438 l 547 494 q 508 599 547 560 q 385 638 468 638 q 276 608 323 637 q 215 515 229 580 l 102 515 q 142 634 106 585 q 241 707 177 682 q 391 732 304 732 q 547 706 485 732 q 640 628 609 679 q 671 501 671 576 l 671 0 l 561 0 l 552 135 q 446 18 510 51 q 305 -14 382 -14 m 344 78 q 416 92 380 78 q 481 127 451 105 q 529 178 511 150 q 547 236 547 206 l 547 359 l 440 357 q 303 340 358 356 q 220 292 248 325 q 193 207 193 260 q 235 113 193 147 q 344 78 277 78 m 488 802 l 391 892 l 286 802 l 172 802 l 347 958 l 438 958 l 609 802 l 488 802 z "},"ấ":{"ha":784,"x_min":68,"x_max":740,"o":"m 305 -14 q 182 11 235 -14 q 98 82 128 35 q 68 194 68 128 q 151 372 68 314 q 419 435 235 431 l 547 438 l 547 494 q 508 599 547 560 q 385 638 468 638 q 276 608 323 637 q 215 515 229 580 l 102 515 q 142 634 106 585 q 241 707 177 682 q 391 732 304 732 q 547 706 485 732 q 640 628 609 679 q 671 501 671 576 l 671 0 l 561 0 l 552 135 q 446 18 510 51 q 305 -14 382 -14 m 344 78 q 416 92 380 78 q 481 127 451 105 q 529 178 511 150 q 547 236 547 206 l 547 359 l 440 357 q 303 340 358 356 q 220 292 248 325 q 193 207 193 260 q 235 113 193 147 q 344 78 277 78 z "},"ậ":{"ha":784,"x_min":68,"x_max":671,"o":"m 305 -14 q 182 11 235 -14 q 98 82 128 35 q 68 194 68 128 q 151 372 68 314 q 419 435 235 431 l 547 438 l 547 494 q 508 599 547 560 q 385 638 468 638 q 276 608 323 637 q 215 515 229 580 l 102 515 q 142 634 106 585 q 241 707 177 682 q 391 732 304 732 q 547 706 485 732 q 640 628 609 679 q 671 501 671 576 l 671 0 l 561 0 l 552 135 q 446 18 510 51 q 305 -14 382 -14 m 344 78 q 416 92 380 78 q 481 127 451 105 q 529 178 511 150 q 547 236 547 206 l 547 359 l 440 357 q 303 340 358 356 q 220 292 248 325 q 193 207 193 260 q 235 113 193 147 q 344 78 277 78 m 488 802 l 391 892 l 286 802 l 172 802 l 347 958 l 438 958 l 609 802 l 488 802 z "},"ầ":{"ha":784,"x_min":68,"x_max":671,"o":"m 305 -14 q 182 11 235 -14 q 98 82 128 35 q 68 194 68 128 q 151 372 68 314 q 419 435 235 431 l 547 438 l 547 494 q 508 599 547 560 q 385 638 468 638 q 276 608 323 637 q 215 515 229 580 l 102 515 q 142 634 106 585 q 241 707 177 682 q 391 732 304 732 q 547 706 485 732 q 640 628 609 679 q 671 501 671 576 l 671 0 l 561 0 l 552 135 q 446 18 510 51 q 305 -14 382 -14 m 344 78 q 416 92 380 78 q 481 127 451 105 q 529 178 511 150 q 547 236 547 206 l 547 359 l 440 357 q 303 340 358 356 q 220 292 248 325 q 193 207 193 260 q 235 113 193 147 q 344 78 277 78 z "},"ẩ":{"ha":784,"x_min":68,"x_max":671,"o":"m 305 -14 q 182 11 235 -14 q 98 82 128 35 q 68 194 68 128 q 151 372 68 314 q 419 435 235 431 l 547 438 l 547 494 q 508 599 547 560 q 385 638 468 638 q 276 608 323 637 q 215 515 229 580 l 102 515 q 142 634 106 585 q 241 707 177 682 q 391 732 304 732 q 547 706 485 732 q 640 628 609 679 q 671 501 671 576 l 671 0 l 561 0 l 552 135 q 446 18 510 51 q 305 -14 382 -14 m 344 78 q 416 92 380 78 q 481 127 451 105 q 529 178 511 150 q 547 236 547 206 l 547 359 l 440 357 q 303 340 358 356 q 220 292 248 325 q 193 207 193 260 q 235 113 193 147 q 344 78 277 78 z "},"ẫ":{"ha":784,"x_min":68,"x_max":671,"o":"m 305 -14 q 182 11 235 -14 q 98 82 128 35 q 68 194 68 128 q 151 372 68 314 q 419 435 235 431 l 547 438 l 547 494 q 508 599 547 560 q 385 638 468 638 q 276 608 323 637 q 215 515 229 580 l 102 515 q 142 634 106 585 q 241 707 177 682 q 391 732 304 732 q 547 706 485 732 q 640 628 609 679 q 671 501 671 576 l 671 0 l 561 0 l 552 135 q 446 18 510 51 q 305 -14 382 -14 m 344 78 q 416 92 380 78 q 481 127 451 105 q 529 178 511 150 q 547 236 547 206 l 547 359 l 440 357 q 303 340 358 356 q 220 292 248 325 q 193 207 193 260 q 235 113 193 147 q 344 78 277 78 z "},"ȁ":{"ha":784,"x_min":42,"x_max":671,"o":"m 305 -14 q 182 11 235 -14 q 98 82 128 35 q 68 194 68 128 q 151 372 68 314 q 419 435 235 431 l 547 438 l 547 494 q 508 599 547 560 q 385 638 468 638 q 276 608 323 637 q 215 515 229 580 l 102 515 q 142 634 106 585 q 241 707 177 682 q 391 732 304 732 q 547 706 485 732 q 640 628 609 679 q 671 501 671 576 l 671 0 l 561 0 l 552 135 q 446 18 510 51 q 305 -14 382 -14 m 344 78 q 416 92 380 78 q 481 127 451 105 q 529 178 511 150 q 547 236 547 206 l 547 359 l 440 357 q 303 340 358 356 q 220 292 248 325 q 193 207 193 260 q 235 113 193 147 q 344 78 277 78 m 401 1004 l 537 802 l 438 802 l 267 1004 l 401 1004 m 179 1004 l 343 802 l 244 802 l 42 1004 l 179 1004 z "},"ä":{"ha":784,"x_min":68,"x_max":671,"o":"m 305 -14 q 182 11 235 -14 q 98 82 128 35 q 68 194 68 128 q 151 372 68 314 q 419 435 235 431 l 547 438 l 547 494 q 508 599 547 560 q 385 638 468 638 q 276 608 323 637 q 215 515 229 580 l 102 515 q 142 634 106 585 q 241 707 177 682 q 391 732 304 732 q 547 706 485 732 q 640 628 609 679 q 671 501 671 576 l 671 0 l 561 0 l 552 135 q 446 18 510 51 q 305 -14 382 -14 m 344 78 q 416 92 380 78 q 481 127 451 105 q 529 178 511 150 q 547 236 547 206 l 547 359 l 440 357 q 303 340 358 356 q 220 292 248 325 q 193 207 193 260 q 235 113 193 147 q 344 78 277 78 m 464 844 l 465 969 l 590 969 l 590 844 l 464 844 m 194 844 l 194 969 l 320 969 l 319 844 l 194 844 z "},"ạ":{"ha":784,"x_min":68,"x_max":671,"o":"m 305 -14 q 182 11 235 -14 q 98 82 128 35 q 68 194 68 128 q 151 372 68 314 q 419 435 235 431 l 547 438 l 547 494 q 508 599 547 560 q 385 638 468 638 q 276 608 323 637 q 215 515 229 580 l 102 515 q 142 634 106 585 q 241 707 177 682 q 391 732 304 732 q 547 706 485 732 q 640 628 609 679 q 671 501 671 576 l 671 0 l 561 0 l 552 135 q 446 18 510 51 q 305 -14 382 -14 m 344 78 q 416 92 380 78 q 481 127 451 105 q 529 178 511 150 q 547 236 547 206 l 547 359 l 440 357 q 303 340 358 356 q 220 292 248 325 q 193 207 193 260 q 235 113 193 147 q 344 78 277 78 z "},"à":{"ha":784,"x_min":68,"x_max":671,"o":"m 305 -14 q 182 11 235 -14 q 98 82 128 35 q 68 194 68 128 q 151 372 68 314 q 419 435 235 431 l 547 438 l 547 494 q 508 599 547 560 q 385 638 468 638 q 276 608 323 637 q 215 515 229 580 l 102 515 q 142 634 106 585 q 241 707 177 682 q 391 732 304 732 q 547 706 485 732 q 640 628 609 679 q 671 501 671 576 l 671 0 l 561 0 l 552 135 q 446 18 510 51 q 305 -14 382 -14 m 344 78 q 416 92 380 78 q 481 127 451 105 q 529 178 511 150 q 547 236 547 206 l 547 359 l 440 357 q 303 340 358 356 q 220 292 248 325 q 193 207 193 260 q 235 113 193 147 q 344 78 277 78 z "},"ả":{"ha":784,"x_min":68,"x_max":671,"o":"m 305 -14 q 182 11 235 -14 q 98 82 128 35 q 68 194 68 128 q 151 372 68 314 q 419 435 235 431 l 547 438 l 547 494 q 508 599 547 560 q 385 638 468 638 q 276 608 323 637 q 215 515 229 580 l 102 515 q 142 634 106 585 q 241 707 177 682 q 391 732 304 732 q 547 706 485 732 q 640 628 609 679 q 671 501 671 576 l 671 0 l 561 0 l 552 135 q 446 18 510 51 q 305 -14 382 -14 m 344 78 q 416 92 380 78 q 481 127 451 105 q 529 178 511 150 q 547 236 547 206 l 547 359 l 440 357 q 303 340 358 356 q 220 292 248 325 q 193 207 193 260 q 235 113 193 147 q 344 78 277 78 m 296 1013 l 334 954 q 391 974 362 973 q 435 951 421 974 q 437 902 449 928 q 395 858 425 877 l 433 800 q 512 888 494 838 q 495 992 530 939 q 411 1043 467 1036 q 296 1013 355 1051 z "},"ȃ":{"ha":784,"x_min":68,"x_max":671,"o":"m 305 -14 q 182 11 235 -14 q 98 82 128 35 q 68 194 68 128 q 151 372 68 314 q 419 435 235 431 l 547 438 l 547 494 q 508 599 547 560 q 385 638 468 638 q 276 608 323 637 q 215 515 229 580 l 102 515 q 142 634 106 585 q 241 707 177 682 q 391 732 304 732 q 547 706 485 732 q 640 628 609 679 q 671 501 671 576 l 671 0 l 561 0 l 552 135 q 446 18 510 51 q 305 -14 382 -14 m 344 78 q 416 92 380 78 q 481 127 451 105 q 529 178 511 150 q 547 236 547 206 l 547 359 l 440 357 q 303 340 358 356 q 220 292 248 325 q 193 207 193 260 q 235 113 193 147 q 344 78 277 78 z "},"ā":{"ha":784,"x_min":68,"x_max":671,"o":"m 305 -14 q 182 11 235 -14 q 98 82 128 35 q 68 194 68 128 q 151 372 68 314 q 419 435 235 431 l 547 438 l 547 494 q 508 599 547 560 q 385 638 468 638 q 276 608 323 637 q 215 515 229 580 l 102 515 q 142 634 106 585 q 241 707 177 682 q 391 732 304 732 q 547 706 485 732 q 640 628 609 679 q 671 501 671 576 l 671 0 l 561 0 l 552 135 q 446 18 510 51 q 305 -14 382 -14 m 344 78 q 416 92 380 78 q 481 127 451 105 q 529 178 511 150 q 547 236 547 206 l 547 359 l 440 357 q 303 340 358 356 q 220 292 248 325 q 193 207 193 260 q 235 113 193 147 q 344 78 277 78 m 599 948 l 599 858 l 184 858 l 184 948 l 599 948 z "},"ą":{"ha":784,"x_min":68,"x_max":699,"o":"m 305 -14 q 182 11 235 -14 q 98 82 128 35 q 68 194 68 128 q 151 372 68 314 q 419 435 235 431 l 547 438 l 547 494 q 508 599 547 560 q 385 638 468 638 q 276 608 323 637 q 215 515 229 580 l 102 515 q 142 634 106 585 q 241 707 177 682 q 391 732 304 732 q 547 706 485 732 q 640 628 609 679 q 671 501 671 576 l 671 0 l 561 0 l 552 135 q 446 18 510 51 q 305 -14 382 -14 m 344 78 q 416 92 380 78 q 481 127 451 105 q 529 178 511 150 q 547 236 547 206 l 547 359 l 440 357 q 303 340 358 356 q 220 292 248 325 q 193 207 193 260 q 235 113 193 147 q 344 78 277 78 m 431 -119 q 461 -44 431 -77 q 574 15 490 -11 l 667 7 q 566 -48 597 -22 q 535 -108 535 -74 q 550 -145 535 -133 q 599 -158 565 -158 q 658 -150 632 -158 q 698 -133 683 -141 l 698 -200 q 645 -219 681 -210 q 569 -228 610 -228 q 466 -199 501 -228 q 431 -119 431 -169 z "},"å":{"ha":784,"x_min":68,"x_max":671,"o":"m 305 -14 q 182 11 235 -14 q 98 82 128 35 q 68 194 68 128 q 151 372 68 314 q 419 435 235 431 l 547 438 l 547 494 q 508 599 547 560 q 385 638 468 638 q 276 608 323 637 q 215 515 229 580 l 102 515 q 142 634 106 585 q 241 707 177 682 q 391 732 304 732 q 547 706 485 732 q 640 628 609 679 q 671 501 671 576 l 671 0 l 561 0 l 552 135 q 446 18 510 51 q 305 -14 382 -14 m 344 78 q 416 92 380 78 q 481 127 451 105 q 529 178 511 150 q 547 236 547 206 l 547 359 l 440 357 q 303 340 358 356 q 220 292 248 325 q 193 207 193 260 q 235 113 193 147 q 344 78 277 78 m 535 944 q 494 843 535 884 q 392 801 452 801 q 290 843 332 801 q 249 947 249 885 q 291 1045 249 1004 q 392 1085 333 1085 q 465 1066 432 1085 q 516 1015 497 1047 q 535 944 535 983 m 464 944 q 443 997 464 976 q 390 1017 422 1017 q 338 997 360 1017 q 315 944 315 976 q 338 891 315 914 q 390 868 360 868 q 443 891 422 868 q 464 944 464 914 z "},"ǻ":{"ha":784,"x_min":68,"x_max":671,"o":"m 305 -14 q 182 11 235 -14 q 98 82 128 35 q 68 194 68 128 q 151 372 68 314 q 419 435 235 431 l 547 438 l 547 494 q 508 599 547 560 q 385 638 468 638 q 276 608 323 637 q 215 515 229 580 l 102 515 q 142 634 106 585 q 241 707 177 682 q 391 732 304 732 q 547 706 485 732 q 640 628 609 679 q 671 501 671 576 l 671 0 l 561 0 l 552 135 q 446 18 510 51 q 305 -14 382 -14 m 344 78 q 416 92 380 78 q 481 127 451 105 q 529 178 511 150 q 547 236 547 206 l 547 359 l 440 357 q 303 340 358 356 q 220 292 248 325 q 193 207 193 260 q 235 113 193 147 q 344 78 277 78 m 390 678 q 290 718 331 678 q 250 818 250 758 q 291 913 250 874 q 390 951 331 951 q 489 912 449 951 q 530 815 530 874 q 489 717 530 756 q 390 678 449 678 m 388 738 q 441 761 419 738 q 463 814 463 785 q 441 868 463 847 q 388 889 419 889 q 336 868 359 889 q 313 814 313 847 q 336 761 313 785 q 388 738 359 738 m 356 917 l 385 1038 l 481 1038 l 430 917 l 356 917 z "},"ã":{"ha":784,"x_min":68,"x_max":671,"o":"m 305 -14 q 182 11 235 -14 q 98 82 128 35 q 68 194 68 128 q 151 372 68 314 q 419 435 235 431 l 547 438 l 547 494 q 508 599 547 560 q 385 638 468 638 q 276 608 323 637 q 215 515 229 580 l 102 515 q 142 634 106 585 q 241 707 177 682 q 391 732 304 732 q 547 706 485 732 q 640 628 609 679 q 671 501 671 576 l 671 0 l 561 0 l 552 135 q 446 18 510 51 q 305 -14 382 -14 m 344 78 q 416 92 380 78 q 481 127 451 105 q 529 178 511 150 q 547 236 547 206 l 547 359 l 440 357 q 303 340 358 356 q 220 292 248 325 q 193 207 193 260 q 235 113 193 147 q 344 78 277 78 m 603 890 q 556 864 585 877 q 483 850 527 850 q 418 859 446 850 q 364 877 390 868 q 306 886 338 886 q 251 875 272 886 q 209 847 231 863 l 185 923 q 235 960 208 944 q 301 975 261 975 q 365 965 335 975 q 424 946 395 956 q 483 936 453 936 q 538 948 515 936 q 581 975 560 959 l 603 890 z "},"æ":{"ha":1262,"x_min":68,"x_max":1192,"o":"m 305 -14 q 182 11 235 -14 q 98 82 128 35 q 68 194 68 128 q 151 372 68 314 q 419 435 235 431 l 547 438 l 547 494 q 503 600 547 563 q 385 638 459 638 q 276 607 324 637 q 215 515 228 577 l 102 515 q 141 627 106 578 q 241 704 177 676 q 391 732 305 732 q 547 703 484 732 q 640 623 609 675 q 671 501 671 572 l 603 191 q 555 83 597 128 q 448 11 513 37 q 305 -14 383 -14 m 344 78 q 451 107 405 78 q 522 177 497 135 q 547 258 547 218 l 547 359 l 440 357 q 303 340 358 356 q 221 292 249 325 q 193 207 193 260 q 235 113 193 147 q 344 78 277 78 m 678 329 q 700 206 678 261 q 769 118 723 151 q 885 85 815 85 q 1003 117 953 85 q 1067 210 1053 149 l 1188 210 q 1130 87 1175 137 q 1021 11 1085 37 q 887 -14 957 -14 q 710 30 787 -14 q 591 156 634 74 q 548 352 548 238 q 587 551 548 465 q 700 684 626 636 q 878 732 774 732 q 1049 688 979 732 q 1156 565 1119 644 q 1192 376 1192 485 l 1192 329 l 678 329 m 678 416 l 1069 416 q 1048 527 1069 478 q 984 606 1027 577 q 877 635 942 635 q 766 602 810 635 q 700 520 722 570 q 678 416 678 469 z "},"ǽ":{"ha":1262,"x_min":68,"x_max":1192,"o":"m 305 -14 q 182 11 235 -14 q 98 82 128 35 q 68 194 68 128 q 151 372 68 314 q 419 435 235 431 l 547 438 l 547 494 q 503 600 547 563 q 385 638 459 638 q 276 607 324 637 q 215 515 228 577 l 102 515 q 141 627 106 578 q 241 704 177 676 q 391 732 305 732 q 547 703 484 732 q 640 623 609 675 q 671 501 671 572 l 603 191 q 555 83 597 128 q 448 11 513 37 q 305 -14 383 -14 m 344 78 q 451 107 405 78 q 522 177 497 135 q 547 258 547 218 l 547 359 l 440 357 q 303 340 358 356 q 221 292 249 325 q 193 207 193 260 q 235 113 193 147 q 344 78 277 78 m 678 329 q 700 206 678 261 q 769 118 723 151 q 885 85 815 85 q 1003 117 953 85 q 1067 210 1053 149 l 1188 210 q 1130 87 1175 137 q 1021 11 1085 37 q 887 -14 957 -14 q 710 30 787 -14 q 591 156 634 74 q 548 352 548 238 q 587 551 548 465 q 700 684 626 636 q 878 732 774 732 q 1049 688 979 732 q 1156 565 1119 644 q 1192 376 1192 485 l 1192 329 l 678 329 m 678 416 l 1069 416 q 1048 527 1069 478 q 984 606 1027 577 q 877 635 942 635 q 766 602 810 635 q 700 520 722 570 q 678 416 678 469 m 695 1004 l 841 1004 l 651 802 l 552 802 l 695 1004 z "},"b":{"ha":826,"x_min":106,"x_max":765,"o":"m 461 -14 q 355 3 398 -14 q 283 45 311 19 q 240 99 256 72 q 218 147 225 126 l 204 0 l 106 0 l 106 1032 l 235 1032 l 235 604 q 263 644 244 622 q 310 685 281 665 q 380 719 340 706 q 471 732 419 732 q 685 638 606 732 q 765 362 765 544 q 731 164 765 249 q 629 33 697 80 q 461 -14 562 -14 m 438 85 q 581 152 526 85 q 635 368 635 220 q 584 563 635 494 q 435 632 533 632 q 320 601 364 632 q 257 511 277 570 q 235 368 236 452 q 282 151 235 217 q 438 85 329 85 z "},"c":{"ha":749,"x_min":62,"x_max":681,"o":"m 392 732 q 531 702 469 732 q 632 619 593 673 q 681 491 672 565 l 567 491 q 539 560 561 528 q 479 610 516 591 q 393 628 442 628 q 243 562 301 628 q 185 358 185 495 q 239 159 185 233 q 395 84 292 84 q 481 103 444 84 q 540 154 517 122 q 568 222 562 185 l 680 222 q 631 97 671 149 q 530 15 592 44 q 392 -14 469 -14 q 221 28 296 -14 q 104 153 147 71 q 62 356 62 236 q 100 553 62 469 q 213 685 139 638 q 392 732 287 732 z "},"ć":{"ha":749,"x_min":62,"x_max":681,"o":"m 392 732 q 531 702 469 732 q 632 619 593 673 q 681 491 672 565 l 567 491 q 539 560 561 528 q 479 610 516 591 q 393 628 442 628 q 243 562 301 628 q 185 358 185 495 q 239 159 185 233 q 395 84 292 84 q 481 103 444 84 q 540 154 517 122 q 568 222 562 185 l 680 222 q 631 97 671 149 q 530 15 592 44 q 392 -14 469 -14 q 221 28 296 -14 q 104 153 147 71 q 62 356 62 236 q 100 553 62 469 q 213 685 139 638 q 392 732 287 732 m 484 1004 l 630 1004 l 440 802 l 341 802 l 484 1004 z "},"č":{"ha":749,"x_min":62,"x_max":681,"o":"m 392 732 q 531 702 469 732 q 632 619 593 673 q 681 491 672 565 l 567 491 q 539 560 561 528 q 479 610 516 591 q 393 628 442 628 q 243 562 301 628 q 185 358 185 495 q 239 159 185 233 q 395 84 292 84 q 481 103 444 84 q 540 154 517 122 q 568 222 562 185 l 680 222 q 631 97 671 149 q 530 15 592 44 q 392 -14 469 -14 q 221 28 296 -14 q 104 153 147 71 q 62 356 62 236 q 100 553 62 469 q 213 685 139 638 q 392 732 287 732 m 347 802 l 172 958 l 288 958 l 392 865 l 490 958 l 610 958 l 440 802 l 347 802 z "},"ç":{"ha":749,"x_min":62,"x_max":681,"o":"m 392 732 q 531 702 469 732 q 632 619 593 673 q 681 491 672 565 l 567 491 q 539 560 561 528 q 479 610 516 591 q 393 628 442 628 q 243 562 301 628 q 185 358 185 495 q 239 159 185 233 q 395 84 292 84 q 481 103 444 84 q 540 154 517 122 q 568 222 562 185 l 680 222 q 631 97 671 149 q 530 15 592 44 q 392 -14 469 -14 q 221 28 296 -14 q 104 153 147 71 q 62 356 62 236 q 100 553 62 469 q 213 685 139 638 q 392 732 287 732 m 522 -178 q 501 -237 522 -214 q 446 -274 481 -261 q 372 -286 412 -286 q 301 -278 334 -286 q 240 -251 268 -269 l 261 -197 q 302 -220 279 -210 q 356 -230 326 -230 q 413 -217 394 -230 q 431 -179 431 -203 q 405 -134 431 -149 q 320 -118 379 -119 q 311 -116 313 -118 q 312 -109 310 -114 l 363 7 l 430 7 l 397 -77 q 472 -95 444 -79 q 510 -133 499 -110 q 522 -178 522 -156 z "},"ĉ":{"ha":749,"x_min":62,"x_max":681,"o":"m 392 732 q 531 702 469 732 q 632 619 593 673 q 681 491 672 565 l 567 491 q 539 560 561 528 q 479 610 516 591 q 393 628 442 628 q 243 562 301 628 q 185 358 185 495 q 239 159 185 233 q 395 84 292 84 q 481 103 444 84 q 540 154 517 122 q 568 222 562 185 l 680 222 q 631 97 671 149 q 530 15 592 44 q 392 -14 469 -14 q 221 28 296 -14 q 104 153 147 71 q 62 356 62 236 q 100 553 62 469 q 213 685 139 638 q 392 732 287 732 m 490 802 l 392 892 l 288 802 l 174 802 l 348 958 l 440 958 l 610 802 l 490 802 z "},"ċ":{"ha":749,"x_min":62,"x_max":681,"o":"m 392 732 q 531 702 469 732 q 632 619 593 673 q 681 491 672 565 l 567 491 q 539 560 561 528 q 479 610 516 591 q 393 628 442 628 q 243 562 301 628 q 185 358 185 495 q 239 159 185 233 q 395 84 292 84 q 481 103 444 84 q 540 154 517 122 q 568 222 562 185 l 680 222 q 631 97 671 149 q 530 15 592 44 q 392 -14 469 -14 q 221 28 296 -14 q 104 153 147 71 q 62 356 62 236 q 100 553 62 469 q 213 685 139 638 q 392 732 287 732 m 328 844 l 328 969 l 458 969 l 458 844 l 328 844 z "},"d":{"ha":826,"x_min":62,"x_max":720,"o":"m 365 -14 q 144 82 226 -14 q 62 362 62 178 q 95 557 62 474 q 193 686 128 640 q 356 732 258 732 q 447 719 407 732 q 516 685 487 706 q 564 644 545 665 q 591 604 582 622 l 591 1032 l 720 1032 l 720 0 l 622 0 l 608 147 q 586 99 601 126 q 543 45 571 72 q 472 3 515 19 q 365 -14 428 -14 m 388 85 q 544 151 497 85 q 591 368 591 217 q 570 511 590 452 q 506 601 549 570 q 391 632 463 632 q 247 569 302 632 q 191 368 191 506 q 241 159 191 233 q 388 85 292 85 z "},"ð":{"ha":808,"x_min":62,"x_max":747,"o":"m 406 -14 q 225 34 302 -14 q 105 166 147 83 q 62 351 62 249 q 87 507 62 438 q 158 623 113 575 q 264 697 203 672 q 395 723 325 723 q 510 705 463 723 q 591 657 558 688 q 644 588 624 627 q 585 753 624 683 q 497 872 546 823 q 398 954 448 921 q 308 1010 349 988 l 459 1028 q 602 916 545 980 q 690 770 658 851 q 735 588 722 688 q 745 368 747 488 q 702 171 744 257 q 585 35 660 85 q 406 -14 509 -14 m 402 88 q 517 126 472 88 q 586 227 563 165 q 608 359 608 290 q 587 503 608 442 q 520 598 565 565 q 402 631 474 631 q 285 595 332 631 q 214 498 238 559 q 190 359 190 436 q 214 228 190 290 q 285 126 238 165 q 402 88 332 88 m 279 758 l 279 855 l 712 1011 l 712 915 l 279 758 z "},"ď":{"ha":835,"x_min":62,"x_max":919,"o":"m 365 -14 q 144 82 226 -14 q 62 362 62 178 q 95 557 62 474 q 193 686 128 640 q 356 732 258 732 q 447 719 407 732 q 516 685 487 706 q 564 644 545 665 q 591 604 582 622 l 591 1032 l 720 1032 l 720 0 l 622 0 l 608 147 q 586 99 601 126 q 543 45 571 72 q 472 3 515 19 q 365 -14 428 -14 m 388 85 q 544 151 497 85 q 591 368 591 217 q 570 511 590 452 q 506 601 549 570 q 391 632 463 632 q 247 569 302 632 q 191 368 191 506 q 241 159 191 233 q 388 85 292 85 m 799 741 l 851 869 l 813 876 l 813 1010 l 919 1010 l 919 869 l 865 741 l 799 741 z "},"đ":{"ha":857,"x_min":62,"x_max":815,"o":"m 815 908 l 815 827 l 386 827 l 386 908 l 815 908 m 365 -14 q 144 82 226 -14 q 62 362 62 178 q 95 557 62 474 q 193 686 128 640 q 356 732 258 732 q 447 719 407 732 q 516 685 487 706 q 564 644 545 665 q 591 604 582 622 l 591 1032 l 720 1032 l 720 0 l 622 0 l 608 147 q 586 99 601 126 q 543 45 571 72 q 472 3 515 19 q 365 -14 428 -14 m 388 85 q 544 151 497 85 q 591 368 591 217 q 570 511 590 452 q 506 601 549 570 q 391 632 463 632 q 247 569 302 632 q 191 368 191 506 q 241 159 191 233 q 388 85 292 85 z "},"ḍ":{"ha":826,"x_min":62,"x_max":720,"o":"m 365 -14 q 144 82 226 -14 q 62 362 62 178 q 95 557 62 474 q 193 686 128 640 q 356 732 258 732 q 447 719 407 732 q 516 685 487 706 q 564 644 545 665 q 591 604 582 622 l 591 1032 l 720 1032 l 720 0 l 622 0 l 608 147 q 586 99 601 126 q 543 45 571 72 q 472 3 515 19 q 365 -14 428 -14 m 388 85 q 544 151 497 85 q 591 368 591 217 q 570 511 590 452 q 506 601 549 570 q 391 632 463 632 q 247 569 302 632 q 191 368 191 506 q 241 159 191 233 q 388 85 292 85 z "},"e":{"ha":782,"x_min":68,"x_max":713,"o":"m 198 329 q 220 206 198 261 q 289 118 243 151 q 405 85 335 85 q 523 117 474 85 q 587 210 573 149 l 708 210 q 650 87 695 137 q 541 11 605 37 q 408 -14 477 -14 q 231 30 307 -14 q 111 156 154 74 q 68 352 68 238 q 107 551 68 465 q 220 684 146 636 q 398 732 294 732 q 569 688 499 732 q 676 565 640 644 q 713 376 713 485 l 713 329 l 198 329 m 199 416 l 589 416 q 568 527 589 478 q 505 606 547 577 q 397 635 462 635 q 286 602 330 635 q 220 520 242 570 q 199 416 198 469 z "},"é":{"ha":782,"x_min":68,"x_max":713,"o":"m 198 329 q 220 206 198 261 q 289 118 243 151 q 405 85 335 85 q 523 117 474 85 q 587 210 573 149 l 708 210 q 650 87 695 137 q 541 11 605 37 q 408 -14 477 -14 q 231 30 307 -14 q 111 156 154 74 q 68 352 68 238 q 107 551 68 465 q 220 684 146 636 q 398 732 294 732 q 569 688 499 732 q 676 565 640 644 q 713 376 713 485 l 713 329 l 198 329 m 199 416 l 589 416 q 568 527 589 478 q 505 606 547 577 q 397 635 462 635 q 286 602 330 635 q 220 520 242 570 q 199 416 198 469 m 490 1004 l 635 1004 l 446 802 l 347 802 l 490 1004 z "},"ĕ":{"ha":782,"x_min":68,"x_max":713,"o":"m 198 329 q 220 206 198 261 q 289 118 243 151 q 405 85 335 85 q 523 117 474 85 q 587 210 573 149 l 708 210 q 650 87 695 137 q 541 11 605 37 q 408 -14 477 -14 q 231 30 307 -14 q 111 156 154 74 q 68 352 68 238 q 107 551 68 465 q 220 684 146 636 q 398 732 294 732 q 569 688 499 732 q 676 565 640 644 q 713 376 713 485 l 713 329 l 198 329 m 199 416 l 589 416 q 568 527 589 478 q 505 606 547 577 q 397 635 462 635 q 286 602 330 635 q 220 520 242 570 q 199 416 198 469 m 609 951 q 568 870 598 903 q 495 818 539 836 q 397 800 451 800 q 302 817 346 800 q 228 868 258 835 q 188 951 199 902 l 281 951 q 323 896 292 917 q 397 875 353 875 q 473 896 441 875 q 516 951 504 917 l 609 951 z "},"ě":{"ha":782,"x_min":68,"x_max":713,"o":"m 198 329 q 220 206 198 261 q 289 118 243 151 q 405 85 335 85 q 523 117 474 85 q 587 210 573 149 l 708 210 q 650 87 695 137 q 541 11 605 37 q 408 -14 477 -14 q 231 30 307 -14 q 111 156 154 74 q 68 352 68 238 q 107 551 68 465 q 220 684 146 636 q 398 732 294 732 q 569 688 499 732 q 676 565 640 644 q 713 376 713 485 l 713 329 l 198 329 m 199 416 l 589 416 q 568 527 589 478 q 505 606 547 577 q 397 635 462 635 q 286 602 330 635 q 220 520 242 570 q 199 416 198 469 m 351 802 l 176 958 l 292 958 l 397 865 l 494 958 l 615 958 l 444 802 l 351 802 z "},"ê":{"ha":782,"x_min":68,"x_max":713,"o":"m 198 329 q 220 206 198 261 q 289 118 243 151 q 405 85 335 85 q 523 117 474 85 q 587 210 573 149 l 708 210 q 650 87 695 137 q 541 11 605 37 q 408 -14 477 -14 q 231 30 307 -14 q 111 156 154 74 q 68 352 68 238 q 107 551 68 465 q 220 684 146 636 q 398 732 294 732 q 569 688 499 732 q 676 565 640 644 q 713 376 713 485 l 713 329 l 198 329 m 199 416 l 589 416 q 568 527 589 478 q 505 606 547 577 q 397 635 462 635 q 286 602 330 635 q 220 520 242 570 q 199 416 198 469 m 495 802 l 398 892 l 293 802 l 179 802 l 353 958 l 445 958 l 616 802 l 495 802 z "},"ế":{"ha":782,"x_min":68,"x_max":747,"o":"m 198 329 q 220 206 198 261 q 289 118 243 151 q 405 85 335 85 q 523 117 474 85 q 587 210 573 149 l 708 210 q 650 87 695 137 q 541 11 605 37 q 408 -14 477 -14 q 231 30 307 -14 q 111 156 154 74 q 68 352 68 238 q 107 551 68 465 q 220 684 146 636 q 398 732 294 732 q 569 688 499 732 q 676 565 640 644 q 713 376 713 485 l 713 329 l 198 329 m 199 416 l 589 416 q 568 527 589 478 q 505 606 547 577 q 397 635 462 635 q 286 602 330 635 q 220 520 242 570 q 199 416 198 469 z "},"ệ":{"ha":782,"x_min":68,"x_max":713,"o":"m 198 329 q 220 206 198 261 q 289 118 243 151 q 405 85 335 85 q 523 117 474 85 q 587 210 573 149 l 708 210 q 650 87 695 137 q 541 11 605 37 q 408 -14 477 -14 q 231 30 307 -14 q 111 156 154 74 q 68 352 68 238 q 107 551 68 465 q 220 684 146 636 q 398 732 294 732 q 569 688 499 732 q 676 565 640 644 q 713 376 713 485 l 713 329 l 198 329 m 199 416 l 589 416 q 568 527 589 478 q 505 606 547 577 q 397 635 462 635 q 286 602 330 635 q 220 520 242 570 q 199 416 198 469 m 495 802 l 398 892 l 293 802 l 179 802 l 353 958 l 445 958 l 616 802 l 495 802 z "},"ề":{"ha":782,"x_min":68,"x_max":713,"o":"m 198 329 q 220 206 198 261 q 289 118 243 151 q 405 85 335 85 q 523 117 474 85 q 587 210 573 149 l 708 210 q 650 87 695 137 q 541 11 605 37 q 408 -14 477 -14 q 231 30 307 -14 q 111 156 154 74 q 68 352 68 238 q 107 551 68 465 q 220 684 146 636 q 398 732 294 732 q 569 688 499 732 q 676 565 640 644 q 713 376 713 485 l 713 329 l 198 329 m 199 416 l 589 416 q 568 527 589 478 q 505 606 547 577 q 397 635 462 635 q 286 602 330 635 q 220 520 242 570 q 199 416 198 469 z "},"ể":{"ha":782,"x_min":68,"x_max":713,"o":"m 198 329 q 220 206 198 261 q 289 118 243 151 q 405 85 335 85 q 523 117 474 85 q 587 210 573 149 l 708 210 q 650 87 695 137 q 541 11 605 37 q 408 -14 477 -14 q 231 30 307 -14 q 111 156 154 74 q 68 352 68 238 q 107 551 68 465 q 220 684 146 636 q 398 732 294 732 q 569 688 499 732 q 676 565 640 644 q 713 376 713 485 l 713 329 l 198 329 m 199 416 l 589 416 q 568 527 589 478 q 505 606 547 577 q 397 635 462 635 q 286 602 330 635 q 220 520 242 570 q 199 416 198 469 z "},"ễ":{"ha":782,"x_min":68,"x_max":713,"o":"m 198 329 q 220 206 198 261 q 289 118 243 151 q 405 85 335 85 q 523 117 474 85 q 587 210 573 149 l 708 210 q 650 87 695 137 q 541 11 605 37 q 408 -14 477 -14 q 231 30 307 -14 q 111 156 154 74 q 68 352 68 238 q 107 551 68 465 q 220 684 146 636 q 398 732 294 732 q 569 688 499 732 q 676 565 640 644 q 713 376 713 485 l 713 329 l 198 329 m 199 416 l 589 416 q 568 527 589 478 q 505 606 547 577 q 397 635 462 635 q 286 602 330 635 q 220 520 242 570 q 199 416 198 469 z "},"ȅ":{"ha":782,"x_min":49,"x_max":713,"o":"m 198 329 q 220 206 198 261 q 289 118 243 151 q 405 85 335 85 q 523 117 474 85 q 587 210 573 149 l 708 210 q 650 87 695 137 q 541 11 605 37 q 408 -14 477 -14 q 231 30 307 -14 q 111 156 154 74 q 68 352 68 238 q 107 551 68 465 q 220 684 146 636 q 398 732 294 732 q 569 688 499 732 q 676 565 640 644 q 713 376 713 485 l 713 329 l 198 329 m 199 416 l 589 416 q 568 527 589 478 q 505 606 547 577 q 397 635 462 635 q 286 602 330 635 q 220 520 242 570 q 199 416 198 469 m 408 1004 l 544 802 l 444 802 l 274 1004 l 408 1004 m 186 1004 l 350 802 l 251 802 l 49 1004 l 186 1004 z "},"ë":{"ha":782,"x_min":68,"x_max":713,"o":"m 198 329 q 220 206 198 261 q 289 118 243 151 q 405 85 335 85 q 523 117 474 85 q 587 210 573 149 l 708 210 q 650 87 695 137 q 541 11 605 37 q 408 -14 477 -14 q 231 30 307 -14 q 111 156 154 74 q 68 352 68 238 q 107 551 68 465 q 220 684 146 636 q 398 732 294 732 q 569 688 499 732 q 676 565 640 644 q 713 376 713 485 l 713 329 l 198 329 m 199 416 l 589 416 q 568 527 589 478 q 505 606 547 577 q 397 635 462 635 q 286 602 330 635 q 220 520 242 570 q 199 416 198 469 m 470 844 l 471 969 l 597 969 l 596 844 l 470 844 m 200 844 l 201 969 l 326 969 l 326 844 l 200 844 z "},"ė":{"ha":782,"x_min":68,"x_max":713,"o":"m 198 329 q 220 206 198 261 q 289 118 243 151 q 405 85 335 85 q 523 117 474 85 q 587 210 573 149 l 708 210 q 650 87 695 137 q 541 11 605 37 q 408 -14 477 -14 q 231 30 307 -14 q 111 156 154 74 q 68 352 68 238 q 107 551 68 465 q 220 684 146 636 q 398 732 294 732 q 569 688 499 732 q 676 565 640 644 q 713 376 713 485 l 713 329 l 198 329 m 199 416 l 589 416 q 568 527 589 478 q 505 606 547 577 q 397 635 462 635 q 286 602 330 635 q 220 520 242 570 q 199 416 198 469 m 333 844 l 333 969 l 463 969 l 463 844 l 333 844 z "},"ẹ":{"ha":782,"x_min":68,"x_max":713,"o":"m 198 329 q 220 206 198 261 q 289 118 243 151 q 405 85 335 85 q 523 117 474 85 q 587 210 573 149 l 708 210 q 650 87 695 137 q 541 11 605 37 q 408 -14 477 -14 q 231 30 307 -14 q 111 156 154 74 q 68 352 68 238 q 107 551 68 465 q 220 684 146 636 q 398 732 294 732 q 569 688 499 732 q 676 565 640 644 q 713 376 713 485 l 713 329 l 198 329 m 199 416 l 589 416 q 568 527 589 478 q 505 606 547 577 q 397 635 462 635 q 286 602 330 635 q 220 520 242 570 q 199 416 198 469 z "},"è":{"ha":782,"x_min":68,"x_max":713,"o":"m 198 329 q 220 206 198 261 q 289 118 243 151 q 405 85 335 85 q 523 117 474 85 q 587 210 573 149 l 708 210 q 650 87 695 137 q 541 11 605 37 q 408 -14 477 -14 q 231 30 307 -14 q 111 156 154 74 q 68 352 68 238 q 107 551 68 465 q 220 684 146 636 q 398 732 294 732 q 569 688 499 732 q 676 565 640 644 q 713 376 713 485 l 713 329 l 198 329 m 199 416 l 589 416 q 568 527 589 478 q 505 606 547 577 q 397 635 462 635 q 286 602 330 635 q 220 520 242 570 q 199 416 198 469 z "},"ẻ":{"ha":782,"x_min":68,"x_max":713,"o":"m 198 329 q 220 206 198 261 q 289 118 243 151 q 405 85 335 85 q 523 117 474 85 q 587 210 573 149 l 708 210 q 650 87 695 137 q 541 11 605 37 q 408 -14 477 -14 q 231 30 307 -14 q 111 156 154 74 q 68 352 68 238 q 107 551 68 465 q 220 684 146 636 q 398 732 294 732 q 569 688 499 732 q 676 565 640 644 q 713 376 713 485 l 713 329 l 198 329 m 199 416 l 589 416 q 568 527 589 478 q 505 606 547 577 q 397 635 462 635 q 286 602 330 635 q 220 520 242 570 q 199 416 198 469 m 303 1013 l 341 954 q 398 974 369 973 q 442 951 428 974 q 444 902 456 928 q 402 858 432 877 l 440 800 q 519 888 501 838 q 502 992 537 939 q 418 1043 474 1036 q 303 1013 362 1051 z "},"ȇ":{"ha":782,"x_min":68,"x_max":713,"o":"m 198 329 q 220 206 198 261 q 289 118 243 151 q 405 85 335 85 q 523 117 474 85 q 587 210 573 149 l 708 210 q 650 87 695 137 q 541 11 605 37 q 408 -14 477 -14 q 231 30 307 -14 q 111 156 154 74 q 68 352 68 238 q 107 551 68 465 q 220 684 146 636 q 398 732 294 732 q 569 688 499 732 q 676 565 640 644 q 713 376 713 485 l 713 329 l 198 329 m 199 416 l 589 416 q 568 527 589 478 q 505 606 547 577 q 397 635 462 635 q 286 602 330 635 q 220 520 242 570 q 199 416 198 469 z "},"ē":{"ha":782,"x_min":68,"x_max":713,"o":"m 198 329 q 220 206 198 261 q 289 118 243 151 q 405 85 335 85 q 523 117 474 85 q 587 210 573 149 l 708 210 q 650 87 695 137 q 541 11 605 37 q 408 -14 477 -14 q 231 30 307 -14 q 111 156 154 74 q 68 352 68 238 q 107 551 68 465 q 220 684 146 636 q 398 732 294 732 q 569 688 499 732 q 676 565 640 644 q 713 376 713 485 l 713 329 l 198 329 m 199 416 l 589 416 q 568 527 589 478 q 505 606 547 577 q 397 635 462 635 q 286 602 330 635 q 220 520 242 570 q 199 416 198 469 m 606 948 l 606 858 l 191 858 l 191 948 l 606 948 z "},"ę":{"ha":782,"x_min":68,"x_max":713,"o":"m 198 329 q 220 206 198 261 q 289 118 243 151 q 405 85 335 85 q 523 117 474 85 q 587 210 573 149 l 708 210 q 650 87 695 137 q 541 11 605 37 q 408 -14 477 -14 q 231 30 307 -14 q 111 156 154 74 q 68 352 68 238 q 107 551 68 465 q 220 684 146 636 q 398 732 294 732 q 569 688 499 732 q 676 565 640 644 q 713 376 713 485 l 713 329 l 198 329 m 199 416 l 589 416 q 568 527 589 478 q 505 606 547 577 q 397 635 462 635 q 286 602 330 635 q 220 520 242 570 q 199 416 198 469 m 324 -108 q 353 -34 324 -67 q 466 26 383 -1 l 559 17 q 458 -37 489 -12 q 427 -97 427 -63 q 442 -135 427 -122 q 491 -148 457 -148 q 550 -139 524 -148 q 590 -122 576 -131 l 590 -190 q 538 -209 574 -200 q 461 -218 502 -218 q 359 -189 394 -218 q 324 -108 324 -159 z "},"ẽ":{"ha":782,"x_min":68,"x_max":713,"o":"m 198 329 q 220 206 198 261 q 289 118 243 151 q 405 85 335 85 q 523 117 474 85 q 587 210 573 149 l 708 210 q 650 87 695 137 q 541 11 605 37 q 408 -14 477 -14 q 231 30 307 -14 q 111 156 154 74 q 68 352 68 238 q 107 551 68 465 q 220 684 146 636 q 398 732 294 732 q 569 688 499 732 q 676 565 640 644 q 713 376 713 485 l 713 329 l 198 329 m 199 416 l 589 416 q 568 527 589 478 q 505 606 547 577 q 397 635 462 635 q 286 602 330 635 q 220 520 242 570 q 199 416 198 469 m 609 890 q 562 864 591 877 q 490 850 533 850 q 424 859 452 850 q 370 877 397 868 q 313 886 344 886 q 258 875 278 886 q 215 847 237 863 l 191 923 q 241 960 215 944 q 307 975 267 975 q 371 965 341 975 q 430 946 401 956 q 490 936 459 936 q 544 948 521 936 q 587 975 567 959 l 609 890 z "},"ə":{"ha":782,"x_min":69,"x_max":713,"o":"m 584 389 q 561 512 584 457 q 493 600 539 567 q 377 633 447 633 q 259 601 308 633 q 195 508 209 569 l 74 508 q 132 631 87 581 q 241 707 177 681 q 374 732 305 732 q 551 688 475 732 q 671 563 628 644 q 714 366 714 481 q 675 167 714 253 q 562 34 636 82 q 384 -14 488 -14 q 213 30 283 -14 q 106 153 142 74 q 69 342 69 233 l 69 389 l 584 389 m 583 302 l 193 302 q 214 191 193 240 q 277 112 235 141 q 385 83 320 83 q 496 116 452 83 q 562 198 540 148 q 583 302 584 249 z "},"f":{"ha":564,"x_min":57,"x_max":519,"o":"m 512 718 l 512 624 l 338 624 l 338 0 l 208 0 l 208 624 l 57 624 l 57 718 l 208 718 l 208 829 q 252 959 208 915 q 383 1004 296 1004 l 518 1004 l 519 913 l 411 913 q 351 890 367 913 q 335 818 335 866 l 335 718 l 512 718 z "},"g":{"ha":863,"x_min":51,"x_max":808,"o":"m 409 -237 q 145 -189 240 -237 q 51 -49 51 -140 q 69 18 51 -10 q 113 63 88 45 q 159 92 138 81 q 187 108 181 103 q 157 125 175 115 q 126 153 140 135 q 113 198 113 170 q 145 260 113 232 q 240 303 177 289 q 141 388 176 335 q 106 502 106 440 q 143 623 106 572 q 251 702 181 674 q 418 729 322 729 q 536 713 488 729 q 625 667 584 697 q 660 682 636 672 q 713 703 684 692 q 768 726 742 715 q 808 742 793 737 l 808 624 l 682 600 q 699 551 692 578 q 706 502 706 525 q 673 388 706 439 q 573 306 640 336 q 406 275 506 275 q 385 275 398 275 q 363 276 372 276 q 262 260 290 274 q 234 228 234 246 q 265 201 234 208 q 372 188 297 193 q 439 184 399 186 q 527 178 478 182 q 701 121 640 172 q 763 -16 763 70 q 675 -176 763 -114 q 409 -237 588 -237 m 432 -155 q 584 -125 531 -155 q 637 -35 637 -95 q 605 36 637 8 q 506 67 572 63 l 305 81 q 249 67 278 82 q 199 26 219 52 q 178 -34 178 -1 q 241 -123 178 -91 q 432 -155 303 -155 m 410 358 q 535 394 488 358 q 583 501 583 430 q 535 612 583 574 q 410 650 488 650 q 283 611 331 650 q 235 501 235 573 q 281 395 235 433 q 410 358 326 358 z "},"ğ":{"ha":863,"x_min":51,"x_max":808,"o":"m 409 -237 q 145 -189 240 -237 q 51 -49 51 -140 q 69 18 51 -10 q 113 63 88 45 q 159 92 138 81 q 187 108 181 103 q 157 125 175 115 q 126 153 140 135 q 113 198 113 170 q 145 260 113 232 q 240 303 177 289 q 141 388 176 335 q 106 502 106 440 q 143 623 106 572 q 251 702 181 674 q 418 729 322 729 q 536 713 488 729 q 625 667 584 697 q 660 682 636 672 q 713 703 684 692 q 768 726 742 715 q 808 742 793 737 l 808 624 l 682 600 q 699 551 692 578 q 706 502 706 525 q 673 388 706 439 q 573 306 640 336 q 406 275 506 275 q 385 275 398 275 q 363 276 372 276 q 262 260 290 274 q 234 228 234 246 q 265 201 234 208 q 372 188 297 193 q 439 184 399 186 q 527 178 478 182 q 701 121 640 172 q 763 -16 763 70 q 675 -176 763 -114 q 409 -237 588 -237 m 432 -155 q 584 -125 531 -155 q 637 -35 637 -95 q 605 36 637 8 q 506 67 572 63 l 305 81 q 249 67 278 82 q 199 26 219 52 q 178 -34 178 -1 q 241 -123 178 -91 q 432 -155 303 -155 m 410 358 q 535 394 488 358 q 583 501 583 430 q 535 612 583 574 q 410 650 488 650 q 283 611 331 650 q 235 501 235 573 q 281 395 235 433 q 410 358 326 358 m 626 951 q 586 870 615 903 q 512 818 556 836 q 415 800 468 800 q 319 817 363 800 q 246 868 276 835 q 205 951 216 902 l 299 951 q 340 896 310 917 q 415 875 370 875 q 490 896 458 875 q 533 951 522 917 l 626 951 z "},"ĝ":{"ha":863,"x_min":51,"x_max":808,"o":"m 409 -237 q 145 -189 240 -237 q 51 -49 51 -140 q 69 18 51 -10 q 113 63 88 45 q 159 92 138 81 q 187 108 181 103 q 157 125 175 115 q 126 153 140 135 q 113 198 113 170 q 145 260 113 232 q 240 303 177 289 q 141 388 176 335 q 106 502 106 440 q 143 623 106 572 q 251 702 181 674 q 418 729 322 729 q 536 713 488 729 q 625 667 584 697 q 660 682 636 672 q 713 703 684 692 q 768 726 742 715 q 808 742 793 737 l 808 624 l 682 600 q 699 551 692 578 q 706 502 706 525 q 673 388 706 439 q 573 306 640 336 q 406 275 506 275 q 385 275 398 275 q 363 276 372 276 q 262 260 290 274 q 234 228 234 246 q 265 201 234 208 q 372 188 297 193 q 439 184 399 186 q 527 178 478 182 q 701 121 640 172 q 763 -16 763 70 q 675 -176 763 -114 q 409 -237 588 -237 m 432 -155 q 584 -125 531 -155 q 637 -35 637 -95 q 605 36 637 8 q 506 67 572 63 l 305 81 q 249 67 278 82 q 199 26 219 52 q 178 -34 178 -1 q 241 -123 178 -91 q 432 -155 303 -155 m 410 358 q 535 394 488 358 q 583 501 583 430 q 535 612 583 574 q 410 650 488 650 q 283 611 331 650 q 235 501 235 573 q 281 395 235 433 q 410 358 326 358 m 513 802 l 415 892 l 310 802 l 197 802 l 371 958 l 463 958 l 633 802 l 513 802 z "},"ģ":{"ha":863,"x_min":51,"x_max":808,"o":"m 328 840 l 328 969 l 391 1069 l 451 1069 l 390 962 l 440 962 l 440 840 l 328 840 m 409 -237 q 145 -189 240 -237 q 51 -49 51 -140 q 69 18 51 -10 q 113 63 88 45 q 159 92 138 81 q 187 108 181 103 q 157 125 175 115 q 126 153 140 135 q 113 198 113 170 q 145 260 113 232 q 240 303 177 289 q 141 388 176 335 q 106 502 106 440 q 143 623 106 572 q 251 702 181 674 q 418 729 322 729 q 536 713 488 729 q 625 667 584 697 q 660 682 636 672 q 713 703 684 692 q 768 726 742 715 q 808 742 793 737 l 808 624 l 682 600 q 699 551 692 578 q 706 502 706 525 q 673 388 706 439 q 573 306 640 336 q 406 275 506 275 q 385 275 398 275 q 363 276 372 276 q 262 260 290 274 q 234 228 234 246 q 265 201 234 208 q 372 188 297 193 q 439 184 399 186 q 527 178 478 182 q 701 121 640 172 q 763 -16 763 70 q 675 -176 763 -114 q 409 -237 588 -237 m 432 -155 q 584 -125 531 -155 q 637 -35 637 -95 q 605 36 637 8 q 506 67 572 63 l 305 81 q 249 67 278 82 q 199 26 219 52 q 178 -34 178 -1 q 241 -123 178 -91 q 432 -155 303 -155 m 410 358 q 535 394 488 358 q 583 501 583 430 q 535 612 583 574 q 410 650 488 650 q 283 611 331 650 q 235 501 235 573 q 281 395 235 433 q 410 358 326 358 z "},"ġ":{"ha":863,"x_min":51,"x_max":808,"o":"m 409 -237 q 145 -189 240 -237 q 51 -49 51 -140 q 69 18 51 -10 q 113 63 88 45 q 159 92 138 81 q 187 108 181 103 q 157 125 175 115 q 126 153 140 135 q 113 198 113 170 q 145 260 113 232 q 240 303 177 289 q 141 388 176 335 q 106 502 106 440 q 143 623 106 572 q 251 702 181 674 q 418 729 322 729 q 536 713 488 729 q 625 667 584 697 q 660 682 636 672 q 713 703 684 692 q 768 726 742 715 q 808 742 793 737 l 808 624 l 682 600 q 699 551 692 578 q 706 502 706 525 q 673 388 706 439 q 573 306 640 336 q 406 275 506 275 q 385 275 398 275 q 363 276 372 276 q 262 260 290 274 q 234 228 234 246 q 265 201 234 208 q 372 188 297 193 q 439 184 399 186 q 527 178 478 182 q 701 121 640 172 q 763 -16 763 70 q 675 -176 763 -114 q 409 -237 588 -237 m 432 -155 q 584 -125 531 -155 q 637 -35 637 -95 q 605 36 637 8 q 506 67 572 63 l 305 81 q 249 67 278 82 q 199 26 219 52 q 178 -34 178 -1 q 241 -123 178 -91 q 432 -155 303 -155 m 410 358 q 535 394 488 358 q 583 501 583 430 q 535 612 583 574 q 410 650 488 650 q 283 611 331 650 q 235 501 235 573 q 281 395 235 433 q 410 358 326 358 m 351 844 l 351 969 l 481 969 l 481 844 l 351 844 z "},"h":{"ha":801,"x_min":106,"x_max":706,"o":"m 106 0 l 106 1032 l 231 1032 l 231 613 q 280 668 249 642 q 354 711 310 694 q 456 727 398 727 q 583 701 526 727 q 673 627 640 675 q 706 513 706 579 l 706 0 l 578 0 l 578 488 q 534 587 578 552 q 419 622 490 622 q 328 607 371 622 q 260 559 286 591 q 234 479 234 528 l 234 0 l 106 0 z "},"ħ":{"ha":817,"x_min":28,"x_max":724,"o":"m 457 908 l 457 827 l 28 827 l 28 908 l 457 908 m 123 0 l 123 1032 l 249 1032 l 249 613 q 297 668 267 642 q 372 711 328 694 q 473 727 415 727 q 599 701 542 727 q 690 627 656 675 q 724 513 724 579 l 724 0 l 594 0 l 594 488 q 550 587 594 552 q 435 622 506 622 q 345 607 388 622 q 277 559 303 591 q 251 479 251 528 l 251 0 l 123 0 z "},"ĥ":{"ha":801,"x_min":-51,"x_max":706,"o":"m 106 0 l 106 1032 l 231 1032 l 231 613 q 280 668 249 642 q 354 711 310 694 q 456 727 398 727 q 583 701 526 727 q 673 627 640 675 q 706 513 706 579 l 706 0 l 578 0 l 578 488 q 534 587 578 552 q 419 622 490 622 q 328 607 371 622 q 260 559 286 591 q 234 479 234 528 l 234 0 l 106 0 m 265 1088 l 167 1178 l 63 1088 l -51 1088 l 123 1244 l 215 1244 l 385 1088 l 265 1088 z "},"ḥ":{"ha":801,"x_min":106,"x_max":706,"o":"m 106 0 l 106 1032 l 231 1032 l 231 613 q 280 668 249 642 q 354 711 310 694 q 456 727 398 727 q 583 701 526 727 q 673 627 640 675 q 706 513 706 579 l 706 0 l 578 0 l 578 488 q 534 587 578 552 q 419 622 490 622 q 328 607 371 622 q 260 559 286 591 q 234 479 234 528 l 234 0 l 106 0 z "},"i":{"ha":365,"x_min":117,"x_max":248,"o":"m 245 718 l 245 0 l 121 0 l 121 718 l 245 718 m 248 1003 l 248 870 l 117 870 l 117 1003 l 248 1003 z "},"ı":{"ha":357,"x_min":117,"x_max":240,"o":"m 240 718 l 240 0 l 117 0 l 117 718 l 240 718 z "},"í":{"ha":357,"x_min":117,"x_max":367,"o":"m 240 718 l 240 0 l 117 0 l 117 718 l 240 718 m 226 1004 l 367 1004 l 226 802 l 128 803 l 226 1004 z "},"ĭ":{"ha":357,"x_min":-31,"x_max":390,"o":"m 240 718 l 240 0 l 117 0 l 117 718 l 240 718 m 390 951 q 350 870 379 903 q 276 818 320 836 q 178 800 232 800 q 83 817 127 800 q 10 868 40 835 q -31 951 -20 902 l 63 951 q 104 896 74 917 q 178 875 134 875 q 254 896 222 875 q 297 951 285 917 l 390 951 z "},"î":{"ha":357,"x_min":-40,"x_max":397,"o":"m 240 718 l 240 0 l 117 0 l 117 718 l 240 718 m 276 802 l 179 892 l 74 802 l -40 802 l 135 958 l 226 958 l 397 802 l 276 802 z "},"ȉ":{"ha":357,"x_min":-170,"x_max":325,"o":"m 240 718 l 240 0 l 117 0 l 117 718 l 240 718 m 189 1004 l 325 802 l 226 802 l 55 1004 l 189 1004 m -33 1004 l 131 802 l 32 802 l -170 1004 l -33 1004 z "},"ï":{"ha":435,"x_min":19,"x_max":415,"o":"m 279 718 l 279 0 l 156 0 l 156 718 l 279 718 m 289 843 l 290 967 l 415 967 l 415 843 l 289 843 m 19 843 l 19 967 l 145 967 l 144 843 l 19 843 z "},"ị":{"ha":365,"x_min":117,"x_max":248,"o":"m 245 718 l 245 0 l 121 0 l 121 718 l 245 718 m 248 1003 l 248 870 l 117 870 l 117 1003 l 248 1003 z "},"ì":{"ha":357,"x_min":-61,"x_max":240,"o":"m 240 718 l 240 0 l 117 0 l 117 718 l 240 718 z "},"ỉ":{"ha":357,"x_min":84,"x_max":318,"o":"m 240 718 l 240 0 l 117 0 l 117 718 l 240 718 m 84 1013 l 122 954 q 180 974 150 973 q 223 951 209 974 q 225 902 238 928 q 183 858 213 877 l 221 800 q 300 888 283 838 q 283 992 318 939 q 199 1043 255 1036 q 84 1013 143 1051 z "},"ȋ":{"ha":409,"x_min":-10,"x_max":412,"o":"m 267 718 l 267 0 l 144 0 l 144 718 l 267 718 z "},"ī":{"ha":412,"x_min":-2,"x_max":412,"o":"m 269 718 l 269 0 l 145 0 l 145 718 l 269 718 m 413 948 l 413 858 l -2 858 l -2 948 l 413 948 z "},"į":{"ha":357,"x_min":5,"x_max":272,"o":"m 240 718 l 240 0 l 117 0 l 117 718 l 240 718 m 115 844 l 115 969 l 244 969 l 244 844 l 115 844 m 4 -120 q 34 -45 4 -78 q 147 14 63 -12 l 240 6 q 139 -49 169 -24 q 108 -109 108 -75 q 123 -147 108 -134 q 172 -160 138 -160 q 231 -151 205 -160 q 271 -134 256 -142 l 271 -201 q 218 -221 254 -212 q 142 -230 183 -230 q 39 -200 74 -230 q 4 -120 4 -171 z "},"ĩ":{"ha":405,"x_min":-7,"x_max":411,"o":"m 263 718 l 263 0 l 140 0 l 140 718 l 263 718 m 411 890 q 364 864 393 877 q 292 850 335 850 q 226 859 254 850 q 173 877 199 868 q 115 886 147 886 q 60 875 81 886 q 17 847 39 863 l -7 923 q 43 960 17 944 q 109 975 69 975 q 173 965 143 975 q 232 946 203 956 q 292 936 261 936 q 346 948 323 936 q 389 975 369 959 l 411 890 z "},"j":{"ha":365,"x_min":-32,"x_max":258,"o":"m 255 -32 q 211 -182 255 -133 q 58 -231 168 -231 q -16 -222 -1 -231 q -32 -214 -32 -214 l -32 -128 l 39 -125 q 107 -99 88 -122 q 126 -28 126 -77 l 126 718 l 255 718 l 255 -32 m 258 1003 l 258 870 l 122 870 l 122 1003 l 258 1003 z "},"ȷ":{"ha":362,"x_min":-32,"x_max":256,"o":"m 256 -32 q 211 -182 256 -133 q 58 -231 167 -231 q -16 -225 0 -231 q -32 -214 -32 -219 l -32 -128 l 40 -125 q 108 -99 88 -122 q 128 -28 128 -77 l 128 718 l 256 718 l 256 -32 z "},"ĵ":{"ha":362,"x_min":-32,"x_max":409,"o":"m 256 -32 q 211 -182 256 -133 q 58 -231 167 -231 q -16 -225 0 -231 q -32 -214 -32 -219 l -32 -128 l 40 -125 q 108 -99 88 -122 q 128 -28 128 -77 l 128 718 l 256 718 l 256 -32 m 288 802 l 191 892 l 86 802 l -28 802 l 147 958 l 238 958 l 409 802 l 288 802 z "},"k":{"ha":783,"x_min":106,"x_max":737,"o":"m 737 0 l 601 0 l 376 360 l 234 214 l 234 0 l 106 0 l 106 1032 l 234 1032 l 234 359 l 572 718 l 719 718 l 460 444 l 737 0 z "},"ķ":{"ha":783,"x_min":106,"x_max":737,"o":"m 737 0 l 601 0 l 376 360 l 234 214 l 234 0 l 106 0 l 106 1032 l 234 1032 l 234 359 l 572 718 l 719 718 l 460 444 l 737 0 m 311 -264 l 368 -178 l 324 -174 l 324 -67 l 454 -67 l 454 -157 l 364 -264 l 311 -264 z "},"ĸ":{"ha":798,"x_min":106,"x_max":751,"o":"m 751 0 l 601 0 l 391 371 l 234 214 l 234 0 l 106 0 l 106 718 l 234 718 l 234 349 l 586 718 l 727 718 l 479 467 l 751 0 z "},"l":{"ha":413,"x_min":106,"x_max":352,"o":"m 288 -9 q 193 7 229 -9 q 139 50 158 23 q 113 112 119 77 q 106 185 106 147 l 106 1032 l 233 1032 l 233 197 q 254 116 233 143 q 313 86 275 89 l 352 85 l 352 2 q 319 -6 336 -3 q 288 -9 301 -9 z "},"ĺ":{"ha":413,"x_min":106,"x_max":404,"o":"m 288 -9 q 193 7 229 -9 q 139 50 158 23 q 113 112 119 77 q 106 185 106 147 l 106 1032 l 233 1032 l 233 197 q 254 116 233 143 q 313 86 275 89 l 352 85 l 352 2 q 319 -6 336 -3 q 288 -9 301 -9 m 258 1346 l 403 1346 l 214 1144 l 115 1144 l 258 1346 z "},"ľ":{"ha":413,"x_min":106,"x_max":431,"o":"m 288 -9 q 193 7 229 -9 q 139 50 158 23 q 113 112 119 77 q 106 185 106 147 l 106 1032 l 233 1032 l 233 197 q 254 116 233 143 q 313 86 275 89 l 352 85 l 352 2 q 319 -6 336 -3 q 288 -9 301 -9 m 310 738 l 363 865 l 324 872 l 324 1007 l 431 1007 l 431 865 l 376 738 l 310 738 z "},"ļ":{"ha":413,"x_min":106,"x_max":352,"o":"m 288 -9 q 193 7 229 -9 q 139 50 158 23 q 113 112 119 77 q 106 185 106 147 l 106 1032 l 233 1032 l 233 197 q 254 116 233 143 q 313 86 275 89 l 352 85 l 352 2 q 319 -6 336 -3 q 288 -9 301 -9 m 105 -263 l 162 -177 l 118 -174 l 118 -67 l 248 -67 l 248 -156 l 158 -263 l 105 -263 z "},"ŀ":{"ha":485,"x_min":106,"x_max":510,"o":"m 288 -9 q 193 7 229 -9 q 139 50 158 23 q 113 112 119 77 q 106 185 106 147 l 106 1032 l 233 1032 l 233 197 q 254 116 233 143 q 313 86 275 89 l 352 85 l 352 2 q 319 -6 336 -3 q 288 -9 301 -9 m 510 473 l 510 319 l 351 319 l 351 473 l 510 473 z "},"ł":{"ha":483,"x_min":49,"x_max":410,"o":"m 410 633 l 410 520 l 49 223 l 49 341 l 410 633 m 340 -9 q 246 7 282 -9 q 191 50 210 23 q 165 112 172 77 q 158 185 158 147 l 158 1032 l 285 1032 l 285 197 q 306 116 285 143 q 365 86 327 89 l 404 85 l 404 2 q 371 -6 388 -3 q 340 -9 353 -9 z "},"m":{"ha":1201,"x_min":106,"x_max":1107,"o":"m 106 0 l 106 718 l 230 718 l 230 614 q 312 697 260 661 q 447 732 364 732 q 527 719 486 732 q 601 679 567 706 q 654 615 635 653 q 744 700 688 667 q 873 732 801 732 q 951 720 910 732 q 1027 680 992 709 q 1085 600 1063 651 q 1107 469 1107 549 l 1107 0 l 978 0 l 978 457 q 957 558 978 522 q 902 608 936 594 q 831 623 869 623 q 760 610 797 623 q 696 565 722 597 q 669 480 669 534 l 669 0 l 542 0 l 542 494 q 519 565 542 537 q 463 608 497 594 q 396 623 429 623 q 322 608 359 623 q 259 562 285 594 q 234 480 234 531 l 234 0 l 106 0 z "},"n":{"ha":801,"x_min":106,"x_max":707,"o":"m 106 0 l 106 718 l 231 718 l 231 614 q 279 670 248 644 q 354 713 310 697 q 456 728 398 728 q 581 701 524 728 q 673 617 638 674 q 707 469 707 560 l 707 0 l 578 0 l 578 457 q 534 582 578 541 q 420 622 490 622 q 329 607 372 622 q 260 559 287 591 q 234 480 234 528 l 234 0 l 106 0 z "},"ń":{"ha":801,"x_min":106,"x_max":707,"o":"m 106 0 l 106 718 l 231 718 l 231 614 q 279 670 248 644 q 354 713 310 697 q 456 728 398 728 q 581 701 524 728 q 673 617 638 674 q 707 469 707 560 l 707 0 l 578 0 l 578 457 q 534 582 578 541 q 420 622 490 622 q 329 607 372 622 q 260 559 287 591 q 234 480 234 528 l 234 0 l 106 0 m 507 1004 l 653 1004 l 463 802 l 364 802 l 507 1004 z "},"ň":{"ha":801,"x_min":106,"x_max":707,"o":"m 106 0 l 106 718 l 231 718 l 231 614 q 279 670 248 644 q 354 713 310 697 q 456 728 398 728 q 581 701 524 728 q 673 617 638 674 q 707 469 707 560 l 707 0 l 578 0 l 578 457 q 534 582 578 541 q 420 622 490 622 q 329 607 372 622 q 260 559 287 591 q 234 480 234 528 l 234 0 l 106 0 m 370 802 l 195 958 l 310 958 l 415 865 l 513 958 l 633 958 l 463 802 l 370 802 z "},"ņ":{"ha":801,"x_min":106,"x_max":707,"o":"m 106 0 l 106 718 l 231 718 l 231 614 q 279 670 248 644 q 354 713 310 697 q 456 728 398 728 q 581 701 524 728 q 673 617 638 674 q 707 469 707 560 l 707 0 l 578 0 l 578 457 q 534 582 578 541 q 420 622 490 622 q 329 607 372 622 q 260 559 287 591 q 234 480 234 528 l 234 0 l 106 0 m 331 -264 l 388 -178 l 344 -174 l 344 -67 l 474 -67 l 474 -157 l 383 -264 l 331 -264 z "},"ṅ":{"ha":801,"x_min":106,"x_max":707,"o":"m 106 0 l 106 718 l 231 718 l 231 614 q 279 670 248 644 q 354 713 310 697 q 456 728 398 728 q 581 701 524 728 q 673 617 638 674 q 707 469 707 560 l 707 0 l 578 0 l 578 457 q 534 582 578 541 q 420 622 490 622 q 329 607 372 622 q 260 559 287 591 q 234 480 234 528 l 234 0 l 106 0 m 350 844 l 350 969 l 480 969 l 480 844 l 350 844 z "},"ŋ":{"ha":813,"x_min":106,"x_max":708,"o":"m 512 -231 q 444 -226 457 -231 q 431 -216 431 -222 l 431 -130 l 491 -128 q 558 -102 538 -124 q 578 -29 578 -81 l 578 493 q 547 594 578 556 q 442 633 515 633 q 336 604 388 633 q 235 525 285 575 l 235 0 l 106 0 l 108 718 l 231 718 l 231 608 q 323 680 281 653 q 405 719 365 707 q 490 732 445 732 q 650 675 592 732 q 708 525 708 618 l 708 -23 q 685 -135 708 -88 q 619 -206 663 -181 q 512 -231 575 -231 z "},"ñ":{"ha":801,"x_min":106,"x_max":707,"o":"m 106 0 l 106 718 l 231 718 l 231 614 q 279 670 248 644 q 354 713 310 697 q 456 728 398 728 q 581 701 524 728 q 673 617 638 674 q 707 469 707 560 l 707 0 l 578 0 l 578 457 q 534 582 578 541 q 420 622 490 622 q 329 607 372 622 q 260 559 287 591 q 234 480 234 528 l 234 0 l 106 0 m 626 890 q 580 864 608 877 q 507 850 551 850 q 442 859 469 850 q 388 877 414 868 q 330 886 362 886 q 275 875 296 886 q 233 847 254 863 l 208 923 q 258 960 232 944 q 324 975 285 975 q 389 965 358 975 q 448 946 419 956 q 507 936 476 936 q 561 948 538 936 q 604 975 584 959 l 626 890 z "},"o":{"ha":781,"x_min":62,"x_max":718,"o":"m 392 -14 q 218 29 292 -14 q 103 154 144 72 q 62 356 62 237 q 100 553 62 469 q 212 685 138 638 q 392 732 286 732 q 564 689 491 732 q 678 561 638 645 q 718 356 718 477 q 681 163 718 247 q 571 33 644 80 q 392 -14 499 -14 m 392 88 q 501 120 456 88 q 568 214 545 153 q 591 359 591 275 q 571 498 591 436 q 507 595 551 559 q 392 631 463 631 q 281 599 326 631 q 213 506 236 567 q 190 359 190 444 q 210 222 190 283 q 276 124 231 160 q 392 88 320 88 z "},"ó":{"ha":781,"x_min":62,"x_max":718,"o":"m 392 -14 q 218 29 292 -14 q 103 154 144 72 q 62 356 62 237 q 100 553 62 469 q 212 685 138 638 q 392 732 286 732 q 564 689 491 732 q 678 561 638 645 q 718 356 718 477 q 681 163 718 247 q 571 33 644 80 q 392 -14 499 -14 m 392 88 q 501 120 456 88 q 568 214 545 153 q 591 359 591 275 q 571 498 591 436 q 507 595 551 559 q 392 631 463 631 q 281 599 326 631 q 213 506 236 567 q 190 359 190 444 q 210 222 190 283 q 276 124 231 160 q 392 88 320 88 m 482 1004 l 628 1004 l 438 802 l 339 802 l 482 1004 z "},"ŏ":{"ha":781,"x_min":62,"x_max":718,"o":"m 392 -14 q 218 29 292 -14 q 103 154 144 72 q 62 356 62 237 q 100 553 62 469 q 212 685 138 638 q 392 732 286 732 q 564 689 491 732 q 678 561 638 645 q 718 356 718 477 q 681 163 718 247 q 571 33 644 80 q 392 -14 499 -14 m 392 88 q 501 120 456 88 q 568 214 545 153 q 591 359 591 275 q 571 498 591 436 q 507 595 551 559 q 392 631 463 631 q 281 599 326 631 q 213 506 236 567 q 190 359 190 444 q 210 222 190 283 q 276 124 231 160 q 392 88 320 88 m 601 951 q 561 870 590 903 q 487 818 531 836 q 390 800 443 800 q 294 817 338 800 q 221 868 251 835 q 180 951 191 902 l 274 951 q 315 896 285 917 q 390 875 345 875 q 465 896 433 875 q 508 951 497 917 l 601 951 z "},"ô":{"ha":781,"x_min":62,"x_max":718,"o":"m 392 -14 q 218 29 292 -14 q 103 154 144 72 q 62 356 62 237 q 100 553 62 469 q 212 685 138 638 q 392 732 286 732 q 564 689 491 732 q 678 561 638 645 q 718 356 718 477 q 681 163 718 247 q 571 33 644 80 q 392 -14 499 -14 m 392 88 q 501 120 456 88 q 568 214 545 153 q 591 359 591 275 q 571 498 591 436 q 507 595 551 559 q 392 631 463 631 q 281 599 326 631 q 213 506 236 567 q 190 359 190 444 q 210 222 190 283 q 276 124 231 160 q 392 88 320 88 m 488 802 l 390 892 l 285 802 l 172 802 l 346 958 l 438 958 l 608 802 l 488 802 z "},"ố":{"ha":781,"x_min":62,"x_max":740,"o":"m 392 -14 q 218 29 292 -14 q 103 154 144 72 q 62 356 62 237 q 100 553 62 469 q 212 685 138 638 q 392 732 286 732 q 564 689 491 732 q 678 561 638 645 q 718 356 718 477 q 681 163 718 247 q 571 33 644 80 q 392 -14 499 -14 m 392 88 q 501 120 456 88 q 568 214 545 153 q 591 359 591 275 q 571 498 591 436 q 507 595 551 559 q 392 631 463 631 q 281 599 326 631 q 213 506 236 567 q 190 359 190 444 q 210 222 190 283 q 276 124 231 160 q 392 88 320 88 z "},"ộ":{"ha":781,"x_min":62,"x_max":718,"o":"m 392 -14 q 218 29 292 -14 q 103 154 144 72 q 62 356 62 237 q 100 553 62 469 q 212 685 138 638 q 392 732 286 732 q 564 689 491 732 q 678 561 638 645 q 718 356 718 477 q 681 163 718 247 q 571 33 644 80 q 392 -14 499 -14 m 392 88 q 501 120 456 88 q 568 214 545 153 q 591 359 591 275 q 571 498 591 436 q 507 595 551 559 q 392 631 463 631 q 281 599 326 631 q 213 506 236 567 q 190 359 190 444 q 210 222 190 283 q 276 124 231 160 q 392 88 320 88 m 488 802 l 390 892 l 285 802 l 172 802 l 346 958 l 438 958 l 608 802 l 488 802 z "},"ồ":{"ha":781,"x_min":62,"x_max":718,"o":"m 392 -14 q 218 29 292 -14 q 103 154 144 72 q 62 356 62 237 q 100 553 62 469 q 212 685 138 638 q 392 732 286 732 q 564 689 491 732 q 678 561 638 645 q 718 356 718 477 q 681 163 718 247 q 571 33 644 80 q 392 -14 499 -14 m 392 88 q 501 120 456 88 q 568 214 545 153 q 591 359 591 275 q 571 498 591 436 q 507 595 551 559 q 392 631 463 631 q 281 599 326 631 q 213 506 236 567 q 190 359 190 444 q 210 222 190 283 q 276 124 231 160 q 392 88 320 88 z "},"ổ":{"ha":781,"x_min":62,"x_max":718,"o":"m 392 -14 q 218 29 292 -14 q 103 154 144 72 q 62 356 62 237 q 100 553 62 469 q 212 685 138 638 q 392 732 286 732 q 564 689 491 732 q 678 561 638 645 q 718 356 718 477 q 681 163 718 247 q 571 33 644 80 q 392 -14 499 -14 m 392 88 q 501 120 456 88 q 568 214 545 153 q 591 359 591 275 q 571 498 591 436 q 507 595 551 559 q 392 631 463 631 q 281 599 326 631 q 213 506 236 567 q 190 359 190 444 q 210 222 190 283 q 276 124 231 160 q 392 88 320 88 z "},"ỗ":{"ha":781,"x_min":62,"x_max":718,"o":"m 392 -14 q 218 29 292 -14 q 103 154 144 72 q 62 356 62 237 q 100 553 62 469 q 212 685 138 638 q 392 732 286 732 q 564 689 491 732 q 678 561 638 645 q 718 356 718 477 q 681 163 718 247 q 571 33 644 80 q 392 -14 499 -14 m 392 88 q 501 120 456 88 q 568 214 545 153 q 591 359 591 275 q 571 498 591 436 q 507 595 551 559 q 392 631 463 631 q 281 599 326 631 q 213 506 236 567 q 190 359 190 444 q 210 222 190 283 q 276 124 231 160 q 392 88 320 88 z "},"ȍ":{"ha":781,"x_min":41,"x_max":718,"o":"m 392 -14 q 218 29 292 -14 q 103 154 144 72 q 62 356 62 237 q 100 553 62 469 q 212 685 138 638 q 392 732 286 732 q 564 689 491 732 q 678 561 638 645 q 718 356 718 477 q 681 163 718 247 q 571 33 644 80 q 392 -14 499 -14 m 392 88 q 501 120 456 88 q 568 214 545 153 q 591 359 591 275 q 571 498 591 436 q 507 595 551 559 q 392 631 463 631 q 281 599 326 631 q 213 506 236 567 q 190 359 190 444 q 210 222 190 283 q 276 124 231 160 q 392 88 320 88 m 400 1004 l 536 802 l 437 802 l 266 1004 l 400 1004 m 178 1004 l 342 802 l 243 802 l 41 1004 l 178 1004 z "},"ö":{"ha":781,"x_min":62,"x_max":718,"o":"m 392 -14 q 218 29 292 -14 q 103 154 144 72 q 62 356 62 237 q 100 553 62 469 q 212 685 138 638 q 392 732 286 732 q 564 689 491 732 q 678 561 638 645 q 718 356 718 477 q 681 163 718 247 q 571 33 644 80 q 392 -14 499 -14 m 392 88 q 501 120 456 88 q 568 214 545 153 q 591 359 591 275 q 571 498 591 436 q 507 595 551 559 q 392 631 463 631 q 281 599 326 631 q 213 506 236 567 q 190 359 190 444 q 210 222 190 283 q 276 124 231 160 q 392 88 320 88 m 463 844 l 463 969 l 589 969 l 588 844 l 463 844 m 192 844 l 193 969 l 319 969 l 318 844 l 192 844 z "},"ọ":{"ha":781,"x_min":62,"x_max":718,"o":"m 392 -14 q 218 29 292 -14 q 103 154 144 72 q 62 356 62 237 q 100 553 62 469 q 212 685 138 638 q 392 732 286 732 q 564 689 491 732 q 678 561 638 645 q 718 356 718 477 q 681 163 718 247 q 571 33 644 80 q 392 -14 499 -14 m 392 88 q 501 120 456 88 q 568 214 545 153 q 591 359 591 275 q 571 498 591 436 q 507 595 551 559 q 392 631 463 631 q 281 599 326 631 q 213 506 236 567 q 190 359 190 444 q 210 222 190 283 q 276 124 231 160 q 392 88 320 88 z "},"ò":{"ha":781,"x_min":62,"x_max":718,"o":"m 392 -14 q 218 29 292 -14 q 103 154 144 72 q 62 356 62 237 q 100 553 62 469 q 212 685 138 638 q 392 732 286 732 q 564 689 491 732 q 678 561 638 645 q 718 356 718 477 q 681 163 718 247 q 571 33 644 80 q 392 -14 499 -14 m 392 88 q 501 120 456 88 q 568 214 545 153 q 591 359 591 275 q 571 498 591 436 q 507 595 551 559 q 392 631 463 631 q 281 599 326 631 q 213 506 236 567 q 190 359 190 444 q 210 222 190 283 q 276 124 231 160 q 392 88 320 88 z "},"ỏ":{"ha":781,"x_min":62,"x_max":718,"o":"m 392 -14 q 218 29 292 -14 q 103 154 144 72 q 62 356 62 237 q 100 553 62 469 q 212 685 138 638 q 392 732 286 732 q 564 689 491 732 q 678 561 638 645 q 718 356 718 477 q 681 163 718 247 q 571 33 644 80 q 392 -14 499 -14 m 392 88 q 501 120 456 88 q 568 214 545 153 q 591 359 591 275 q 571 498 591 436 q 507 595 551 559 q 392 631 463 631 q 281 599 326 631 q 213 506 236 567 q 190 359 190 444 q 210 222 190 283 q 276 124 231 160 q 392 88 320 88 m 295 1013 l 333 954 q 391 974 361 973 q 434 951 420 974 q 436 902 449 928 q 394 858 424 877 l 432 800 q 511 888 494 838 q 494 992 529 939 q 410 1043 466 1036 q 295 1013 354 1051 z "},"ơ":{"ha":835,"x_min":62,"x_max":824,"o":"m 392 -14 q 218 29 292 -14 q 103 154 144 72 q 62 356 62 237 q 100 553 62 469 q 212 685 138 638 q 392 732 286 732 q 564 689 491 732 q 678 561 638 645 q 718 356 718 477 q 681 163 718 247 q 571 33 644 80 q 392 -14 499 -14 m 392 88 q 501 120 456 88 q 568 214 545 153 q 591 359 591 275 q 571 498 591 436 q 507 595 551 559 q 392 631 463 631 q 281 599 326 631 q 213 506 236 567 q 190 359 190 444 q 210 222 190 283 q 276 124 231 160 q 392 88 320 88 m 824 774 q 802 641 824 691 q 731 572 780 591 q 600 561 682 552 l 600 634 q 654 638 632 633 q 690 657 676 643 q 712 699 704 672 q 722 774 719 727 l 824 774 z "},"ớ":{"ha":835,"x_min":62,"x_max":824,"o":"m 485 1004 l 631 1004 l 441 802 l 342 802 l 485 1004 m 392 -14 q 218 29 292 -14 q 103 154 144 72 q 62 356 62 237 q 100 553 62 469 q 212 685 138 638 q 392 732 286 732 q 564 689 491 732 q 678 561 638 645 q 718 356 718 477 q 681 163 718 247 q 571 33 644 80 q 392 -14 499 -14 m 392 88 q 501 120 456 88 q 568 214 545 153 q 591 359 591 275 q 571 498 591 436 q 507 595 551 559 q 392 631 463 631 q 281 599 326 631 q 213 506 236 567 q 190 359 190 444 q 210 222 190 283 q 276 124 231 160 q 392 88 320 88 m 824 774 q 802 641 824 691 q 731 572 780 591 q 600 561 682 552 l 600 634 q 654 638 632 633 q 690 657 676 643 q 712 699 704 672 q 722 774 719 727 l 824 774 z "},"ợ":{"ha":835,"x_min":62,"x_max":824,"o":"m 392 -14 q 218 29 292 -14 q 103 154 144 72 q 62 356 62 237 q 100 553 62 469 q 212 685 138 638 q 392 732 286 732 q 564 689 491 732 q 678 561 638 645 q 718 356 718 477 q 681 163 718 247 q 571 33 644 80 q 392 -14 499 -14 m 392 88 q 501 120 456 88 q 568 214 545 153 q 591 359 591 275 q 571 498 591 436 q 507 595 551 559 q 392 631 463 631 q 281 599 326 631 q 213 506 236 567 q 190 359 190 444 q 210 222 190 283 q 276 124 231 160 q 392 88 320 88 m 824 774 q 802 641 824 691 q 731 572 780 591 q 600 561 682 552 l 600 634 q 654 638 632 633 q 690 657 676 643 q 712 699 704 672 q 722 774 719 727 l 824 774 z "},"ờ":{"ha":835,"x_min":62,"x_max":824,"o":"m 392 -14 q 218 29 292 -14 q 103 154 144 72 q 62 356 62 237 q 100 553 62 469 q 212 685 138 638 q 392 732 286 732 q 564 689 491 732 q 678 561 638 645 q 718 356 718 477 q 681 163 718 247 q 571 33 644 80 q 392 -14 499 -14 m 392 88 q 501 120 456 88 q 568 214 545 153 q 591 359 591 275 q 571 498 591 436 q 507 595 551 559 q 392 631 463 631 q 281 599 326 631 q 213 506 236 567 q 190 359 190 444 q 210 222 190 283 q 276 124 231 160 q 392 88 320 88 m 824 774 q 802 641 824 691 q 731 572 780 591 q 600 561 682 552 l 600 634 q 654 638 632 633 q 690 657 676 643 q 712 699 704 672 q 722 774 719 727 l 824 774 z "},"ở":{"ha":835,"x_min":62,"x_max":824,"o":"m 294 1013 l 333 954 q 390 974 360 973 q 433 951 419 974 q 436 902 448 928 q 394 858 424 877 l 431 800 q 511 888 493 838 q 494 992 528 939 q 409 1043 465 1036 q 294 1013 353 1051 m 392 -14 q 218 29 292 -14 q 103 154 144 72 q 62 356 62 237 q 100 553 62 469 q 212 685 138 638 q 392 732 286 732 q 564 689 491 732 q 678 561 638 645 q 718 356 718 477 q 681 163 718 247 q 571 33 644 80 q 392 -14 499 -14 m 392 88 q 501 120 456 88 q 568 214 545 153 q 591 359 591 275 q 571 498 591 436 q 507 595 551 559 q 392 631 463 631 q 281 599 326 631 q 213 506 236 567 q 190 359 190 444 q 210 222 190 283 q 276 124 231 160 q 392 88 320 88 m 824 774 q 802 641 824 691 q 731 572 780 591 q 600 561 682 552 l 600 634 q 654 638 632 633 q 690 657 676 643 q 712 699 704 672 q 722 774 719 727 l 824 774 z "},"ỡ":{"ha":835,"x_min":62,"x_max":824,"o":"m 601 890 q 555 864 583 877 q 482 850 526 850 q 417 859 444 850 q 363 877 389 868 q 305 886 337 886 q 250 875 271 886 q 208 847 229 863 l 183 923 q 233 960 207 944 q 299 975 260 975 q 364 965 333 975 q 423 946 394 956 q 482 936 451 936 q 536 948 513 936 q 579 975 559 959 l 601 890 m 392 -14 q 218 29 292 -14 q 103 154 144 72 q 62 356 62 237 q 100 553 62 469 q 212 685 138 638 q 392 732 286 732 q 564 689 491 732 q 678 561 638 645 q 718 356 718 477 q 681 163 718 247 q 571 33 644 80 q 392 -14 499 -14 m 392 88 q 501 120 456 88 q 568 214 545 153 q 591 359 591 275 q 571 498 591 436 q 507 595 551 559 q 392 631 463 631 q 281 599 326 631 q 213 506 236 567 q 190 359 190 444 q 210 222 190 283 q 276 124 231 160 q 392 88 320 88 m 824 774 q 802 641 824 691 q 731 572 780 591 q 600 561 682 552 l 600 634 q 654 638 632 633 q 690 657 676 643 q 712 699 704 672 q 722 774 719 727 l 824 774 z "},"ő":{"ha":781,"x_min":62,"x_max":743,"o":"m 392 -14 q 218 29 292 -14 q 103 154 144 72 q 62 356 62 237 q 100 553 62 469 q 212 685 138 638 q 392 732 286 732 q 564 689 491 732 q 678 561 638 645 q 718 356 718 477 q 681 163 718 247 q 571 33 644 80 q 392 -14 499 -14 m 392 88 q 501 120 456 88 q 568 214 545 153 q 591 359 591 275 q 571 498 591 436 q 507 595 551 559 q 392 631 463 631 q 281 599 326 631 q 213 506 236 567 q 190 359 190 444 q 210 222 190 283 q 276 124 231 160 q 392 88 320 88 z "},"ȏ":{"ha":781,"x_min":62,"x_max":718,"o":"m 392 -14 q 218 29 292 -14 q 103 154 144 72 q 62 356 62 237 q 100 553 62 469 q 212 685 138 638 q 392 732 286 732 q 564 689 491 732 q 678 561 638 645 q 718 356 718 477 q 681 163 718 247 q 571 33 644 80 q 392 -14 499 -14 m 392 88 q 501 120 456 88 q 568 214 545 153 q 591 359 591 275 q 571 498 591 436 q 507 595 551 559 q 392 631 463 631 q 281 599 326 631 q 213 506 236 567 q 190 359 190 444 q 210 222 190 283 q 276 124 231 160 q 392 88 320 88 z "},"ō":{"ha":781,"x_min":62,"x_max":718,"o":"m 392 -14 q 218 29 292 -14 q 103 154 144 72 q 62 356 62 237 q 100 553 62 469 q 212 685 138 638 q 392 732 286 732 q 564 689 491 732 q 678 561 638 645 q 718 356 718 477 q 681 163 718 247 q 571 33 644 80 q 392 -14 499 -14 m 392 88 q 501 120 456 88 q 568 214 545 153 q 591 359 591 275 q 571 498 591 436 q 507 595 551 559 q 392 631 463 631 q 281 599 326 631 q 213 506 236 567 q 190 359 190 444 q 210 222 190 283 q 276 124 231 160 q 392 88 320 88 m 598 948 l 598 858 l 183 858 l 183 948 l 598 948 z "},"ǫ":{"ha":781,"x_min":62,"x_max":718,"o":"m 392 -14 q 218 29 292 -14 q 103 154 144 72 q 62 356 62 237 q 100 553 62 469 q 212 685 138 638 q 392 732 286 732 q 564 689 491 732 q 678 561 638 645 q 718 356 718 477 q 681 163 718 247 q 571 33 644 80 q 392 -14 499 -14 m 392 88 q 501 120 456 88 q 568 214 545 153 q 591 359 591 275 q 571 498 591 436 q 507 595 551 559 q 392 631 463 631 q 281 599 326 631 q 213 506 236 567 q 190 359 190 444 q 210 222 190 283 q 276 124 231 160 q 392 88 320 88 m 264 -123 q 293 -48 264 -81 q 406 11 323 -15 l 499 3 q 398 -52 429 -26 q 367 -112 367 -78 q 382 -150 367 -137 q 431 -162 397 -162 q 490 -154 465 -162 q 531 -137 516 -145 l 531 -204 q 478 -224 514 -215 q 401 -233 442 -233 q 299 -203 334 -233 q 264 -123 264 -174 z "},"ø":{"ha":814,"x_min":28,"x_max":781,"o":"m 781 669 l 81 -8 l 28 47 l 729 724 l 781 669 m 405 -14 q 232 29 306 -14 q 117 154 158 72 q 76 356 76 237 q 114 553 76 469 q 226 685 152 638 q 406 732 299 732 q 578 689 505 732 q 691 561 651 645 q 732 356 732 477 q 695 163 732 247 q 585 33 658 80 q 405 -14 513 -14 m 406 88 q 515 120 470 88 q 582 214 559 153 q 605 359 605 275 q 584 498 605 436 q 520 595 564 559 q 406 631 476 631 q 295 599 340 631 q 227 506 250 567 q 203 359 203 444 q 224 222 203 283 q 289 124 244 160 q 406 88 334 88 z "},"ǿ":{"ha":814,"x_min":28,"x_max":781,"o":"m 781 669 l 81 -8 l 28 47 l 729 724 l 781 669 m 405 -14 q 232 29 306 -14 q 117 154 158 72 q 76 356 76 237 q 114 553 76 469 q 226 685 152 638 q 406 732 299 732 q 578 689 505 732 q 691 561 651 645 q 732 356 732 477 q 695 163 732 247 q 585 33 658 80 q 405 -14 513 -14 m 406 88 q 515 120 470 88 q 582 214 559 153 q 605 359 605 275 q 584 498 605 436 q 520 595 564 559 q 406 631 476 631 q 295 599 340 631 q 227 506 250 567 q 203 359 203 444 q 224 222 203 283 q 289 124 244 160 q 406 88 334 88 m 497 1004 l 642 1004 l 453 802 l 353 802 l 497 1004 z "},"õ":{"ha":781,"x_min":62,"x_max":718,"o":"m 392 -14 q 218 29 292 -14 q 103 154 144 72 q 62 356 62 237 q 100 553 62 469 q 212 685 138 638 q 392 732 286 732 q 564 689 491 732 q 678 561 638 645 q 718 356 718 477 q 681 163 718 247 q 571 33 644 80 q 392 -14 499 -14 m 392 88 q 501 120 456 88 q 568 214 545 153 q 591 359 591 275 q 571 498 591 436 q 507 595 551 559 q 392 631 463 631 q 281 599 326 631 q 213 506 236 567 q 190 359 190 444 q 210 222 190 283 q 276 124 231 160 q 392 88 320 88 m 602 890 q 555 864 584 877 q 483 850 526 850 q 417 859 445 850 q 364 877 390 868 q 306 886 338 886 q 251 875 272 886 q 208 847 230 863 l 184 923 q 234 960 208 944 q 300 975 260 975 q 364 965 334 975 q 423 946 394 956 q 483 936 452 936 q 537 948 514 936 q 580 975 560 959 l 602 890 z "},"œ":{"ha":1311,"x_min":62,"x_max":1242,"o":"m 392 -14 q 218 29 292 -14 q 103 154 144 72 q 62 356 62 237 q 100 553 62 469 q 212 685 138 638 q 392 732 286 732 q 564 689 491 732 q 678 561 638 645 q 718 356 718 477 q 681 163 718 247 q 571 33 644 80 q 392 -14 499 -14 m 392 88 q 501 120 456 88 q 568 214 545 153 q 591 359 591 275 q 571 498 591 436 q 507 595 551 559 q 392 631 463 631 q 281 599 326 631 q 213 506 236 567 q 190 359 190 444 q 210 222 190 283 q 276 124 231 160 q 392 88 320 88 m 727 329 q 750 206 727 261 q 818 118 772 151 q 934 85 865 85 q 1052 117 1003 85 q 1116 210 1102 149 l 1238 210 q 1179 87 1224 137 q 1070 11 1134 37 q 937 -14 1006 -14 q 760 30 836 -14 q 640 156 683 74 q 597 352 597 238 q 636 551 597 465 q 749 684 675 636 q 927 732 823 732 q 1099 688 1028 732 q 1205 565 1169 644 q 1242 376 1242 485 l 1242 329 l 727 329 m 728 416 l 1118 416 q 1097 527 1118 478 q 1034 606 1076 577 q 926 635 991 635 q 815 602 859 635 q 749 520 771 570 q 728 416 727 469 z "},"p":{"ha":825,"x_min":106,"x_max":763,"o":"m 106 -224 l 106 718 l 234 718 l 235 593 q 268 640 248 615 q 316 685 288 664 q 384 719 345 706 q 472 732 422 732 q 623 693 558 732 q 726 573 689 653 q 763 369 763 492 q 727 160 763 245 q 624 31 691 75 q 461 -14 556 -14 q 376 0 413 -14 q 311 35 339 13 q 266 82 284 57 q 235 130 247 107 l 235 -224 l 106 -224 m 437 86 q 582 154 526 86 q 638 365 638 222 q 587 560 638 488 q 437 632 535 632 q 285 558 337 632 q 234 365 234 484 q 257 224 234 288 q 325 124 280 161 q 437 86 370 86 z "},"þ":{"ha":817,"x_min":106,"x_max":754,"o":"m 233 1004 l 233 619 q 278 665 250 638 q 350 712 306 692 q 460 732 394 732 q 610 692 543 732 q 715 572 676 652 q 754 369 754 491 q 715 160 754 246 q 607 31 676 75 q 447 -14 538 -14 q 338 6 385 -14 q 256 55 290 25 q 239 64 243 66 q 234 46 234 63 l 234 -224 l 106 -224 l 106 1004 l 233 1004 m 234 163 q 315 100 272 124 q 408 76 357 76 q 520 109 472 76 q 595 206 568 141 q 623 367 623 270 q 595 525 623 465 q 519 613 567 585 q 415 641 472 641 q 321 618 362 641 q 257 561 281 595 q 234 492 234 526 l 234 163 z "},"q":{"ha":825,"x_min":62,"x_max":719,"o":"m 719 -224 l 590 -224 l 590 130 q 559 82 578 107 q 514 35 541 57 q 449 0 486 13 q 363 -14 412 -14 q 209 26 277 -14 q 101 151 140 66 q 62 369 62 235 q 95 565 62 483 q 194 689 129 646 q 353 732 260 732 q 441 719 403 732 q 508 685 479 706 q 557 640 538 664 q 589 593 577 615 l 591 718 l 719 718 l 719 -224 m 388 86 q 500 124 455 86 q 568 224 545 161 q 591 365 591 288 q 540 558 591 484 q 388 632 488 632 q 243 566 299 632 q 186 365 186 500 q 238 160 186 235 q 388 86 290 86 z "},"r":{"ha":538,"x_min":106,"x_max":496,"o":"m 106 0 l 106 718 l 228 718 l 228 580 q 279 665 247 631 q 354 715 312 699 q 441 732 396 732 q 472 730 457 732 q 496 723 488 728 l 496 599 q 469 605 485 603 q 442 607 453 607 q 361 602 399 610 q 295 574 324 594 q 250 523 267 555 q 234 447 234 492 l 234 0 l 106 0 z "},"ŕ":{"ha":538,"x_min":106,"x_max":531,"o":"m 106 0 l 106 718 l 228 718 l 228 580 q 279 665 247 631 q 354 715 312 699 q 441 732 396 732 q 472 730 457 732 q 496 723 488 728 l 496 599 q 469 605 485 603 q 442 607 453 607 q 361 602 399 610 q 295 574 324 594 q 250 523 267 555 q 234 447 234 492 l 234 0 l 106 0 m 385 1004 l 531 1004 l 341 802 l 242 802 l 385 1004 z "},"ř":{"ha":538,"x_min":73,"x_max":511,"o":"m 106 0 l 106 718 l 228 718 l 228 580 q 279 665 247 631 q 354 715 312 699 q 441 732 396 732 q 472 730 457 732 q 496 723 488 728 l 496 599 q 469 605 485 603 q 442 607 453 607 q 361 602 399 610 q 295 574 324 594 q 250 523 267 555 q 234 447 234 492 l 234 0 l 106 0 m 248 802 l 73 958 l 188 958 l 293 865 l 390 958 l 511 958 l 340 802 l 248 802 z "},"ŗ":{"ha":538,"x_min":92,"x_max":496,"o":"m 106 0 l 106 718 l 228 718 l 228 580 q 279 665 247 631 q 354 715 312 699 q 441 732 396 732 q 472 730 457 732 q 496 723 488 728 l 496 599 q 469 605 485 603 q 442 607 453 607 q 361 602 399 610 q 295 574 324 594 q 250 523 267 555 q 234 447 234 492 l 234 0 l 106 0 m 92 -264 l 149 -178 l 106 -174 l 106 -67 l 235 -67 l 235 -157 l 145 -264 l 92 -264 z "},"ȑ":{"ha":538,"x_min":-56,"x_max":496,"o":"m 106 0 l 106 718 l 228 718 l 228 580 q 279 665 247 631 q 354 715 312 699 q 441 732 396 732 q 472 730 457 732 q 496 723 488 728 l 496 599 q 469 605 485 603 q 442 607 453 607 q 361 602 399 610 q 295 574 324 594 q 250 523 267 555 q 234 447 234 492 l 234 0 l 106 0 m 303 1004 l 439 802 l 340 802 l 169 1004 l 303 1004 m 81 1004 l 245 802 l 146 802 l -56 1004 l 81 1004 z "},"ṛ":{"ha":538,"x_min":104,"x_max":496,"o":"m 106 0 l 106 718 l 228 718 l 228 580 q 279 665 247 631 q 354 715 312 699 q 441 732 396 732 q 472 730 457 732 q 496 723 488 728 l 496 599 q 469 605 485 603 q 442 607 453 607 q 361 602 399 610 q 295 574 324 594 q 250 523 267 555 q 234 447 234 492 l 234 0 l 106 0 z "},"ȓ":{"ha":538,"x_min":80,"x_max":501,"o":"m 106 0 l 106 718 l 228 718 l 228 580 q 279 665 247 631 q 354 715 312 699 q 441 732 396 732 q 472 730 457 732 q 496 723 488 728 l 496 599 q 469 605 485 603 q 442 607 453 607 q 361 602 399 610 q 295 574 324 594 q 250 523 267 555 q 234 447 234 492 l 234 0 l 106 0 z "},"s":{"ha":710,"x_min":62,"x_max":638,"o":"m 361 -14 q 222 9 286 -14 q 115 82 158 33 q 62 209 73 132 l 178 209 q 214 139 188 167 q 277 96 239 110 q 360 82 315 82 q 477 109 433 82 q 522 192 522 136 q 498 256 522 232 q 426 291 475 280 l 278 328 q 139 393 191 349 q 87 517 87 438 q 117 628 86 581 q 208 704 147 676 q 360 732 269 732 q 549 680 477 732 q 624 526 621 627 l 510 526 q 464 607 503 577 q 359 638 425 638 q 247 610 290 638 q 204 525 204 583 q 235 465 204 487 q 325 428 265 443 l 469 392 q 551 358 519 379 q 602 310 583 336 q 630 255 622 283 q 638 199 638 226 q 605 86 638 133 q 510 12 572 38 q 361 -14 449 -14 z "},"ś":{"ha":710,"x_min":62,"x_max":638,"o":"m 361 -14 q 222 9 286 -14 q 115 82 158 33 q 62 209 73 132 l 178 209 q 214 139 188 167 q 277 96 239 110 q 360 82 315 82 q 477 109 433 82 q 522 192 522 136 q 498 256 522 232 q 426 291 475 280 l 278 328 q 139 393 191 349 q 87 517 87 438 q 117 628 86 581 q 208 704 147 676 q 360 732 269 732 q 549 680 477 732 q 624 526 621 627 l 510 526 q 464 607 503 577 q 359 638 425 638 q 247 610 290 638 q 204 525 204 583 q 235 465 204 487 q 325 428 265 443 l 469 392 q 551 358 519 379 q 602 310 583 336 q 630 255 622 283 q 638 199 638 226 q 605 86 638 133 q 510 12 572 38 q 361 -14 449 -14 m 453 1004 l 599 1004 l 410 802 l 310 802 l 453 1004 z "},"š":{"ha":710,"x_min":62,"x_max":638,"o":"m 361 -14 q 222 9 286 -14 q 115 82 158 33 q 62 209 73 132 l 178 209 q 214 139 188 167 q 277 96 239 110 q 360 82 315 82 q 477 109 433 82 q 522 192 522 136 q 498 256 522 232 q 426 291 475 280 l 278 328 q 139 393 191 349 q 87 517 87 438 q 117 628 86 581 q 208 704 147 676 q 360 732 269 732 q 549 680 477 732 q 624 526 621 627 l 510 526 q 464 607 503 577 q 359 638 425 638 q 247 610 290 638 q 204 525 204 583 q 235 465 204 487 q 325 428 265 443 l 469 392 q 551 358 519 379 q 602 310 583 336 q 630 255 622 283 q 638 199 638 226 q 605 86 638 133 q 510 12 572 38 q 361 -14 449 -14 m 316 802 l 141 958 l 256 958 l 361 865 l 458 958 l 579 958 l 408 802 l 316 802 z "},"ş":{"ha":710,"x_min":62,"x_max":638,"o":"m 361 -14 q 222 9 286 -14 q 115 82 158 33 q 62 209 73 132 l 178 209 q 214 139 188 167 q 277 96 239 110 q 360 82 315 82 q 477 109 433 82 q 522 192 522 136 q 498 256 522 232 q 426 291 475 280 l 278 328 q 139 393 191 349 q 87 517 87 438 q 117 628 86 581 q 208 704 147 676 q 360 732 269 732 q 549 680 477 732 q 624 526 621 627 l 510 526 q 464 607 503 577 q 359 638 425 638 q 247 610 290 638 q 204 525 204 583 q 235 465 204 487 q 325 428 265 443 l 469 392 q 551 358 519 379 q 602 310 583 336 q 630 255 622 283 q 638 199 638 226 q 605 86 638 133 q 510 12 572 38 q 361 -14 449 -14 m 478 -178 q 458 -237 478 -214 q 403 -274 438 -261 q 328 -286 369 -286 q 258 -278 291 -286 q 197 -251 225 -269 l 218 -197 q 259 -220 236 -210 q 313 -230 283 -230 q 370 -217 351 -230 q 388 -179 388 -203 q 362 -134 388 -149 q 277 -118 336 -119 q 268 -116 270 -118 q 269 -109 267 -114 l 319 7 l 387 7 l 354 -77 q 429 -95 401 -79 q 467 -133 456 -110 q 478 -178 478 -156 z "},"ŝ":{"ha":710,"x_min":62,"x_max":638,"o":"m 361 -14 q 222 9 286 -14 q 115 82 158 33 q 62 209 73 132 l 178 209 q 214 139 188 167 q 277 96 239 110 q 360 82 315 82 q 477 109 433 82 q 522 192 522 136 q 498 256 522 232 q 426 291 475 280 l 278 328 q 139 393 191 349 q 87 517 87 438 q 117 628 86 581 q 208 704 147 676 q 360 732 269 732 q 549 680 477 732 q 624 526 621 627 l 510 526 q 464 607 503 577 q 359 638 425 638 q 247 610 290 638 q 204 525 204 583 q 235 465 204 487 q 325 428 265 443 l 469 392 q 551 358 519 379 q 602 310 583 336 q 630 255 622 283 q 638 199 638 226 q 605 86 638 133 q 510 12 572 38 q 361 -14 449 -14 m 458 802 l 361 892 l 256 802 l 142 802 l 317 958 l 408 958 l 579 802 l 458 802 z "},"ș":{"ha":710,"x_min":62,"x_max":638,"o":"m 361 -14 q 222 9 286 -14 q 115 82 158 33 q 62 209 73 132 l 178 209 q 214 139 188 167 q 277 96 239 110 q 360 82 315 82 q 477 109 433 82 q 522 192 522 136 q 498 256 522 232 q 426 291 475 280 l 278 328 q 139 393 191 349 q 87 517 87 438 q 117 628 86 581 q 208 704 147 676 q 360 732 269 732 q 549 680 477 732 q 624 526 621 627 l 510 526 q 464 607 503 577 q 359 638 425 638 q 247 610 290 638 q 204 525 204 583 q 235 465 204 487 q 325 428 265 443 l 469 392 q 551 358 519 379 q 602 310 583 336 q 630 255 622 283 q 638 199 638 226 q 605 86 638 133 q 510 12 572 38 q 361 -14 449 -14 m 273 -264 l 330 -178 l 286 -174 l 286 -67 l 416 -67 l 416 -157 l 326 -264 l 273 -264 z "},"ṣ":{"ha":710,"x_min":62,"x_max":638,"o":"m 361 -14 q 222 9 286 -14 q 115 82 158 33 q 62 209 73 132 l 178 209 q 214 139 188 167 q 277 96 239 110 q 360 82 315 82 q 477 109 433 82 q 522 192 522 136 q 498 256 522 232 q 426 291 475 280 l 278 328 q 139 393 191 349 q 87 517 87 438 q 117 628 86 581 q 208 704 147 676 q 360 732 269 732 q 549 680 477 732 q 624 526 621 627 l 510 526 q 464 607 503 577 q 359 638 425 638 q 247 610 290 638 q 204 525 204 583 q 235 465 204 487 q 325 428 265 443 l 469 392 q 551 358 519 379 q 602 310 583 336 q 630 255 622 283 q 638 199 638 226 q 605 86 638 133 q 510 12 572 38 q 361 -14 449 -14 z "},"ß":{"ha":830,"x_min":106,"x_max":757,"o":"m 419 1004 q 560 977 506 1004 q 639 907 614 951 q 664 812 664 863 q 642 726 664 760 q 583 668 621 692 q 497 622 546 644 q 439 586 456 599 q 422 549 422 572 q 438 515 422 525 q 495 491 454 504 q 582 456 536 475 q 667 408 627 437 q 732 334 706 378 q 757 224 757 290 q 721 93 757 147 q 623 13 685 40 q 483 -14 560 -14 q 380 -1 431 -14 q 293 34 328 13 l 338 119 q 398 90 367 103 q 474 77 428 77 q 593 112 548 77 q 638 211 638 147 q 614 288 638 259 q 552 334 590 316 q 467 367 513 351 q 397 398 431 380 q 341 446 363 416 q 319 524 319 476 q 348 610 319 576 q 434 677 377 644 q 485 711 460 694 q 527 751 510 728 q 544 808 544 774 q 509 884 544 856 q 409 913 474 913 q 282 865 331 913 q 234 725 234 817 l 234 0 l 108 0 l 106 702 q 127 822 107 767 q 186 918 147 877 q 284 982 225 959 q 419 1004 342 1004 z "},"t":{"ha":559,"x_min":73,"x_max":485,"o":"m 481 624 l 319 624 l 319 178 q 327 122 319 140 q 354 99 335 104 q 406 94 373 94 l 485 94 l 485 8 q 445 0 472 3 q 378 -3 418 -3 q 263 17 304 -3 q 206 76 222 37 q 190 174 190 116 l 190 624 l 73 624 l 73 718 l 193 718 l 224 927 l 319 927 l 319 719 l 481 719 l 481 624 z "},"ŧ":{"ha":556,"x_min":80,"x_max":517,"o":"m 457 438 l 457 356 l 80 356 l 80 438 l 457 438 m 512 624 l 350 624 l 351 178 q 358 122 351 140 q 385 99 366 104 q 438 94 404 94 l 517 94 l 517 8 q 476 0 503 3 q 410 -3 449 -3 q 294 17 335 -3 q 238 76 253 37 q 222 174 222 116 l 222 624 l 105 624 l 105 718 l 225 718 l 256 927 l 350 927 l 350 719 l 512 719 l 512 624 z "},"ť":{"ha":587,"x_min":73,"x_max":655,"o":"m 481 624 l 319 624 l 319 178 q 327 122 319 140 q 354 99 335 104 q 406 94 373 94 l 485 94 l 485 8 q 445 0 472 3 q 378 -3 418 -3 q 263 17 304 -3 q 206 76 222 37 q 190 174 190 116 l 190 624 l 73 624 l 73 718 l 193 718 l 224 927 l 319 927 l 319 719 l 481 719 l 481 624 m 534 735 l 587 863 l 549 869 l 549 1004 l 655 1004 l 655 863 l 600 735 l 534 735 z "},"ţ":{"ha":559,"x_min":73,"x_max":485,"o":"m 481 624 l 319 624 l 319 178 q 327 122 319 140 q 354 99 335 104 q 406 94 373 94 l 485 94 l 485 8 q 445 0 472 3 q 378 -3 418 -3 q 263 17 304 -3 q 206 76 222 37 q 190 174 190 116 l 190 624 l 73 624 l 73 718 l 193 718 l 224 927 l 319 927 l 319 719 l 481 719 l 481 624 m 460 -174 q 440 -233 460 -210 q 385 -269 419 -257 q 310 -282 351 -282 q 240 -274 273 -282 q 178 -247 207 -265 l 200 -193 q 241 -216 218 -206 q 295 -226 265 -226 q 352 -212 333 -226 q 370 -175 370 -199 q 344 -130 370 -145 q 259 -114 318 -115 q 250 -112 252 -114 q 251 -105 249 -110 l 301 11 l 369 11 l 336 -73 q 411 -91 383 -75 q 449 -129 438 -106 q 460 -174 460 -151 z "},"ț":{"ha":559,"x_min":73,"x_max":485,"o":"m 481 624 l 319 624 l 319 178 q 327 122 319 140 q 354 99 335 104 q 406 94 373 94 l 485 94 l 485 8 q 445 0 472 3 q 378 -3 418 -3 q 263 17 304 -3 q 206 76 222 37 q 190 174 190 116 l 190 624 l 73 624 l 73 718 l 193 718 l 224 927 l 319 927 l 319 719 l 481 719 l 481 624 m 255 -260 l 312 -174 l 268 -170 l 268 -63 l 398 -63 l 398 -153 l 308 -260 l 255 -260 z "},"ṭ":{"ha":559,"x_min":73,"x_max":485,"o":"m 481 624 l 319 624 l 319 178 q 327 122 319 140 q 354 99 335 104 q 406 94 373 94 l 485 94 l 485 8 q 445 0 472 3 q 378 -3 418 -3 q 263 17 304 -3 q 206 76 222 37 q 190 174 190 116 l 190 624 l 73 624 l 73 718 l 193 718 l 224 927 l 319 927 l 319 719 l 481 719 l 481 624 z "},"u":{"ha":795,"x_min":94,"x_max":701,"o":"m 370 -14 q 264 2 314 -13 q 176 49 215 18 q 116 125 138 79 q 94 231 94 170 l 94 718 l 223 718 l 223 244 q 266 130 223 174 q 397 86 310 86 q 525 127 476 86 q 573 251 573 169 l 573 718 l 701 718 l 701 0 l 599 0 l 585 138 q 541 50 572 83 q 465 1 509 17 q 370 -14 421 -15 z "},"ú":{"ha":795,"x_min":94,"x_max":701,"o":"m 370 -14 q 264 2 314 -13 q 176 49 215 18 q 116 125 138 79 q 94 231 94 170 l 94 718 l 223 718 l 223 244 q 266 130 223 174 q 397 86 310 86 q 525 127 476 86 q 573 251 573 169 l 573 718 l 701 718 l 701 0 l 599 0 l 585 138 q 541 50 572 83 q 465 1 509 17 q 370 -14 421 -15 m 491 1004 l 637 1004 l 447 802 l 348 802 l 491 1004 z "},"ŭ":{"ha":795,"x_min":94,"x_max":701,"o":"m 370 -14 q 264 2 314 -13 q 176 49 215 18 q 116 125 138 79 q 94 231 94 170 l 94 718 l 223 718 l 223 244 q 266 130 223 174 q 397 86 310 86 q 525 127 476 86 q 573 251 573 169 l 573 718 l 701 718 l 701 0 l 599 0 l 585 138 q 541 50 572 83 q 465 1 509 17 q 370 -14 421 -15 m 610 951 q 570 870 599 903 q 496 818 540 836 q 399 800 452 800 q 303 817 347 800 q 230 868 260 835 q 189 951 200 902 l 283 951 q 324 896 294 917 q 399 875 354 875 q 474 896 442 875 q 517 951 506 917 l 610 951 z "},"ǔ":{"ha":795,"x_min":94,"x_max":701,"o":"m 370 -14 q 264 2 314 -13 q 176 49 215 18 q 116 125 138 79 q 94 231 94 170 l 94 718 l 223 718 l 223 244 q 266 130 223 174 q 397 86 310 86 q 525 127 476 86 q 573 251 573 169 l 573 718 l 701 718 l 701 0 l 599 0 l 585 138 q 541 50 572 83 q 465 1 509 17 q 370 -14 421 -15 m 354 802 l 179 958 l 294 958 l 399 865 l 497 958 l 617 958 l 447 802 l 354 802 z "},"û":{"ha":795,"x_min":94,"x_max":701,"o":"m 370 -14 q 264 2 314 -13 q 176 49 215 18 q 116 125 138 79 q 94 231 94 170 l 94 718 l 223 718 l 223 244 q 266 130 223 174 q 397 86 310 86 q 525 127 476 86 q 573 251 573 169 l 573 718 l 701 718 l 701 0 l 599 0 l 585 138 q 541 50 572 83 q 465 1 509 17 q 370 -14 421 -15 m 497 802 l 399 892 l 294 802 l 181 802 l 355 958 l 447 958 l 617 802 l 497 802 z "},"ȕ":{"ha":795,"x_min":50,"x_max":701,"o":"m 370 -14 q 264 2 314 -13 q 176 49 215 18 q 116 125 138 79 q 94 231 94 170 l 94 718 l 223 718 l 223 244 q 266 130 223 174 q 397 86 310 86 q 525 127 476 86 q 573 251 573 169 l 573 718 l 701 718 l 701 0 l 599 0 l 585 138 q 541 50 572 83 q 465 1 509 17 q 370 -14 421 -15 m 409 1004 l 545 802 l 446 802 l 275 1004 l 409 1004 m 188 1004 l 351 802 l 252 802 l 50 1004 l 188 1004 z "},"ü":{"ha":795,"x_min":94,"x_max":701,"o":"m 370 -14 q 264 2 314 -13 q 176 49 215 18 q 116 125 138 79 q 94 231 94 170 l 94 718 l 223 718 l 223 244 q 266 130 223 174 q 397 86 310 86 q 525 127 476 86 q 573 251 573 169 l 573 718 l 701 718 l 701 0 l 599 0 l 585 138 q 541 50 572 83 q 465 1 509 17 q 370 -14 421 -15 m 472 844 l 472 969 l 598 969 l 597 844 l 472 844 m 201 844 l 202 969 l 328 969 l 327 844 l 201 844 z "},"ụ":{"ha":795,"x_min":94,"x_max":701,"o":"m 370 -14 q 264 2 314 -13 q 176 49 215 18 q 116 125 138 79 q 94 231 94 170 l 94 718 l 223 718 l 223 244 q 266 130 223 174 q 397 86 310 86 q 525 127 476 86 q 573 251 573 169 l 573 718 l 701 718 l 701 0 l 599 0 l 585 138 q 541 50 572 83 q 465 1 509 17 q 370 -14 421 -15 z "},"ù":{"ha":795,"x_min":94,"x_max":701,"o":"m 370 -14 q 264 2 314 -13 q 176 49 215 18 q 116 125 138 79 q 94 231 94 170 l 94 718 l 223 718 l 223 244 q 266 130 223 174 q 397 86 310 86 q 525 127 476 86 q 573 251 573 169 l 573 718 l 701 718 l 701 0 l 599 0 l 585 138 q 541 50 572 83 q 465 1 509 17 q 370 -14 421 -15 z "},"ủ":{"ha":795,"x_min":94,"x_max":701,"o":"m 370 -14 q 264 2 314 -13 q 176 49 215 18 q 116 125 138 79 q 94 231 94 170 l 94 718 l 223 718 l 223 244 q 266 130 223 174 q 397 86 310 86 q 525 127 476 86 q 573 251 573 169 l 573 718 l 701 718 l 701 0 l 599 0 l 585 138 q 541 50 572 83 q 465 1 509 17 q 370 -14 421 -15 m 304 1013 l 342 954 q 400 974 370 973 q 443 951 429 974 q 445 902 458 928 q 403 858 433 877 l 441 800 q 520 888 503 838 q 503 992 538 939 q 419 1043 475 1036 q 304 1013 363 1051 z "},"ư":{"ha":906,"x_min":94,"x_max":902,"o":"m 370 -14 q 264 2 314 -13 q 176 49 215 18 q 116 125 138 79 q 94 231 94 170 l 94 718 l 223 718 l 223 244 q 266 130 223 174 q 397 86 310 86 q 525 127 476 86 q 573 251 573 169 l 573 718 l 701 718 l 701 0 l 599 0 l 585 138 q 541 50 572 83 q 465 1 509 17 q 370 -14 421 -15 m 903 774 q 880 641 902 691 q 809 572 858 591 q 678 561 760 552 l 678 634 q 733 638 710 633 q 769 657 755 643 q 790 699 783 672 q 800 774 798 727 l 903 774 z "},"ứ":{"ha":906,"x_min":94,"x_max":902,"o":"m 500 1004 l 646 1004 l 456 802 l 357 802 l 500 1004 m 370 -14 q 264 2 314 -13 q 176 49 215 18 q 116 125 138 79 q 94 231 94 170 l 94 718 l 223 718 l 223 244 q 266 130 223 174 q 397 86 310 86 q 525 127 476 86 q 573 251 573 169 l 573 718 l 701 718 l 701 0 l 599 0 l 585 138 q 541 50 572 83 q 465 1 509 17 q 370 -14 421 -15 m 903 774 q 880 641 902 691 q 809 572 858 591 q 678 561 760 552 l 678 634 q 733 638 710 633 q 769 657 755 643 q 790 699 783 672 q 800 774 798 727 l 903 774 z "},"ự":{"ha":906,"x_min":94,"x_max":902,"o":"m 370 -14 q 264 2 314 -13 q 176 49 215 18 q 116 125 138 79 q 94 231 94 170 l 94 718 l 223 718 l 223 244 q 266 130 223 174 q 397 86 310 86 q 525 127 476 86 q 573 251 573 169 l 573 718 l 701 718 l 701 0 l 599 0 l 585 138 q 541 50 572 83 q 465 1 509 17 q 370 -14 421 -15 m 903 774 q 880 641 902 691 q 809 572 858 591 q 678 561 760 552 l 678 634 q 733 638 710 633 q 769 657 755 643 q 790 699 783 672 q 800 774 798 727 l 903 774 z "},"ừ":{"ha":906,"x_min":94,"x_max":902,"o":"m 370 -14 q 264 2 314 -13 q 176 49 215 18 q 116 125 138 79 q 94 231 94 170 l 94 718 l 223 718 l 223 244 q 266 130 223 174 q 397 86 310 86 q 525 127 476 86 q 573 251 573 169 l 573 718 l 701 718 l 701 0 l 599 0 l 585 138 q 541 50 572 83 q 465 1 509 17 q 370 -14 421 -15 m 903 774 q 880 641 902 691 q 809 572 858 591 q 678 561 760 552 l 678 634 q 733 638 710 633 q 769 657 755 643 q 790 699 783 672 q 800 774 798 727 l 903 774 z "},"ử":{"ha":906,"x_min":94,"x_max":902,"o":"m 310 1013 l 349 954 q 406 974 376 973 q 449 951 435 974 q 452 902 464 928 q 410 858 440 877 l 447 800 q 527 888 509 838 q 510 992 544 939 q 425 1043 481 1036 q 310 1013 369 1051 m 370 -14 q 264 2 314 -13 q 176 49 215 18 q 116 125 138 79 q 94 231 94 170 l 94 718 l 223 718 l 223 244 q 266 130 223 174 q 397 86 310 86 q 525 127 476 86 q 573 251 573 169 l 573 718 l 701 718 l 701 0 l 599 0 l 585 138 q 541 50 572 83 q 465 1 509 17 q 370 -14 421 -15 m 903 774 q 880 641 902 691 q 809 572 858 591 q 678 561 760 552 l 678 634 q 733 638 710 633 q 769 657 755 643 q 790 699 783 672 q 800 774 798 727 l 903 774 z "},"ữ":{"ha":906,"x_min":94,"x_max":902,"o":"m 617 890 q 570 864 599 877 q 497 850 541 850 q 432 859 460 850 q 378 877 404 868 q 320 886 352 886 q 265 875 286 886 q 223 847 244 863 l 199 923 q 249 960 222 944 q 315 975 275 975 q 379 965 349 975 q 438 946 409 956 q 497 936 467 936 q 551 948 528 936 q 594 975 574 959 l 617 890 m 370 -14 q 264 2 314 -13 q 176 49 215 18 q 116 125 138 79 q 94 231 94 170 l 94 718 l 223 718 l 223 244 q 266 130 223 174 q 397 86 310 86 q 525 127 476 86 q 573 251 573 169 l 573 718 l 701 718 l 701 0 l 599 0 l 585 138 q 541 50 572 83 q 465 1 509 17 q 370 -14 421 -15 m 903 774 q 880 641 902 691 q 809 572 858 591 q 678 561 760 552 l 678 634 q 733 638 710 633 q 769 657 755 643 q 790 699 783 672 q 800 774 798 727 l 903 774 z "},"ű":{"ha":795,"x_min":94,"x_max":751,"o":"m 370 -14 q 264 2 314 -13 q 176 49 215 18 q 116 125 138 79 q 94 231 94 170 l 94 718 l 223 718 l 223 244 q 266 130 223 174 q 397 86 310 86 q 525 127 476 86 q 573 251 573 169 l 573 718 l 701 718 l 701 0 l 599 0 l 585 138 q 541 50 572 83 q 465 1 509 17 q 370 -14 421 -15 z "},"ȗ":{"ha":795,"x_min":94,"x_max":701,"o":"m 370 -14 q 264 2 314 -13 q 176 49 215 18 q 116 125 138 79 q 94 231 94 170 l 94 718 l 223 718 l 223 244 q 266 130 223 174 q 397 86 310 86 q 525 127 476 86 q 573 251 573 169 l 573 718 l 701 718 l 701 0 l 599 0 l 585 138 q 541 50 572 83 q 465 1 509 17 q 370 -14 421 -15 z "},"ū":{"ha":795,"x_min":94,"x_max":701,"o":"m 370 -14 q 264 2 314 -13 q 176 49 215 18 q 116 125 138 79 q 94 231 94 170 l 94 718 l 223 718 l 223 244 q 266 130 223 174 q 397 86 310 86 q 525 127 476 86 q 573 251 573 169 l 573 718 l 701 718 l 701 0 l 599 0 l 585 138 q 541 50 572 83 q 465 1 509 17 q 370 -14 421 -15 m 607 948 l 607 858 l 192 858 l 192 948 l 607 948 z "},"ų":{"ha":795,"x_min":94,"x_max":726,"o":"m 370 -14 q 264 2 314 -13 q 176 49 215 18 q 116 125 138 79 q 94 231 94 170 l 94 718 l 223 718 l 223 244 q 266 130 223 174 q 397 86 310 86 q 525 127 476 86 q 573 251 573 169 l 573 718 l 701 718 l 701 0 l 599 0 l 585 138 q 541 50 572 83 q 465 1 509 17 q 370 -14 421 -15 m 459 -122 q 489 -47 459 -80 q 601 13 518 -14 l 694 4 q 593 -51 624 -25 q 563 -110 563 -76 q 577 -148 563 -135 q 626 -161 592 -161 q 685 -152 660 -161 q 726 -135 711 -144 l 726 -203 q 673 -222 709 -213 q 597 -231 638 -231 q 494 -202 529 -231 q 459 -122 459 -172 z "},"ů":{"ha":795,"x_min":94,"x_max":701,"o":"m 370 -14 q 264 2 314 -13 q 176 49 215 18 q 116 125 138 79 q 94 231 94 170 l 94 718 l 223 718 l 223 244 q 266 130 223 174 q 397 86 310 86 q 525 127 476 86 q 573 251 573 169 l 573 718 l 701 718 l 701 0 l 599 0 l 585 138 q 541 50 572 83 q 465 1 509 17 q 370 -14 421 -15 m 544 944 q 502 843 544 884 q 400 801 460 801 q 299 843 340 801 q 257 947 257 885 q 299 1045 257 1004 q 400 1085 342 1085 q 473 1066 440 1085 q 525 1015 506 1047 q 544 944 544 983 m 472 944 q 451 997 472 976 q 399 1017 430 1017 q 346 997 369 1017 q 324 944 324 976 q 346 891 324 914 q 399 868 369 868 q 451 891 430 868 q 472 944 472 914 z "},"ũ":{"ha":795,"x_min":94,"x_max":701,"o":"m 370 -14 q 264 2 314 -13 q 176 49 215 18 q 116 125 138 79 q 94 231 94 170 l 94 718 l 223 718 l 223 244 q 266 130 223 174 q 397 86 310 86 q 525 127 476 86 q 573 251 573 169 l 573 718 l 701 718 l 701 0 l 599 0 l 585 138 q 541 50 572 83 q 465 1 509 17 q 370 -14 421 -15 m 610 890 q 564 864 592 877 q 491 850 535 850 q 426 859 453 850 q 372 877 398 868 q 314 886 346 886 q 259 875 280 886 q 217 847 238 863 l 192 923 q 242 960 216 944 q 308 975 269 975 q 373 965 342 975 q 432 946 403 956 q 491 936 460 936 q 545 948 522 936 q 588 975 568 959 l 610 890 z "},"v":{"ha":699,"x_min":32,"x_max":667,"o":"m 667 718 l 408 0 l 292 0 l 32 718 l 153 718 l 344 161 l 356 161 l 547 718 l 667 718 z "},"w":{"ha":1091,"x_min":40,"x_max":1051,"o":"m 1051 718 l 833 0 l 707 0 l 543 530 l 388 0 l 262 0 l 40 718 l 159 718 l 324 166 l 335 166 l 497 718 l 594 718 l 762 167 l 773 167 l 931 718 l 1051 718 z "},"ẃ":{"ha":1091,"x_min":40,"x_max":1051,"o":"m 1051 718 l 833 0 l 707 0 l 543 530 l 388 0 l 262 0 l 40 718 l 159 718 l 324 166 l 335 166 l 497 718 l 594 718 l 762 167 l 773 167 l 931 718 l 1051 718 m 642 1004 l 788 1004 l 599 802 l 499 802 l 642 1004 z "},"ŵ":{"ha":1091,"x_min":40,"x_max":1051,"o":"m 1051 718 l 833 0 l 707 0 l 543 530 l 388 0 l 262 0 l 40 718 l 159 718 l 324 166 l 335 166 l 497 718 l 594 718 l 762 167 l 773 167 l 931 718 l 1051 718 m 648 802 l 551 892 l 446 802 l 332 802 l 506 958 l 598 958 l 769 802 l 648 802 z "},"ẅ":{"ha":1091,"x_min":40,"x_max":1051,"o":"m 1051 718 l 833 0 l 707 0 l 543 530 l 388 0 l 262 0 l 40 718 l 159 718 l 324 166 l 335 166 l 497 718 l 594 718 l 762 167 l 773 167 l 931 718 l 1051 718 m 623 844 l 624 969 l 749 969 l 749 844 l 623 844 m 353 844 l 353 969 l 479 969 l 478 844 l 353 844 z "},"ẁ":{"ha":1091,"x_min":40,"x_max":1051,"o":"m 1051 718 l 833 0 l 707 0 l 543 530 l 388 0 l 262 0 l 40 718 l 159 718 l 324 166 l 335 166 l 497 718 l 594 718 l 762 167 l 773 167 l 931 718 l 1051 718 z "},"x":{"ha":782,"x_min":42,"x_max":740,"o":"m 740 0 l 600 0 l 391 281 l 183 0 l 42 0 l 319 373 l 65 718 l 205 718 l 391 466 l 578 718 l 718 718 l 463 373 l 740 0 z "},"y":{"ha":741,"x_min":32,"x_max":710,"o":"m 177 -229 q 90 -220 114 -229 q 67 -211 67 -211 l 67 -128 l 140 -129 q 206 -124 180 -131 q 249 -105 233 -117 q 273 -78 265 -93 q 288 -51 282 -64 l 313 17 l 32 718 l 162 718 l 374 164 l 584 718 l 710 718 l 407 -54 q 345 -160 379 -122 q 268 -214 310 -199 q 177 -229 226 -229 z "},"ý":{"ha":741,"x_min":32,"x_max":710,"o":"m 177 -229 q 90 -220 114 -229 q 67 -211 67 -211 l 67 -128 l 140 -129 q 206 -124 180 -131 q 249 -105 233 -117 q 273 -78 265 -93 q 288 -51 282 -64 l 313 17 l 32 718 l 162 718 l 374 164 l 584 718 l 710 718 l 407 -54 q 345 -160 379 -122 q 268 -214 310 -199 q 177 -229 226 -229 m 465 1004 l 610 1004 l 421 802 l 322 802 l 465 1004 z "},"ŷ":{"ha":741,"x_min":32,"x_max":710,"o":"m 177 -229 q 90 -220 114 -229 q 67 -211 67 -211 l 67 -128 l 140 -129 q 206 -124 180 -131 q 249 -105 233 -117 q 273 -78 265 -93 q 288 -51 282 -64 l 313 17 l 32 718 l 162 718 l 374 164 l 584 718 l 710 718 l 407 -54 q 345 -160 379 -122 q 268 -214 310 -199 q 177 -229 226 -229 m 474 802 l 376 892 l 272 802 l 158 802 l 332 958 l 424 958 l 594 802 l 474 802 z "},"ÿ":{"ha":741,"x_min":32,"x_max":710,"o":"m 177 -229 q 90 -220 114 -229 q 67 -211 67 -211 l 67 -128 l 140 -129 q 206 -124 180 -131 q 249 -105 233 -117 q 273 -78 265 -93 q 288 -51 282 -64 l 313 17 l 32 718 l 162 718 l 374 164 l 584 718 l 710 718 l 407 -54 q 345 -160 379 -122 q 268 -214 310 -199 q 177 -229 226 -229 m 446 844 l 447 969 l 572 969 l 572 844 l 446 844 m 176 844 l 176 969 l 302 969 l 301 844 l 176 844 z "},"ỵ":{"ha":741,"x_min":32,"x_max":710,"o":"m 177 -229 q 90 -220 114 -229 q 67 -211 67 -211 l 67 -128 l 140 -129 q 206 -124 180 -131 q 249 -105 233 -117 q 273 -78 265 -93 q 288 -51 282 -64 l 313 17 l 32 718 l 162 718 l 374 164 l 584 718 l 710 718 l 407 -54 q 345 -160 379 -122 q 268 -214 310 -199 q 177 -229 226 -229 z "},"ỳ":{"ha":741,"x_min":32,"x_max":710,"o":"m 177 -229 q 90 -220 114 -229 q 67 -211 67 -211 l 67 -128 l 140 -129 q 206 -124 180 -131 q 249 -105 233 -117 q 273 -78 265 -93 q 288 -51 282 -64 l 313 17 l 32 718 l 162 718 l 374 164 l 584 718 l 710 718 l 407 -54 q 345 -160 379 -122 q 268 -214 310 -199 q 177 -229 226 -229 z "},"ỷ":{"ha":741,"x_min":32,"x_max":710,"o":"m 177 -229 q 90 -220 114 -229 q 67 -211 67 -211 l 67 -128 l 140 -129 q 206 -124 180 -131 q 249 -105 233 -117 q 273 -78 265 -93 q 288 -51 282 -64 l 313 17 l 32 718 l 162 718 l 374 164 l 584 718 l 710 718 l 407 -54 q 345 -160 379 -122 q 268 -214 310 -199 q 177 -229 226 -229 m 278 1013 l 316 954 q 373 974 344 973 q 417 951 403 974 q 419 902 431 928 q 377 858 407 877 l 415 800 q 494 888 476 838 q 477 992 512 939 q 393 1043 449 1036 q 278 1013 337 1051 z "},"ỹ":{"ha":741,"x_min":32,"x_max":710,"o":"m 177 -229 q 90 -220 114 -229 q 67 -211 67 -211 l 67 -128 l 140 -129 q 206 -124 180 -131 q 249 -105 233 -117 q 273 -78 265 -93 q 288 -51 282 -64 l 313 17 l 32 718 l 162 718 l 374 164 l 584 718 l 710 718 l 407 -54 q 345 -160 379 -122 q 268 -214 310 -199 q 177 -229 226 -229 m 585 890 q 538 864 567 877 q 465 850 509 850 q 400 859 428 850 q 346 877 372 868 q 288 886 320 886 q 233 875 254 886 q 191 847 213 863 l 167 923 q 217 960 190 944 q 283 975 243 975 q 347 965 317 975 q 406 946 377 956 q 465 936 435 936 q 519 948 497 936 q 563 975 542 959 l 585 890 z "},"z":{"ha":662,"x_min":53,"x_max":615,"o":"m 53 0 l 53 80 l 458 624 l 70 624 l 70 718 l 611 718 l 611 638 l 206 94 l 615 94 l 615 0 l 53 0 z "},"ź":{"ha":662,"x_min":53,"x_max":615,"o":"m 53 0 l 53 80 l 458 624 l 70 624 l 70 718 l 611 718 l 611 638 l 206 94 l 615 94 l 615 0 l 53 0 m 431 1004 l 577 1004 l 388 802 l 288 802 l 431 1004 z "},"ž":{"ha":662,"x_min":53,"x_max":615,"o":"m 53 0 l 53 80 l 458 624 l 70 624 l 70 718 l 611 718 l 611 638 l 206 94 l 615 94 l 615 0 l 53 0 m 294 802 l 119 958 l 235 958 l 340 865 l 437 958 l 558 958 l 387 802 l 294 802 z "},"ż":{"ha":662,"x_min":53,"x_max":615,"o":"m 53 0 l 53 80 l 458 624 l 70 624 l 70 718 l 611 718 l 611 638 l 206 94 l 615 94 l 615 0 l 53 0 m 275 844 l 275 969 l 405 969 l 405 844 l 275 844 z "},"ẓ":{"ha":662,"x_min":53,"x_max":615,"o":"m 53 0 l 53 80 l 458 624 l 70 624 l 70 718 l 611 718 l 611 638 l 206 94 l 615 94 l 615 0 l 53 0 z "},"ﬁ":{"ha":928,"x_min":57,"x_max":812,"o":"m 512 718 l 512 624 l 338 624 l 338 0 l 208 0 l 208 624 l 57 624 l 57 718 l 208 718 l 208 829 q 252 959 208 915 q 383 1004 296 1004 l 518 1004 l 519 913 l 411 913 q 351 890 367 913 q 335 818 335 866 l 335 718 l 512 718 m 809 718 l 809 0 l 685 0 l 685 718 l 809 718 m 812 1003 l 812 870 l 681 870 l 681 1003 l 812 1003 z "},"ﬂ":{"ha":977,"x_min":57,"x_max":916,"o":"m 512 718 l 512 624 l 338 624 l 338 0 l 208 0 l 208 624 l 57 624 l 57 718 l 208 718 l 208 829 q 252 959 208 915 q 383 1004 296 1004 l 518 1004 l 519 913 l 411 913 q 351 890 367 913 q 335 818 335 866 l 335 718 l 512 718 m 851 -9 q 757 7 793 -9 q 702 50 722 23 q 677 112 683 77 q 670 185 670 147 l 670 1032 l 797 1032 l 797 197 q 818 116 797 143 q 877 86 839 89 l 916 85 l 916 2 q 883 -6 900 -3 q 851 -9 865 -9 z "},"ª":{"ha":585,"x_min":68,"x_max":471,"o":"m 219 550 q 108 584 147 550 q 68 676 68 618 q 127 781 68 742 q 294 826 185 819 l 370 833 l 370 865 q 343 931 370 912 q 271 951 315 951 q 208 937 235 951 q 158 885 181 924 l 80 906 q 152 987 104 958 q 276 1015 199 1015 q 414 975 370 1015 q 457 865 457 935 q 457 771 457 810 q 457 702 457 733 q 458 675 457 692 q 459 641 458 658 q 463 608 460 623 l 471 558 l 381 558 l 369 617 q 298 567 332 583 q 219 550 263 550 m 249 613 q 338 647 301 613 q 362 673 353 660 q 370 702 370 686 l 370 776 l 307 772 q 196 743 233 767 q 159 681 159 719 q 184 631 159 650 q 249 613 208 613 z "},"º":{"ha":559,"x_min":62,"x_max":497,"o":"m 279 1017 q 395 988 347 1017 q 470 905 444 958 q 497 783 497 852 q 471 663 497 715 q 396 582 445 611 q 279 552 347 552 q 163 582 211 552 q 88 663 114 611 q 62 783 62 715 q 89 906 62 853 q 165 988 117 958 q 279 1017 214 1017 m 279 950 q 188 906 218 950 q 157 786 157 863 q 188 663 157 707 q 279 618 218 618 q 372 663 341 618 q 403 786 403 707 q 372 906 403 863 q 279 950 341 950 z "},"π":{"ha":915,"x_min":37,"x_max":874,"o":"m 874 624 l 717 624 l 717 0 l 592 0 l 592 624 l 297 624 q 290 449 297 538 q 272 276 283 360 q 246 120 261 192 q 215 0 231 49 l 97 0 q 126 129 113 58 q 151 281 140 201 q 168 445 162 362 q 174 610 174 529 q 163 624 174 624 l 37 624 l 37 718 l 874 718 l 874 624 z "},"⁰":{"ha":527,"x_min":38,"x_max":489,"o":"m 264 1157 q 430 1072 371 1157 q 489 831 489 986 q 430 593 489 677 q 263 508 372 508 q 97 592 156 508 q 38 829 38 676 q 98 1071 38 985 q 264 1157 157 1157 m 264 582 q 366 642 333 582 q 398 831 398 703 q 365 1023 398 960 q 263 1085 332 1085 q 162 1022 195 1085 q 128 831 128 959 q 162 643 128 704 q 264 582 195 582 z "},"¹":{"ha":333,"x_min":32,"x_max":241,"o":"m 153 517 l 153 1015 l 32 1015 l 32 1073 q 145 1091 114 1073 q 178 1149 176 1108 l 241 1149 l 241 517 l 153 517 z "},"²":{"ha":510,"x_min":32,"x_max":470,"o":"m 45 519 l 45 570 l 45 595 q 69 691 45 652 q 131 759 93 731 q 211 809 169 787 q 291 855 253 832 q 353 907 329 878 q 377 978 377 937 q 344 1055 377 1026 q 255 1083 311 1083 q 158 1050 197 1083 q 115 956 120 1017 l 32 956 q 58 1058 32 1012 q 134 1131 83 1103 q 258 1159 184 1159 q 410 1109 354 1159 q 466 978 466 1060 q 442 883 466 922 q 382 817 419 844 q 303 768 345 790 q 224 725 261 747 q 163 674 187 703 q 140 605 140 646 l 140 594 l 470 594 l 470 519 l 45 519 z "},"³":{"ha":558,"x_min":45,"x_max":513,"o":"m 53 964 q 82 1068 53 1024 q 160 1135 110 1111 q 272 1159 210 1159 q 388 1140 338 1159 q 467 1084 438 1121 q 495 995 495 1048 q 466 912 495 949 q 381 853 438 875 q 476 797 439 836 q 513 695 513 757 q 481 595 513 637 q 393 532 449 554 q 269 511 338 510 q 108 565 168 512 q 45 704 47 618 l 130 704 q 177 615 138 646 q 272 585 215 585 q 381 615 340 585 q 422 695 422 646 q 380 779 422 747 q 266 811 338 810 l 208 813 l 208 885 l 263 886 q 335 901 303 887 q 386 940 367 916 q 405 992 405 964 q 370 1059 405 1031 q 272 1088 335 1088 q 208 1074 238 1088 q 158 1034 178 1061 q 138 964 138 1007 l 53 964 z "},"⁴":{"ha":545,"x_min":32,"x_max":514,"o":"m 324 1149 l 410 1149 l 410 752 l 514 752 l 514 677 l 410 677 l 410 517 l 326 517 l 326 677 l 32 677 l 32 753 l 324 1149 m 115 752 l 325 752 l 325 1034 l 115 752 z "},"⁵":{"ha":553,"x_min":38,"x_max":515,"o":"m 99 1149 l 478 1149 l 476 1075 l 171 1075 l 156 881 q 221 918 186 906 q 302 930 256 930 q 407 907 359 930 q 485 838 456 883 q 515 724 515 792 q 452 566 515 625 q 285 508 390 508 q 129 553 196 508 q 38 672 62 599 l 112 702 q 177 613 135 647 q 279 580 219 580 q 386 618 347 580 q 425 722 425 657 q 384 820 425 783 q 285 857 344 857 q 215 846 247 857 q 149 794 183 835 q 144 794 145 794 q 140 796 143 794 l 70 817 l 99 1149 z "},"⁶":{"ha":537,"x_min":38,"x_max":499,"o":"m 285 1158 q 384 1138 340 1158 q 458 1080 429 1117 q 494 990 488 1042 l 413 990 q 367 1061 401 1036 q 287 1086 334 1086 q 165 1020 205 1086 q 130 833 125 953 q 194 901 151 876 q 289 926 238 926 q 442 871 385 926 q 499 725 499 817 q 471 612 499 660 q 394 536 444 563 q 278 510 345 510 q 102 594 166 510 q 38 824 38 679 q 104 1070 38 983 q 285 1158 169 1158 m 277 856 q 211 839 242 856 q 162 797 181 823 q 143 742 143 771 q 180 624 142 668 q 278 580 218 580 q 371 619 334 580 q 408 722 408 658 q 372 822 408 788 q 277 856 336 856 z "},"⁷":{"ha":494,"x_min":32,"x_max":476,"o":"m 32 1151 l 476 1151 l 476 1078 q 394 944 435 1020 q 320 789 353 869 q 264 639 286 710 q 236 519 242 567 l 144 519 q 182 667 153 576 q 260 866 210 759 q 382 1076 310 973 l 32 1076 l 32 1151 z "},"⁸":{"ha":576,"x_min":45,"x_max":531,"o":"m 288 1158 q 442 1111 382 1158 q 502 984 502 1065 q 477 903 502 937 q 408 849 453 869 q 468 817 440 841 q 513 760 495 793 q 531 691 531 727 q 464 559 531 608 q 288 510 397 510 q 112 559 178 510 q 45 691 45 608 q 63 760 45 727 q 108 817 81 793 q 167 849 136 841 q 98 903 123 869 q 73 984 73 937 q 133 1111 73 1065 q 288 1158 193 1158 m 288 885 q 381 912 347 885 q 415 987 415 939 q 380 1065 415 1035 q 288 1094 345 1094 q 195 1065 231 1094 q 160 987 160 1035 q 194 912 160 939 q 288 885 228 885 m 288 578 q 398 609 357 578 q 438 692 438 640 q 397 776 438 744 q 288 809 356 809 q 178 776 219 809 q 137 692 137 744 q 177 609 137 640 q 288 578 218 578 z "},"⁹":{"ha":539,"x_min":40,"x_max":501,"o":"m 251 510 q 151 531 197 510 q 75 589 105 551 q 40 676 46 626 l 122 676 q 167 608 133 634 q 248 582 201 582 q 375 645 330 582 q 415 838 419 708 q 353 766 395 793 q 253 739 310 739 q 100 794 158 739 q 42 943 42 849 q 69 1056 42 1008 q 146 1131 97 1104 q 260 1158 195 1158 q 437 1073 373 1158 q 501 844 501 988 q 434 595 501 680 q 251 510 367 510 m 263 812 q 328 828 298 812 q 377 871 358 844 q 397 926 396 897 q 360 1043 397 999 q 262 1088 322 1088 q 170 1049 206 1088 q 135 947 135 1010 q 169 846 135 881 q 263 812 203 812 z "},"∕":{"ha":933,"x_min":85,"x_max":847,"o":"m 847 1015 l 172 -6 l 85 -5 l 763 1015 l 847 1015 z "},"⁄":{"ha":322,"x_min":-217,"x_max":544,"o":"m 544 1015 l -131 -6 l -217 -5 l 460 1015 l 544 1015 z "},"½":{"ha":1203,"x_min":32,"x_max":1164,"o":"m 153 372 l 153 871 l 32 871 l 32 928 q 145 946 114 928 q 178 1004 176 964 l 241 1004 l 241 372 l 153 372 m 908 1015 l 233 -6 l 146 -5 l 824 1015 l 908 1015 m 739 -1 l 739 51 l 739 76 q 763 172 739 133 q 825 239 787 211 q 905 290 863 267 q 985 335 947 313 q 1047 388 1023 358 q 1071 459 1071 417 q 1038 535 1071 506 q 949 564 1005 564 q 852 531 890 564 q 809 437 814 498 l 726 437 q 751 538 726 492 q 827 612 777 584 q 952 640 878 640 q 1104 590 1048 640 q 1160 459 1160 540 q 1136 364 1160 403 q 1076 298 1113 325 q 997 249 1039 270 q 918 205 955 227 q 857 155 881 183 q 833 85 833 126 l 833 75 l 1164 75 l 1164 -1 l 739 -1 z "},"⅓":{"ha":1219,"x_min":32,"x_max":1175,"o":"m 153 372 l 153 871 l 32 871 l 32 928 q 145 946 114 928 q 178 1004 176 964 l 241 1004 l 241 372 l 153 372 m 908 1015 l 233 -6 l 146 -5 l 824 1015 l 908 1015 m 715 443 q 743 547 715 503 q 822 614 772 590 q 934 638 872 638 q 1050 619 1000 638 q 1128 564 1100 600 q 1157 474 1157 527 q 1128 391 1157 428 q 1042 333 1099 354 q 1138 276 1101 315 q 1174 174 1174 236 q 1142 75 1174 116 q 1055 11 1110 33 q 931 -10 1000 -10 q 769 44 830 -9 q 707 183 709 97 l 792 183 q 839 94 800 125 q 933 64 877 64 q 1043 94 1002 64 q 1083 174 1083 125 q 1041 258 1083 226 q 928 290 999 290 l 869 292 l 869 364 l 925 365 q 997 381 965 366 q 1048 419 1028 395 q 1067 472 1067 443 q 1032 539 1067 510 q 933 567 997 567 q 870 553 900 567 q 820 513 840 540 q 799 443 800 486 l 715 443 z "},"⅔":{"ha":1431,"x_min":32,"x_max":1386,"o":"m 45 373 l 45 424 l 45 449 q 69 545 45 506 q 131 613 93 585 q 211 664 169 641 q 291 709 253 686 q 353 761 329 732 q 377 833 377 791 q 344 909 377 880 q 255 938 311 938 q 158 905 197 938 q 115 810 120 872 l 32 810 q 58 912 32 866 q 134 985 83 958 q 258 1013 184 1013 q 410 964 354 1013 q 466 833 466 914 q 442 738 466 776 q 382 671 419 699 q 303 622 345 644 q 224 579 261 601 q 163 528 187 557 q 140 459 140 500 l 140 449 l 470 449 l 470 373 l 45 373 m 1119 1015 l 444 -6 l 357 -5 l 1035 1015 l 1119 1015 m 927 443 q 955 547 926 503 q 1034 614 984 590 q 1146 638 1083 638 q 1262 619 1212 638 q 1340 564 1312 600 q 1369 474 1369 527 q 1340 391 1369 428 q 1254 333 1311 354 q 1349 276 1313 315 q 1386 174 1386 236 q 1354 75 1386 116 q 1267 11 1322 33 q 1142 -10 1212 -10 q 981 44 1042 -9 q 919 183 921 97 l 1003 183 q 1050 94 1012 125 q 1145 64 1089 64 q 1255 94 1214 64 q 1295 174 1295 125 q 1253 258 1295 226 q 1140 290 1211 290 l 1081 292 l 1081 364 l 1137 365 q 1208 381 1176 366 q 1259 419 1240 395 q 1278 472 1278 443 q 1243 539 1278 510 q 1145 567 1208 567 q 1082 553 1112 567 q 1032 513 1051 540 q 1011 443 1012 486 l 927 443 z "},"¼":{"ha":1099,"x_min":32,"x_max":1068,"o":"m 153 372 l 153 871 l 32 871 l 32 928 q 145 946 114 928 q 178 1004 176 964 l 241 1004 l 241 372 l 153 372 m 908 1015 l 233 -6 l 146 -5 l 824 1015 l 908 1015 m 878 633 l 964 633 l 964 236 l 1068 236 l 1068 161 l 964 161 l 964 1 l 881 1 l 881 161 l 586 161 l 586 237 l 878 633 m 669 236 l 879 236 l 879 518 l 669 236 z "},"¾":{"ha":1276,"x_min":45,"x_max":1244,"o":"m 53 818 q 82 922 53 878 q 160 989 110 965 q 272 1013 210 1013 q 388 994 338 1013 q 467 939 438 975 q 495 849 495 902 q 466 766 495 803 q 381 708 438 729 q 476 651 439 690 q 513 549 513 611 q 481 450 513 491 q 393 386 449 408 q 269 365 338 365 q 108 419 168 366 q 45 558 47 472 l 130 558 q 177 469 138 500 q 272 439 215 439 q 381 469 340 439 q 422 549 422 500 q 380 633 422 601 q 266 665 338 665 l 208 667 l 208 739 l 263 740 q 335 756 303 741 q 386 794 367 770 q 405 847 405 818 q 370 914 405 885 q 272 942 335 942 q 208 928 238 942 q 158 888 178 915 q 138 818 138 861 l 53 818 m 1083 1015 l 408 -6 l 322 -5 l 999 1015 l 1083 1015 m 1055 633 l 1140 633 l 1140 236 l 1244 236 l 1244 161 l 1140 161 l 1140 1 l 1057 1 l 1057 161 l 763 161 l 763 237 l 1055 633 m 845 236 l 1056 236 l 1056 518 l 845 236 z "},"⅛":{"ha":1238,"x_min":32,"x_max":1192,"o":"m 153 372 l 153 871 l 32 871 l 32 928 q 145 946 114 928 q 178 1004 176 964 l 241 1004 l 241 372 l 153 372 m 908 1015 l 233 -6 l 146 -5 l 824 1015 l 908 1015 m 949 640 q 1104 594 1044 640 q 1164 467 1164 548 q 1139 386 1164 419 q 1070 332 1115 352 q 1130 300 1102 324 q 1175 243 1157 276 q 1192 174 1192 210 q 1126 42 1192 91 q 949 -8 1059 -8 q 774 42 840 -8 q 707 174 707 91 q 725 243 707 210 q 770 300 742 276 q 829 332 798 324 q 760 386 785 352 q 735 467 735 419 q 795 594 735 548 q 949 640 855 640 m 949 367 q 1042 394 1008 367 q 1076 469 1076 422 q 1042 547 1076 518 q 949 576 1007 576 q 857 547 892 576 q 822 469 822 518 q 856 394 822 422 q 949 367 890 367 m 949 61 q 1059 92 1019 61 q 1100 174 1100 123 q 1059 259 1100 226 q 949 292 1017 292 q 840 259 881 292 q 799 174 799 226 q 839 92 799 123 q 949 61 880 61 z "},"⅜":{"ha":1413,"x_min":45,"x_max":1368,"o":"m 53 818 q 82 922 53 878 q 160 989 110 965 q 272 1013 210 1013 q 388 994 338 1013 q 467 939 438 975 q 495 849 495 902 q 466 766 495 803 q 381 708 438 729 q 476 651 439 690 q 513 549 513 611 q 481 450 513 491 q 393 386 449 408 q 269 365 338 365 q 108 419 168 366 q 45 558 47 472 l 130 558 q 177 469 138 500 q 272 439 215 439 q 381 469 340 439 q 422 549 422 500 q 380 633 422 601 q 266 665 338 665 l 208 667 l 208 739 l 263 740 q 335 756 303 741 q 386 794 367 770 q 405 847 405 818 q 370 914 405 885 q 272 942 335 942 q 208 928 238 942 q 158 888 178 915 q 138 818 138 861 l 53 818 m 1083 1015 l 408 -6 l 322 -5 l 999 1015 l 1083 1015 m 1126 640 q 1280 594 1220 640 q 1340 467 1340 548 q 1316 386 1340 419 q 1247 332 1291 352 q 1306 300 1278 324 q 1351 243 1333 276 q 1369 174 1369 210 q 1302 42 1369 91 q 1126 -8 1235 -8 q 950 42 1017 -8 q 883 174 883 91 q 901 243 883 210 q 947 300 919 276 q 1006 332 974 324 q 936 386 961 352 q 911 467 911 419 q 971 594 911 548 q 1126 640 1031 640 m 1126 367 q 1219 394 1185 367 q 1253 469 1253 422 q 1218 547 1253 518 q 1126 576 1183 576 q 1034 547 1069 576 q 999 469 999 518 q 1033 394 999 422 q 1126 367 1067 367 m 1126 61 q 1236 92 1195 61 q 1276 174 1276 123 q 1235 259 1276 226 q 1126 292 1194 292 q 1016 259 1058 292 q 975 174 975 226 q 1016 92 975 123 q 1126 61 1056 61 z "},"⅝":{"ha":1408,"x_min":38,"x_max":1363,"o":"m 99 1004 l 478 1004 l 476 931 l 171 931 l 156 737 q 221 773 186 761 q 302 785 256 785 q 407 762 359 785 q 485 693 456 739 q 515 580 515 647 q 452 422 515 481 q 285 363 390 363 q 129 409 196 363 q 38 528 62 455 l 112 558 q 177 469 135 502 q 279 435 219 435 q 386 474 347 435 q 425 577 425 513 q 384 676 425 639 q 285 713 344 713 q 215 702 247 713 q 149 650 183 691 q 144 650 145 649 q 140 651 143 650 l 70 673 l 99 1004 m 1078 1015 l 403 -6 l 317 -5 l 994 1015 l 1078 1015 m 1121 640 q 1275 594 1215 640 q 1335 467 1335 548 q 1311 386 1335 419 q 1242 332 1286 352 q 1301 300 1274 324 q 1346 243 1328 276 q 1364 174 1364 210 q 1297 42 1364 91 q 1121 -8 1231 -8 q 945 42 1012 -8 q 878 174 878 91 q 896 243 878 210 q 942 300 914 276 q 1001 332 969 324 q 931 386 956 352 q 906 467 906 419 q 966 594 906 548 q 1121 640 1026 640 m 1121 367 q 1214 394 1180 367 q 1248 469 1248 422 q 1213 547 1248 518 q 1121 576 1178 576 q 1029 547 1064 576 q 994 469 994 518 q 1028 394 994 422 q 1121 367 1062 367 m 1121 61 q 1231 92 1190 61 q 1272 174 1272 123 q 1230 259 1272 226 q 1121 292 1189 292 q 1011 259 1053 292 q 970 174 970 226 q 1011 92 970 123 q 1121 61 1051 61 z "},"⅞":{"ha":1286,"x_min":32,"x_max":1241,"o":"m 32 1005 l 476 1005 l 476 932 q 394 799 435 874 q 320 643 353 723 q 264 493 286 564 q 236 373 242 422 l 144 373 q 182 522 153 430 q 260 720 210 613 q 382 931 310 827 l 32 931 l 32 1005 m 956 1015 l 281 -6 l 194 -5 l 872 1015 l 956 1015 m 998 640 q 1152 594 1092 640 q 1213 467 1213 548 q 1188 386 1213 419 q 1119 332 1163 352 q 1178 300 1151 324 q 1223 243 1206 276 q 1241 174 1241 210 q 1174 42 1241 91 q 998 -8 1108 -8 q 822 42 889 -8 q 756 174 756 91 q 773 243 756 210 q 819 300 791 276 q 878 332 847 324 q 808 386 833 352 q 783 467 783 419 q 843 594 783 548 q 998 640 903 640 m 998 367 q 1091 394 1057 367 q 1125 469 1125 422 q 1090 547 1125 518 q 998 576 1056 576 q 906 547 941 576 q 871 469 871 518 q 905 394 871 422 q 998 367 939 367 m 998 61 q 1108 92 1067 61 q 1149 174 1149 123 q 1107 259 1149 226 q 998 292 1066 292 q 889 259 930 292 q 847 174 847 226 q 888 92 847 123 q 998 61 928 61 z "},".":{"ha":313,"x_min":76,"x_max":229,"o":"m 76 0 l 76 164 l 229 164 l 229 0 l 76 0 z "},",":{"ha":335,"x_min":60,"x_max":238,"o":"m 60 -174 l 138 -3 l 78 1 l 78 154 l 238 154 l 238 21 l 120 -174 l 60 -174 z "},":":{"ha":313,"x_min":76,"x_max":230,"o":"m 230 690 l 230 526 l 76 526 l 76 690 l 230 690 m 230 166 l 230 4 l 76 4 l 76 166 l 230 166 z "},";":{"ha":333,"x_min":76,"x_max":250,"o":"m 76 -198 l 156 0 l 97 0 l 97 163 l 250 163 l 250 19 l 132 -198 l 76 -198 m 92 523 l 92 688 l 246 688 l 246 523 l 92 523 z "},"…":{"ha":1064,"x_min":90,"x_max":997,"o":"m 844 0 l 844 164 l 997 164 l 997 0 l 844 0 m 91 0 l 91 164 l 244 164 l 244 0 l 91 0 m 467 0 l 467 164 l 620 164 l 620 0 l 467 0 z "},"!":{"ha":349,"x_min":94,"x_max":248,"o":"m 247 162 l 247 0 l 94 0 l 94 162 l 247 162 m 248 1004 l 215 255 l 128 255 l 94 1004 l 248 1004 z "},"¡":{"ha":347,"x_min":94,"x_max":249,"o":"m 247 556 l 94 556 l 94 718 l 247 718 l 247 556 m 249 -224 l 94 -224 l 128 462 l 214 462 l 249 -224 z "},"?":{"ha":717,"x_min":32,"x_max":670,"o":"m 415 162 l 415 0 l 263 0 l 263 162 l 415 162 m 32 817 q 164 965 76 912 q 363 1018 251 1018 q 525 987 456 1018 q 632 902 594 956 q 670 777 670 847 q 642 655 670 706 q 573 560 615 603 q 491 474 532 517 q 421 380 449 431 q 393 258 393 328 l 283 258 q 309 395 283 338 q 373 500 335 453 q 449 587 411 546 q 513 673 487 628 q 539 772 539 717 q 490 880 539 840 q 361 920 440 920 q 273 902 316 920 q 195 853 229 884 q 147 783 162 822 l 32 817 z "},"¿":{"ha":719,"x_min":44,"x_max":683,"o":"m 299 556 l 299 718 l 453 718 l 453 556 l 299 556 m 683 -36 q 551 -184 638 -131 q 352 -237 465 -237 q 185 -206 254 -237 q 80 -120 116 -175 q 44 5 44 -65 q 64 103 44 63 q 115 175 84 144 q 182 235 147 207 q 249 295 218 263 q 301 367 281 326 q 321 464 321 408 l 431 464 q 413 352 431 399 q 365 270 394 306 q 303 206 336 235 q 242 149 271 177 q 194 87 213 120 q 176 10 176 54 q 225 -97 176 -57 q 353 -137 274 -137 q 442 -119 398 -137 q 519 -70 485 -101 q 568 -1 553 -40 l 683 -36 z "},"·":{"ha":319,"x_min":76,"x_max":235,"o":"m 235 583 l 235 429 l 76 429 l 76 583 l 235 583 z "},"•":{"ha":440,"x_min":81,"x_max":352,"o":"m 216 374 q 148 393 178 374 q 99 442 117 411 q 81 511 81 474 q 99 580 81 549 q 148 628 117 610 q 216 647 178 647 q 284 628 253 647 q 334 580 315 610 q 352 511 352 549 q 334 442 352 474 q 284 393 315 411 q 216 374 253 374 z "},"*":{"ha":547,"x_min":37,"x_max":513,"o":"m 385 535 l 276 711 l 165 531 l 88 583 l 219 747 l 37 798 l 66 879 l 240 809 l 228 1004 l 322 1004 l 310 808 l 486 885 l 513 803 l 334 747 l 462 590 l 385 535 z "},"#":{"ha":838,"x_min":51,"x_max":782,"o":"m 394 997 l 244 -2 l 165 9 l 316 1006 l 394 997 m 679 997 l 528 -2 l 449 9 l 601 1006 l 679 997 m 738 404 l 738 326 l 51 326 l 51 404 l 738 404 m 782 689 l 782 610 l 95 610 l 95 689 l 782 689 z "},"/":{"ha":487,"x_min":19,"x_max":466,"o":"m 19 -53 l 366 1004 l 466 1004 l 118 -53 l 19 -53 z "},"\\":{"ha":487,"x_min":16,"x_max":464,"o":"m 363 -53 l 16 1004 l 116 1004 l 464 -53 l 363 -53 z "},"(":{"ha":420,"x_min":97,"x_max":383,"o":"m 383 1056 q 267 761 313 922 q 221 437 221 601 q 260 132 221 281 q 372 -172 299 -16 l 285 -172 q 185 21 227 -74 q 120 218 143 116 q 97 438 97 320 q 152 769 97 610 q 295 1056 208 928 l 383 1056 z "},")":{"ha":429,"x_min":27,"x_max":313,"o":"m 27 1056 q 144 761 98 922 q 190 437 190 601 q 151 132 190 281 q 38 -172 112 -16 l 126 -172 q 225 21 183 -74 q 291 218 267 116 q 314 438 314 320 q 258 769 314 610 q 115 1056 203 928 l 27 1056 z "},"{":{"ha":455,"x_min":12,"x_max":418,"o":"m 169 862 q 192 938 169 906 q 256 987 216 970 q 348 1004 297 1004 l 418 1004 l 418 922 l 368 922 q 314 913 333 922 q 289 889 296 905 q 282 851 282 873 l 282 555 q 261 470 281 503 q 210 419 242 436 q 145 398 179 401 q 136 394 137 397 q 145 389 136 390 q 210 370 178 386 q 261 321 241 355 q 282 231 281 288 l 282 -67 q 300 -123 282 -106 q 369 -141 319 -141 l 418 -141 l 418 -224 l 350 -224 q 255 -206 296 -224 q 192 -156 215 -188 q 169 -78 169 -123 l 169 222 q 152 285 169 255 q 100 335 135 315 q 12 354 65 354 l 12 432 q 131 471 93 433 q 169 570 169 510 l 169 862 z "},"}":{"ha":461,"x_min":26,"x_max":433,"o":"m 276 862 q 252 938 276 906 q 188 987 228 970 q 97 1004 148 1004 l 26 1004 l 26 922 l 76 922 q 130 913 112 922 q 156 889 149 905 q 163 851 163 873 l 163 555 q 183 470 163 503 q 234 419 203 436 q 299 398 265 401 q 308 394 308 397 q 299 389 308 390 q 235 370 266 386 q 183 321 203 355 q 163 231 163 288 l 163 -67 q 144 -123 163 -106 q 76 -141 126 -141 l 26 -141 l 26 -224 l 94 -224 q 189 -206 149 -224 q 253 -156 230 -188 q 276 -78 276 -123 l 276 222 q 292 285 276 255 q 344 335 309 315 q 433 354 379 354 l 433 432 q 314 471 351 433 q 276 570 276 510 l 276 862 z "},"[":{"ha":421,"x_min":124,"x_max":383,"o":"m 124 1004 l 383 1004 l 383 922 l 238 922 l 237 -141 l 383 -141 l 383 -224 l 125 -224 l 124 1004 z "},"]":{"ha":440,"x_min":28,"x_max":288,"o":"m 288 1004 l 28 1004 l 28 922 l 174 922 l 175 -141 l 29 -141 l 29 -224 l 287 -224 l 288 1004 z "},"-":{"ha":524,"x_min":86,"x_max":438,"o":"m 438 410 l 438 308 l 86 308 l 86 408 l 438 410 z "},"­":{"ha":524,"x_min":86,"x_max":438,"o":"m 438 410 l 438 308 l 86 308 l 86 408 l 438 410 z "},"–":{"ha":771,"x_min":86,"x_max":685,"o":"m 685 399 l 685 299 l 86 297 l 86 399 l 685 399 z "},"—":{"ha":1551,"x_min":258,"x_max":1294,"o":"m 1294 399 l 1294 299 l 258 297 l 258 399 l 1294 399 z "}}}
